<?xml version="1.0" encoding="UTF-8" standalone="no"?>
<svg width="593px" height="152px" viewBox="0 0 593 152" version="1.1" xmlns="http://www.w3.org/2000/svg" xmlns:xlink="http://www.w3.org/1999/xlink" xmlns:sketch="http://www.bohemiancoding.com/sketch/ns">
    <!-- Generator: Sketch Beta 3.2.2 (9983) - http://www.bohemiancoding.com/sketch -->
    <title>grid 2</title>
    <desc>Created with Sketch Beta.</desc>
    <defs></defs>
    <g id="Page-1" stroke="none" stroke-width="1" fill="none" fill-rule="evenodd" sketch:type="MSPage">
        <g id="Desktop-HD" sketch:type="MSArtboardGroup" transform="translate(-410.000000, -226.000000)">
            <g id="header" sketch:type="MSLayerGroup" transform="translate(0.000000, -501.000000)">
                <g id="title" transform="translate(410.000000, 719.000000)" sketch:type="MSShapeGroup">
                    <g id="grid-2" transform="translate(0.000000, 8.000000)">
                        <rect id="left-line" fill="#CDDC39" x="53" y="0" width="1" height="152"></rect>
                        <rect id="right-line" fill="#CDDC39" x="578" y="0" width="1" height="152"></rect>
                        <rect id="baseline" fill="#CDDC39" x="0" y="103" width="583" height="1"></rect>
                        <rect id="xheight-line" fill="#CDDC39" x="49" y="50" width="534" height="1"></rect>
                        <rect id="descender-line" fill="#CDDC39" x="0" y="136" width="593" height="1"></rect>
                        <rect id="ascender-line" fill="#CDDC39" x="39" y="16" width="554" height="1"></rect>
                        <rect id="Rectangle-66" fill="#CDDC39" x="0" y="103" width="1" height="34"></rect>
                        <rect id="Rectangle-70" fill="#CDDC39" x="33" y="110" width="8" height="1"></rect>
                        <rect id="Rectangle-69" fill="#CDDC39" x="40" y="104" width="1" height="13"></rect>
                        <rect id="Rectangle-68" fill="#CDDC39" x="33" y="116" width="21" height="1"></rect>
                        <rect id="Rectangle-67" fill="#CDDC39" x="33" y="103" width="1" height="34"></rect>
                        <path d="M509.877221,117 L54,117 L54,116 L510.171907,116 L509.877221,117 Z M527.204915,117 L578,117 L578,116 L527.503644,116 L527.204915,117 Z" id="underline-thin-2" fill="#FFFFFF"></path>
                    </g>
                </g>
            </g>
        </g>
    </g>
</svg>