<?xml version="1.0" encoding="UTF-8" standalone="no"?>
<svg width="68px" height="82px" viewBox="0 0 68 82" version="1.1" xmlns="http://www.w3.org/2000/svg" xmlns:xlink="http://www.w3.org/1999/xlink" xmlns:sketch="http://www.bohemiancoding.com/sketch/ns">
    <!-- Generator: Sketch Beta 3.2.2 (9983) - http://www.bohemiancoding.com/sketch -->
    <title>logo-svg</title>
    <desc>Created with Sketch Beta.</desc>
    <defs></defs>
    <g id="Page-1" stroke="none" stroke-width="1" fill="none" fill-rule="evenodd" sketch:type="MSPage">
        <g id="Desktop-HD" sketch:type="MSArtboardGroup" transform="translate(-65.000000, -27.000000)" fill="#CDDC39">
            <g id="header" sketch:type="MSLayerGroup" transform="translate(0.000000, -501.000000)">
                <g id="logo-svg" transform="translate(65.000000, 528.000000)" sketch:type="MSShapeGroup">
                    <path d="M15.8501595,68 L0,68 L0,67 L16.1489229,67 L15.8501595,68 Z M27.7699165,68 L68,68 L68,67 L28.0866235,67 C27.9847092,67.3348608 27.8791144,67.6682172 27.7699129,68.0000109 Z" id="underline-3"></path>
                    <path d="M6.19,46.809 C2.914,46.809 0.275,49.448 0.275,52.724 C0.275,55.09 2.004,57.274 4.37,57.274 C7.646,57.274 10.285,54.635 10.285,51.359 C10.285,48.993 8.556,46.809 6.19,46.809 L6.19,46.809 Z M40.861,0.217 C37.949,0.217 35.765,2.856 35.765,5.768 C35.765,7.588 37.13,9.317 38.95,9.317 C41.68,9.317 43.955,6.86 43.955,4.13 C43.955,2.219 42.772,0.217 40.861,0.217 L40.861,0.217 Z M29.941,31.43 L18.839,69.104 C17.292,74.382 15.199,78.022 11.923,78.022 C7.828,78.022 7.1,74.291 4.916,74.291 C3.642,74.291 1.64,77.112 1.64,78.295 C1.64,80.024 4.097,81.753 8.374,81.753 C14.835,81.753 23.298,74.655 26.119,65.282 L38.95,22.33 C39.405,20.783 39.86,19.6 39.86,18.326 C39.86,17.325 38.677,17.689 38.131,17.962 C32.58,21.056 29.304,23.058 23.298,27.335 C22.57,27.881 22.479,28.245 22.479,28.7 C22.479,29.064 23.48,29.337 23.844,29.155 C26.574,27.881 28.94,27.062 29.941,27.062 C31.124,27.062 30.578,29.337 29.941,31.43 L29.941,31.43 Z M62.883,18.326 C59.516,18.326 50.78,23.695 50.78,30.975 C50.78,32.795 51.963,35.525 53.692,38.71 C54.966,41.076 55.967,43.988 55.876,47.446 C55.785,50.358 53.783,52.906 50.689,52.906 C45.502,52.906 43.864,49.084 42.408,49.084 C41.498,49.084 39.86,51.905 39.86,53.27 C39.86,55.09 41.68,57.274 44.774,57.274 C52.054,57.274 61.7,51.996 61.7,44.807 C61.7,42.077 60.426,37.8 58.97,35.343 C57.514,32.886 55.967,28.518 55.967,26.971 C55.967,24.332 57.605,22.512 59.607,22.512 C62.883,22.512 63.611,25.515 64.976,25.515 C66.068,25.515 67.524,22.785 67.524,21.693 C67.524,20.692 65.704,18.326 62.883,18.326 L62.883,18.326 Z" id=".js-2"></path>
                </g>
            </g>
        </g>
    </g>
</svg>