<?xml version="1.0" standalone="no"?>
<!DOCTYPE svg PUBLIC "-//W3C//DTD SVG 1.1//EN" "http://www.w3.org/Graphics/SVG/1.1/DTD/svg11.dtd" >
<svg xmlns="http://www.w3.org/2000/svg" xmlns:xlink="http://www.w3.org/1999/xlink" version="1.1">
<metadata></metadata>
<defs>
<font id="eb_garamond12_sc_regular" horiz-adv-x="2048" >
<font-face units-per-em="2048" ascent="1455" descent="-593" />
<missing-glyph horiz-adv-x="409" />
<glyph unicode="&#xd;" horiz-adv-x="682" />
<glyph unicode=" "  horiz-adv-x="409" />
<glyph unicode="&#x09;" horiz-adv-x="409" />
<glyph unicode="&#xa0;" horiz-adv-x="409" />
<glyph unicode="!" horiz-adv-x="552" d="M297 217q51 0 87 -36t36 -87t-36 -87t-87 -36t-87 36t-36 87t36 87t87 36zM297 1329q51 1 78.5 -44t27.5 -107q0 -51 -4 -112.5t-13 -140.5t-16 -133t-21 -153.5t-19 -138.5q-11 -80 -37 -80q-29 0 -37 80q-6 60 -20 181.5t-22.5 198.5t-16 163t-7.5 131q0 65 27.5 109.5 t79.5 45.5z" />
<glyph unicode="&#x22;" horiz-adv-x="632" d="M133 956q6 161 -6 312q-1 20 11 40.5t28 32.5q23 17 31.5 23.5t24.5 13t32 6.5q21 0 26.5 -37t-1.5 -69q-23 -159 -93 -317q-8 -19 -20 -35.5t-19 -16.5q-14 0 -14 47zM401 956q6 161 -6 312q-1 20 11 40.5t28 32.5q23 17 31.5 23.5t24.5 13t32 6.5q21 0 26.5 -37 t-1.5 -69q-23 -162 -92 -317q-8 -19 -20 -35.5t-19 -16.5t-11 15.5t-4 31.5z" />
<glyph unicode="#" horiz-adv-x="958" d="M274 422l-90 -367q-7 -30 -61 -30q-10 0 -17 9.5t-4 20.5l91 363l-130 -6q-11 0 -19.5 7.5t-8.5 16.5q0 10 2 23.5t6.5 31.5t15 30.5t25.5 13.5l137 6l70 282l-131 -6q-10 0 -19.5 8t-9.5 17q0 10 2 23.5t6.5 31t15 30t25.5 13.5l142 6l86 350q7 35 67 35 q10 0 13.5 -11.5t0.5 -23.5l-83 -346l231 13l88 356q7 35 68 35q10 0 13.5 -11.5t0.5 -23.5l-86 -352l121 6q11 0 20 -9.5t6 -19.5q-1 -4 -5.5 -21t-6.5 -22.5t-7 -18t-10.5 -17.5t-14 -10t-19.5 -5l-115 -6l-69 -283l124 6q11 0 20.5 -9t6.5 -19q-1 -5 -5.5 -21.5 t-6.5 -22.5t-7 -18.5t-10.5 -17.5t-14 -10t-19.5 -5l-119 -6l-88 -360q-7 -31 -62 -31q-10 0 -16.5 10t-3.5 21l88 356zM305 545l234 12l67 283l-231 -13z" />
<glyph unicode="$" horiz-adv-x="937" d="M541 553l-62 -500q-2 -20 17 -20q119 8 172 68.5t53 201.5q0 68 -60 146t-112 114q-5 4 -7 -7q-1 -2 -1 -3zM598 752q6 -4 42 -29t51 -36t49 -39t51.5 -47t43 -51t38 -60t22.5 -65t10 -75q0 -51 -14 -103.5t-46.5 -104.5t-80 -91.5t-120.5 -64.5t-161 -25q-16 0 -18 -12 l-19 -156q-4 -31 -51 -31q-14 0 -24 9.5t-9 21.5l21 162q0 5 -4 9.5t-8 4.5q-43 7 -100.5 25.5t-69.5 21.5q-10 2 -16 5.5t-7.5 5t-3.5 7.5t-2 7q-17 35 -38.5 131t-24.5 152q0 12 12 22t29 10q4 0 16 -24t30.5 -61.5t43 -78.5t61.5 -79.5t78 -59.5q16 -5 16 4l68 551 q0 17 -25 35q-60 41 -102.5 78t-83 83.5t-61.5 100.5t-21 113q0 47 22 100t64.5 104t115.5 86.5t163 41.5q19 3 20 12l8 53q5 35 60 35q13 0 20.5 -11t5.5 -24l-8 -53q-2 -11 12 -14q37 -3 68.5 -8.5t59.5 -12.5t34 -8q29 -5 37 -45q2 -9 9.5 -51t10 -60.5t6 -50.5t3.5 -57 q0 -15 -7 -33t-14 -18q-10 0 -29 15t-24 36q-43 160 -168 211q-4 1 -7 -3t-3 -8l-58 -464q-4 -10 -1 -16.5t3.5 -7.5t9 -5.5t15.5 -9.5zM530 1284q-87 -7 -144.5 -75t-57.5 -150q0 -107 145 -217q6 -5 12.5 -3.5t6.5 7.5l53 422q0 16 -15 16z" />
<glyph unicode="%" horiz-adv-x="1505" d="M1126 657q-39 0 -70.5 -48t-46.5 -115t-14 -132q1 -77 16 -152.5t48 -132.5t76 -57t73.5 53t42.5 123t11 142q-2 113 -40.5 216t-95.5 103zM1149 713q81 0 141 -52.5t87.5 -130.5t27.5 -168q0 -100 -31.5 -187t-100 -145.5t-161.5 -58.5q-84 0 -144.5 54t-88 135.5 t-27.5 179.5q0 90 34.5 174.5t104 141.5t158.5 57zM375 1235q-39 0 -70.5 -48t-46.5 -115t-14 -132q1 -56 10 -114t25.5 -110t43.5 -85t60 -33t59 30.5t40.5 78.5t21.5 102t6 106q-2 113 -40 216.5t-95 103.5zM397 1290q120 0 188 -104.5t68 -245.5q0 -100 -31.5 -187 t-100 -145.5t-161.5 -58.5q-84 0 -144.5 54t-88 135.5t-27.5 179.5q0 90 34.5 174t104 141t158.5 57zM279 -23l843 1330q21 34 80 34q12 0 22.5 -12t4.5 -22l-844 -1330q-18 -30 -74 -30q-15 0 -27 10t-5 20z" />
<glyph unicode="&#x26;" horiz-adv-x="1613" d="M1483 799q-128 -17 -221 -117q-40 -43 -153 -163.5t-142 -151.5l-27 -29l35 -49q73 -106 103 -138q84 -79 194 -81q32 0 75 23.5t62 29.5q22 7 31 -2t13 -20t-3 -19q-19 -12 -59 -40t-59.5 -39.5t-55.5 -22.5t-76 -11q-57 0 -98.5 12.5t-79 46.5t-65 71t-72.5 108l-27 43 l-12 -12q-15 -16 -47 -51.5t-47 -51t-44 -44t-47.5 -42t-48 -32.5t-55 -27.5t-59 -14.5t-68.5 -6q-89 1 -168 32.5t-132 95.5t-54 147q-5 295 344 456l41 19l-31 33q-2 2 -22.5 25t-29 33.5t-26.5 36.5t-27 46.5t-16.5 49.5t-7.5 58q0 101 81 162t191 64q103 3 182 -56.5 t79 -154.5q0 -96 -52.5 -169t-146.5 -108l-29 -10l19 -20q27 -31 122.5 -129.5t143.5 -167.5l24 -37l33 35q187 199 217 292q9 28 -8 54t-49 37q-12 4 -15 21q-2 13 9 13q39 0 99 -4t99 -4q41 0 116 13.5t85 13.5q22 0 20 -14q-1 -17 -24 -28q-7 -4 -14 -5zM492 684l-43 -16 q-55 -21 -94.5 -53t-61 -65t-34 -76t-16 -76.5t-3.5 -75.5q0 -92 70 -156t165 -64q105 0 182.5 40.5t157.5 125.5l19 19l-25 39q-31 47 -72 94.5t-116.5 126t-104.5 110.5zM571 770l27 12q113 52 113 228q0 59 -41.5 109t-102.5 50q-57 0 -100 -33t-43 -85q0 -103 112 -240 q4 -4 5 -6z" />
<glyph unicode="'" horiz-adv-x="399" d="M133 956q6 161 -6 312q-1 20 11 40.5t28 32.5q23 17 31.5 23.5t24.5 13t32 6.5q21 0 26.5 -37t-1.5 -69q-23 -159 -93 -317q-8 -19 -20 -35.5t-19 -16.5q-14 0 -14 47z" />
<glyph unicode="(" horiz-adv-x="645" d="M82 551q0 163 61.5 345.5t141 314.5t157.5 210q18 18 50 21q28 3 43 -12q6 -6 7 -16.5t-5 -16.5q-78 -78 -150.5 -198t-127 -290t-54.5 -334q0 -249 108 -544.5t224 -411.5q12 -12 -5 -37q-13 -15 -36 -18q-30 -3 -45 12q-55 55 -119 165.5t-120 244.5t-93 287.5 t-37 277.5z" />
<glyph unicode=")" horiz-adv-x="647" d="M545 575q0 -164 -64 -377t-150.5 -380.5t-160.5 -241.5q-15 -15 -45 -12q-31 3 -45 22q-13 16 4 33q118 118 228 400t110 528q0 164 -53.5 340.5t-126.5 304.5t-150 205q-17 17 -8 26q19 19 53 19q28 0 49 -21q58 -58 118 -146t115.5 -199t90.5 -244t35 -257z" />
<glyph unicode="*" horiz-adv-x="696" d="M545 1249q12 10 28 8t27 -14q13 -22 -14 -49l-150 -119q110 -52 168 -86q14 -6 21.5 -21t1.5 -28q-6 -12 -21 -15.5t-28 1.5q-35 15 -95 38t-84 33q10 -100 13 -190q0 -42 -33 -45q-13 -1 -24 11t-13 26q-7 53 -27 188q-45 -32 -161 -102q-12 -10 -28.5 -8t-27.5 14 q-13 21 15 49l149 119q-110 52 -168 86q-14 6 -21 21t-1 28q6 12 21 15.5t28 -1.5q35 -15 94.5 -38t83.5 -33q-9 87 -12 190q0 42 32 45q13 1 24 -11t13 -26q7 -53 27 -188q39 27 162 102z" />
<glyph unicode="+" horiz-adv-x="1208" d="M676 569q0 -7 1 -9.5t1.5 -2.5h5.5h416q12 0 21 -9.5t5 -19.5q-9 -25 -14 -36.5t-18 -24t-31 -12.5h-379q-8 0 -8 -9v-413q0 -15 -12.5 -25.5t-30.5 -15t-31.5 -6.5t-23.5 -2q-9 0 -17 8.5t-8 19.5v432q0 11 -8 11h-414q-11 0 -20 7.5t-9 16.5q0 21 13 49.5t37 28.5h387 q9 0 11.5 3.5t2.5 12.5v351q0 28 37.5 45.5t56.5 17.5q11 0 20 -7.5t9 -18.5v-392z" />
<glyph unicode="," horiz-adv-x="466" d="M182 59q-44 4 -70 28t-26 58q0 40 34 67.5t79 27.5q74 0 122 -56.5t48 -142.5q0 -59 -20 -114t-52.5 -95t-71.5 -70t-77 -46t-70 -17q-23 -1 -34 9t-5 22t27 16q79 16 137.5 71t58.5 152q0 27 -24 57t-56 33z" />
<glyph unicode="-" horiz-adv-x="561" d="M80 348q-13 -1 -17 1.5t-4 10.5q10 109 33 111q295 40 393 51q17 0 17 -12q-8 -107 -43 -111q-266 -39 -379 -51z" />
<glyph unicode="." horiz-adv-x="471" d="M236 197q46 0 79 -33t33 -80t-33 -80t-79 -33t-79.5 33.5t-33.5 79.5t33.5 79.5t79.5 33.5z" />
<glyph unicode="/" horiz-adv-x="817" d="M61 -96l609 1423q16 35 80 35q12 0 21 -11.5t5 -23.5l-608 -1423q-13 -31 -74 -31q-14 0 -25.5 10t-7.5 21z" />
<glyph unicode="0" horiz-adv-x="1038" d="M530 762q-125 0 -206.5 -97.5t-81.5 -246.5q0 -66 18 -130.5t51 -117t84 -85t111 -32.5q133 0 212 89.5t79 273.5q0 88 -30 165.5t-92.5 129t-144.5 51.5zM518 846q180 -1 309 -126.5t129 -303.5q0 -120 -58 -223t-159 -163.5t-221 -60.5q-182 1 -309 133t-127 316 q0 178 128.5 303.5t307.5 124.5z" />
<glyph unicode="1" horiz-adv-x="591" d="M223 139v543q0 18 -4 32t-8 23.5t-15 17.5l-16.5 12t-21 8t-20.5 5t-23 3.5t-21 2.5q-9 1 -12.5 12t0 22t12.5 11q67 0 118.5 -3t86.5 -3q34 0 84 3t115 3q18 0 17 -21t-17 -24q-7 -1 -28.5 -5t-30 -6t-24 -9.5t-22.5 -17t-13.5 -26.5t-6.5 -40q-6 -264 0 -543 q1 -27 8.5 -44t28.5 -26.5t37.5 -13t55.5 -8.5q10 -1 15 -2q17 -2 23 -14.5t-0.5 -24.5t-22.5 -12q-63 0 -122 5t-97 5q-41 0 -104 -5t-121 -5q-12 0 -19 12.5t-2 25t21 13.5q24 2 37.5 3.5t38 7.5t38 15t24.5 26.5t11 41.5z" />
<glyph unicode="2" horiz-adv-x="880" d="M92 608l-4.5 -4.5t-4.5 -5t-4.5 -3.5t-5 -1.5t-5.5 0.5q-17 6 -17 29q0 7 11.5 30t38.5 56t64 63.5t96.5 52t127.5 21.5q95 0 154 -75.5t59 -176.5q0 -48 -23 -103t-61 -100q-40 -49 -133.5 -138t-114.5 -103q-12 -8 7 -15q6 -2 12 -2h334q58 0 109.5 35t80.5 94 q5 9 16.5 15.5t22.5 5.5q7 0 8.5 -8.5t-2.5 -16.5q-52 -145 -67 -233q-3 -16 -9.5 -24t-10 -8.5t-11.5 -0.5q-131 8 -367 8q-203 0 -334 -6q-6 0 -9 7t-1 16.5t10 17.5q81 81 125 117q25 20 47 39.5t68 66t78 88t58.5 95.5t27.5 100q1 73 -36 119.5t-97 46.5q-74 0 -131 -22 t-107 -77z" />
<glyph unicode="3" horiz-adv-x="761" d="M653 109q0 -89 -28.5 -163t-80 -128.5t-105 -92t-122.5 -71.5q-35 -18 -78 -30.5t-63 -12.5q-18 0 -36.5 9.5t-18.5 19.5q0 16 18.5 38.5t36.5 22.5q98 0 137 20q45 24 73.5 45.5t56.5 57t41.5 88t13.5 123.5q0 23 -3.5 46t-15 50.5t-29.5 48.5t-51.5 35t-76.5 14 q-56 0 -127 -41q-11 -6 -24.5 1.5t-10.5 17.5q14 42 63 69q82 49 144 105q33 29 57.5 85.5t24.5 131.5q0 59 -36.5 97t-95.5 38q-22 0 -43 -5t-35 -9.5t-33.5 -18t-27.5 -19.5t-30.5 -25.5t-28.5 -24.5l-7 -7t-9.5 -7.5t-8.5 -0.5q-10 3 -15 11.5t-1 17.5q38 71 120 136 t173 65h4q99 -2 158 -59.5t59 -153.5q0 -29 -8 -61.5t-27.5 -73t-60 -82.5t-97.5 -74q-4 -2 -5.5 -5t0.5 -5t7 -2q67 -1 118 -23t79 -56t41.5 -70t13.5 -72z" />
<glyph unicode="4" horiz-adv-x="1007" d="M545 213q8 0 16 5t8 11v346q0 5 -7.5 6t-12.5 -3q-129 -134 -311 -347q-4 -4 -5 -11t5 -7h307zM51 115q41 51 90 106q69 74 154 169t172 188q28 31 170 194q11 12 30 36.5t31.5 38.5t18.5 15q4 1 6 -0.5t2.5 -4.5t0.5 -5.5t-0.5 -7t-0.5 -6.5q0 -114 -4.5 -302t-3.5 -313 q0 -12 10 -12q86 -4 203 2q10 0 16.5 -5t5.5 -13q-6 -29 -19.5 -57.5t-23.5 -28.5q-145 0 -164 -3q-7 -1 -16.5 -5.5t-9.5 -6.5v-366q0 -33 -50.5 -66t-68.5 -33q-31 0 -31 27v428q0 8 -12.5 13t-17.5 5q-83 0 -222 -6.5t-247 -7.5q-9 0 -16.5 10.5t-2.5 16.5z" />
<glyph unicode="5" horiz-adv-x="768" d="M209 -387q-27 0 -48.5 6.5t-21.5 18.5q0 23 68 34q295 50 295 328q0 61 -24 114.5t-67 95.5t-88 72.5t-102 59.5q-108 54 -102 123q12 135 63 246q22 46 74 67q118 48 299 72q11 1 18 -8.5t7 -20.5q0 -42 -33 -95t-72 -60q-119 -23 -250 -27q-13 -1 -20.5 -14t-16.5 -47 q-5 -18 3.5 -32.5t35.5 -29.5q94 -52 182.5 -110.5t129.5 -98.5q48 -46 87.5 -122.5t39.5 -149.5q0 -95 -42.5 -176.5t-109.5 -134t-147 -82t-158 -29.5z" />
<glyph unicode="6" horiz-adv-x="954" d="M475 -29q-193 0 -291 114t-100 304q-1 88 17.5 172.5t42.5 142.5t62 119.5t59.5 89t53.5 64.5q85 98 233 192t322 140q11 2 22 -1t7 -10q-11 -23 -53 -41q-141 -61 -239.5 -137t-174.5 -186q-43 -62 -79.5 -131.5t-69.5 -184.5t-33 -229q0 -142 70 -227q34 -42 93 -79.5 t118 -37.5q82 0 135 43q38 29 63 81t25 122q0 96 -56.5 168.5t-136.5 72.5q-66 0 -110 -12q-33 -8 -54 -18q-18 -9 -21.5 0.5t7.5 21.5q24 27 55 49q30 22 90 45t111 23q107 0 181.5 -71.5t74.5 -180.5q0 -82 -26.5 -156t-77.5 -133t-133.5 -94t-186.5 -35z" />
<glyph unicode="7" horiz-adv-x="942" d="M705 641q6 7 3 13.5t-24 7.5q-240 6 -422 6h-16.5h-19.5t-19 -1t-20.5 -2.5t-19 -5t-20.5 -8.5t-17.5 -12.5t-16.5 -17.5q-38 -46 -54 -46t-2 62q25 105 25 172q0 22 20 22q2 0 23.5 -1.5t52.5 -3.5t53 -3q141 -5 370.5 -1.5t270.5 12.5q6 0 11.5 -12.5t3.5 -18.5 q-20 -42 -78 -141q-36 -63 -245 -429t-328 -573q-29 -55 -39 -55q-24 0 -41 15t-17 38q0 5 43 84q100 174 281 484t242 415z" />
<glyph unicode="8" horiz-adv-x="925" d="M543 696q63 51 86.5 115t23.5 156q0 74 -49 132t-119 58q-76 0 -135 -47t-59 -115q0 -36 8.5 -66.5t19.5 -51.5t36.5 -46.5t43.5 -40t57.5 -45.5t61.5 -49q12 -9 25 0zM586 645q62 -41 99 -69.5t72.5 -68t51.5 -84.5t16 -101q0 -96 -53.5 -177.5t-138 -126.5t-178.5 -45 q-134 0 -232 84.5t-98 212.5q0 48 17.5 92t41 73.5t62 60t64.5 46t65 36.5q11 8 10 11.5t-12 11.5q-3 2 -4 3q-54 44 -86 74.5t-67.5 75t-52 94.5t-16.5 108q0 75 53 133.5t131.5 87.5t164.5 29q119 0 210 -71.5t91 -182.5q0 -61 -27.5 -104.5t-71.5 -81.5q-33 -29 -102 -80 q-24 -18 -25 -24.5t15 -16.5zM403 535q-38 -31 -57 -48.5t-40 -46t-29.5 -61.5t-8.5 -78q0 -101 60.5 -176.5t154.5 -75.5q86 0 142.5 55.5t56.5 137.5q0 56 -35.5 111.5t-79.5 93.5t-110 83q-3 2 -8.5 5.5t-7 4.5t-5.5 3t-6 2t-5.5 0.5t-6.5 -1t-6.5 -4t-8.5 -5.5z" />
<glyph unicode="9" horiz-adv-x="954" d="M514 848q151 0 254.5 -119t103.5 -299q0 -273 -258 -526q-90 -89 -245 -180t-256 -105q-29 -5 -29 10q0 19 29 27q85 27 229.5 141t210.5 203q70 93 113 201.5t43 263.5q0 129 -75.5 219t-187.5 90q-92 0 -144 -71t-52 -156q0 -96 60.5 -176t140.5 -80q57 0 98 18 q14 6 36.5 19t28.5 16q7 3 12.5 -6.5t2.5 -15.5q-20 -39 -68 -72q-32 -24 -85 -46t-103 -22q-107 0 -185.5 74.5t-78.5 183.5q0 70 29 142t80 131.5t129 97t167 37.5z" />
<glyph unicode=":" horiz-adv-x="507" d="M256 197q46 0 79.5 -33.5t33.5 -79.5t-33.5 -79.5t-79.5 -33.5t-79.5 33.5t-33.5 79.5t33.5 79.5t79.5 33.5zM256 764q46 0 79.5 -33t33.5 -80q0 -46 -33 -79t-80 -33t-80 33t-33 79q0 47 33.5 80t79.5 33z" />
<glyph unicode=";" horiz-adv-x="466" d="M217 764q47 0 80 -33t33 -80q0 -46 -33 -79t-80 -33t-80 33t-33 79q0 47 33 80t80 33zM182 59q-44 4 -70 28t-26 58q0 40 34 67.5t79 27.5q74 0 122 -56.5t48 -142.5q0 -59 -20 -114t-52.5 -95t-71.5 -70t-77 -46t-70 -17q-23 -1 -34 9t-5 22t27 16q79 16 137.5 71 t58.5 152q0 27 -24 57t-56 33z" />
<glyph unicode="&#x3c;" horiz-adv-x="1208" d="M272 469l779 -356q25 -12 37 -44.5t12 -54.5q0 -10 -9.5 -19t-19.5 -5l-878 409q-30 14 -57 31t-27 25q0 17 19.5 49.5t47.5 44.5l895 409q10 4 20 -6.5t7 -21.5q-7 -26 -13 -40.5t-19 -29.5t-32 -24l-764 -357q-4 -2 -3.5 -5t5.5 -5z" />
<glyph unicode="=" horiz-adv-x="1208" d="M152 395h927q12 0 21.5 -9t5.5 -19q-9 -25 -14.5 -37t-18.5 -24.5t-31 -12.5h-911q-11 0 -20 7.5t-9 16.5q0 21 13 49.5t37 28.5zM152 745h927q12 0 21.5 -9t5.5 -19q-9 -25 -14.5 -37t-18.5 -24.5t-31 -12.5h-911q-11 0 -20 8t-9 17q0 21 13 49t37 28z" />
<glyph unicode="&#x3e;" horiz-adv-x="1208" d="M936 479l-778 357q-25 12 -37 44t-12 54q0 10 9 19t19 5l879 -409q84 -38 84 -55t-20 -50t-48 -45l-895 -409q-10 -4 -19.5 6.5t-6.5 21.5q8 27 13 41t18 30t32 24l764 356q4 2 3.5 5t-5.5 5z" />
<glyph unicode="?" horiz-adv-x="727" d="M303 217q51 0 87 -36t36 -87t-36 -87t-87 -36t-87 36t-36 87t36 87t87 36zM221 1354q53 0 112.5 -27t108.5 -76q83 -83 137 -198.5t54 -196.5q0 -124 -86 -172q-100 -54 -176 -104q-39 -25 -51.5 -63.5t-14.5 -98.5q0 -17 -8.5 -32t-22.5 -15q-11 0 -25 17.5t-20 41.5 q-1 5 -8.5 31.5t-9.5 38t-6.5 39.5t-7.5 61q-4 52 45 94t161 99q49 25 87 64.5t38 80.5q0 105 -52.5 170t-153.5 66q-20 0 -48.5 -4.5t-48.5 -4.5q-32 0 -59 36.5t-27 78.5q0 28 27 51t55 23z" />
<glyph unicode="@" horiz-adv-x="1533" d="M1008 96q-37 0 -60 19t-33.5 38t-17.5 19q-5 0 -38.5 -19t-88 -38t-111.5 -19q-105 0 -173 59.5t-68 163.5q0 120 61.5 214.5t159.5 144t211 49.5q83 0 133 -16q40 -13 47 -13q10 0 25.5 19.5t25.5 19.5q20 0 34 -10q5 -3 3 -6q-30 -82 -45 -164l-43 -270q-6 -54 -6 -56 q0 -59 37 -59q112 0 193 78t81 201q0 139 -72.5 256t-193.5 183t-262 66q-163 0 -300.5 -68t-222.5 -198.5t-85 -298.5q0 -159 83 -292.5t222.5 -209t300.5 -75.5q99 0 223 46t201 111q25 21 37 21q28 0 28 -27q0 -19 -50 -57.5t-122.5 -77.5t-167 -68.5t-172.5 -29.5 q-182 0 -337 80t-249 227.5t-94 331.5q0 128 40 237t110 187.5t164.5 133.5t204 82t227.5 27q151 0 285.5 -75t216.5 -204t82 -278q0 -116 -61 -205.5t-156.5 -134.5t-206.5 -45zM805 666q-95 0 -168.5 -83t-73.5 -225q0 -101 50.5 -146.5t119.5 -45.5q59 0 123 45 q41 26 55 100l39 211q2 8 2 25q0 56 -40 87.5t-107 31.5z" />
<glyph unicode="A" horiz-adv-x="1400" d="M1368 -10q-24 0 -129.5 6t-155.5 6q-44 0 -112.5 -1t-89.5 -1q-60 0 -60 23q0 22 68 40q59 14 81.5 36t22.5 57q0 13 -8 59q-33 164 -59 262q-4 15 -15 19t-43 4h-391q-15 0 -22 -7.5t-13 -29.5l-77 -254q-5 -12 -5 -31q0 -43 33.5 -73.5t85.5 -43.5q68 -17 68 -41 q0 -22 -60 -22q-14 0 -78.5 2t-107.5 2q-48 0 -131.5 -6t-114.5 -6q-59 0 -59 26t67 47q59 17 102.5 52t74.5 106q196 444 383 963q19 57 20 61q3 10 4 24.5t1.5 23.5t2.5 10q54 17 74 30q12 8 21 21t13.5 21.5t8.5 8.5q11 0 20 -28q154 -488 365 -1094q39 -112 86.5 -152.5 t120.5 -52.5q33 -6 50 -19t17 -28q0 -20 -59 -20zM682 1110l-184 -492q-4 -12 -4 -14q0 -16 43 -16h317h13t8.5 1t6 3t1.5 6t-4 20l-162 490q-12 37 -19 37q-4 0 -16 -35z" />
<glyph unicode="B" horiz-adv-x="1183" d="M426 836q0 -26 3.5 -41t15 -21.5t17 -8t25.5 -3.5q3 0 14 -1t19 -1q129 0 228 59q32 18 62 67.5t30 127.5q0 49 -12 92.5t-40.5 85.5t-86.5 67t-140 25q-80 0 -107.5 -21.5t-27.5 -70.5v-223v-133zM365 0q-51 0 -128.5 -5t-138.5 -5q-59 0 -59 22q0 26 67 37 q81 14 120.5 49t39.5 105v921q0 73 -30 104.5t-107 45.5q-68 12 -68 41q0 22 60 22q59 0 116.5 -1t96.5 -1q34 0 98 5.5t129 5.5q231 0 343 -71.5t112 -234.5q0 -63 -21.5 -116t-48.5 -80q-35 -33 -62 -51t-75 -37q-8 -3 -8.5 -10.5t8.5 -10.5q39 -12 65 -22.5t64 -29.5 t63.5 -43t50 -57.5t36.5 -81t12 -104.5q0 -64 -15 -117.5t-34.5 -85.5t-53.5 -61t-54.5 -41.5t-55.5 -30.5q-138 -69 -328 -69q-13 0 -80 4t-114 4zM907 387q0 179 -151 264q-94 51 -213 51q-61 0 -94 -22q-20 -13 -23 -51q-2 -37 -2 -123q0 -57 6 -285q4 -75 35 -106 q39 -39 123 -39q80 0 153 40.5t119.5 113t46.5 157.5z" />
<glyph unicode="C" horiz-adv-x="1310" d="M1200 281q5 10 15.5 17.5t21.5 13t14 7.5q3 3 4 3q6 0 10.5 -12.5t4.5 -26.5q0 -3 -1 -9t-1 -8q-7 -47 -27 -114t-41 -99q-4 -7 -17.5 -12.5t-38.5 -13.5t-44 -17q-87 -41 -344 -41q-182 0 -335 95t-240 254t-87 344q0 145 61 275.5t163 222t238.5 145t283.5 53.5 q50 0 119.5 -8t97.5 -17q80 -26 155 -37q23 -3 27 -61q14 -109 16 -223q2 -17 -3.5 -32.5t-18.5 -14.5q-18 2 -32.5 21.5t-20.5 53.5q-12 94 -72 150q-12 12 -30.5 25.5t-55.5 33.5t-93.5 32.5t-121.5 12.5q-110 0 -206 -49t-161.5 -129.5t-103 -186.5t-37.5 -218 q0 -100 23 -198.5t68.5 -184.5t107.5 -152t145 -104.5t176 -38.5q81 0 147 23t111 63.5t72 77.5t51 84z" />
<glyph unicode="D" horiz-adv-x="1544" d="M760 -14q-5 0 -167.5 7t-258.5 7q-38 0 -97.5 -5t-117.5 -5q-60 0 -60 22q0 25 68 37q77 14 107 47.5t30 106.5v921q0 73 -30 104.5t-107 45.5q-68 12 -68 41q0 22 60 22q59 0 116.5 -2t96.5 -2h14q48 0 187.5 8.5t162.5 8.5q164 0 290.5 -31t212 -87.5t140.5 -140 t79 -183t24 -222.5q0 -141 -52 -269.5t-142 -223.5t-217 -151t-271 -56zM1247 709q0 160 -67 291.5t-191 208.5t-282 77q-47 0 -72 -0.5t-60 -3t-52.5 -7t-38.5 -13.5t-30.5 -22.5t-16.5 -33t-7 -45.5v-913q0 -58 17 -87.5t55 -58.5q60 -45 147 -45q17 0 57 2t64 2 q113 0 206 57t150.5 150t89 207t31.5 234z" />
<glyph unicode="E" horiz-adv-x="1095" d="M938 1337q34 0 37 -18q31 -173 31 -211q0 -31 -29 -31q-17 0 -23 21q-29 95 -45 112q-51 56 -137 56h-268q-19 0 -41 -19.5t-25 -42.5q-2 -14 -5 -189t-3 -249q0 -45 21 -45h213q43 0 76 22t48 58q3 8 16.5 21.5t20.5 13.5q9 0 18 -9.5t9 -23.5q0 -7 -3 -51t-3 -62 q0 -24 2 -79t2 -60q0 -35 -19 -35q-18 0 -30.5 16t-16.5 31q-14 45 -40 68.5t-54 23.5h-190q-24 0 -34 -1t-21 -6.5t-13.5 -17.5t-1.5 -34q0 -14 6 -365q2 -80 32 -119.5t97 -39.5h213q48 0 80 5.5t45.5 12.5t30.5 19q42 33 86 129q11 23 29 20q26 -4 26 -22 q0 -27 -12 -98.5t-23 -112.5q-8 -35 -28 -35q-138 0 -356.5 6t-313.5 6q-44 0 -111 -6t-125 -6q-59 0 -59 22q0 25 68 37q79 14 115 48.5t36 105.5v921q0 73 -30 104.5t-107 45.5q-68 12 -68 41q0 22 60 22q78 0 185 -3t177 -3q82 0 190.5 1.5t184.5 3t80 1.5z" />
<glyph unicode="F" horiz-adv-x="1048" d="M993 1114q0 -43 -18 -43q-24 0 -31 25q-23 73 -47 100q-50 55 -137 55h-260q-30 0 -46 -16t-19.5 -34.5t-4.5 -51.5q-2 -51 -2 -193q0 -141 2 -190q0 -45 21 -45q48 0 132.5 3t104.5 3q43 0 76.5 22t48.5 58q3 8 16.5 21.5t20.5 13.5q9 0 18.5 -10.5t8.5 -22.5 q-7 -82 -7 -113q0 -36 7 -139q0 -35 -19 -35q-18 0 -30.5 16t-16.5 31q-25 80 -96 80q-18 0 -52.5 1t-50.5 1q-47 0 -133 -4q-49 -4 -49 -51q0 -254 6 -389q3 -70 32.5 -107.5t102.5 -50.5q68 -12 68 -37q0 -22 -59 -22q-60 0 -113 7t-88 7q-49 0 -125 -7t-133 -7 q-60 0 -60 22q0 25 68 37q77 14 107 47.5t30 108.5v864q0 98 -26 145t-99 60q-67 11 -67 41q0 22 59 22q76 0 179.5 -3t172.5 -3q52 0 118 0.5t124 1.5t107.5 2t80.5 1l31 1q34 0 37 -18q10 -59 10 -205z" />
<glyph unicode="G" horiz-adv-x="1492" d="M1272 1278q22 -158 22 -229q0 -15 -9 -28t-21 -13q-13 0 -23 9.5t-14.5 19t-9.5 26.5q-21 58 -64 108q-30 37 -114 73t-212 36q-150 0 -272 -74.5t-191 -205.5t-69 -291q0 -99 22.5 -195t67 -180t106 -148.5t145.5 -101.5t179 -37q157 0 279 76q49 33 49 158q0 17 2 58 t2 60q0 50 -10 62q-23 30 -90 46.5t-111 16.5q-10 0 -25.5 11t-15.5 24t15.5 24t25.5 11q48 0 124 -4t134 -4q36 0 90.5 4t91.5 4q13 0 28 -7.5t15 -25.5q0 -12 -16 -23.5t-27 -13.5q-43 -12 -61.5 -34.5t-24.5 -65.5q-10 -74 -10 -154v-55q0 -9 12 -33q3 -6 15 -18t12 -17 q0 -8 -8.5 -19t-20.5 -17q-273 -140 -473 -140q-194 0 -360.5 93t-265.5 255t-99 355q0 144 62 272.5t165.5 218t241 141.5t285.5 52q86 0 254.5 -29t171.5 -51z" />
<glyph unicode="H" horiz-adv-x="1658" d="M1397 205q0 -81 19.5 -112t92.5 -44q68 -12 68 -37q0 -22 -59 -22t-116.5 5t-96.5 5q-40 0 -100.5 -5t-119.5 -5t-59 22q0 25 68 37q139 26 139 150v389v5q0 25 -10 25h-783q-7 0 -8.5 -4t-1.5 -18v-379q0 -64 45.5 -110t116.5 -58q67 -11 67 -37q0 -22 -59 -22 q-58 0 -126.5 5t-113.5 5q-41 0 -104 -5t-121 -5q-59 0 -59 22q0 26 67 37q74 13 98.5 45.5t24.5 108.5v925q0 77 -18 105t-90 41q-68 12 -68 41q0 22 60 22q59 0 116 -3t94 -3q39 0 99 3t119 3t59 -22q0 -29 -68 -41q-75 -13 -107 -48.5t-32 -97.5v-393q0 -18 29 -18h760 q14 0 14 24v389q0 59 -31 95t-104 49q-68 12 -68 41q0 22 60 22q58 0 125.5 -3t111.5 -3q32 0 79 3t107 3t60 -22q0 -29 -68 -41q-70 -12 -89 -44t-19 -100v-925z" />
<glyph unicode="I" horiz-adv-x="696" d="M266 1126q0 71 -30 102.5t-107 45.5q-68 12 -68 41q0 22 60 22q58 0 126 -3t113 -3q41 0 103.5 3t120.5 3q59 0 59 -22q0 -29 -68 -41q-79 -14 -112 -46t-33 -102v-925q0 -69 40.5 -103.5t121.5 -48.5q67 -11 67 -37q0 -22 -59 -22q-58 0 -126.5 5t-113.5 5 q-50 0 -127.5 -5t-134.5 -5q-59 0 -59 22q0 26 67 37q81 14 120.5 48.5t39.5 103.5v925z" />
<glyph unicode="J" horiz-adv-x="614" d="M131 -324q135 0 135 324v1128q1 70 -28.5 101t-106.5 45q-68 12 -68 41q0 22 60 22q58 0 126 -3t113 -3q34 0 83.5 3t109.5 3q59 0 59 -22q0 -30 -67 -41q-73 -13 -94 -42t-23 -104v-837q0 -125 -7 -217.5t-13.5 -142t-26 -96.5t-27 -59t-34.5 -50q-94 -136 -252 -136 q-95 0 -153 26t-58 60q0 42 22.5 77.5t50.5 35.5q39 0 61.5 -12t41.5 -41q40 -60 96 -60z" />
<glyph unicode="K" horiz-adv-x="1394" d="M1350 -10q-62 0 -146 5t-139 5q-20 0 -67.5 -1t-98.5 -1q-59 0 -59 22q0 24 55 35q57 14 57 41q0 17 -30 51l-435 480q-35 35 -47 35q-8 0 -8 -44q0 -120 10 -393q3 -74 31.5 -118.5t99.5 -57.5q68 -12 68 -37q0 -22 -59 -22q-60 0 -113 7t-88 7q-49 0 -125 -7t-133 -7 q-60 0 -60 22q0 25 68 37q77 14 107 48t30 110v921q0 70 -30 101t-107 45q-68 12 -68 41q0 22 60 22q58 0 122.5 -2t106.5 -2q35 0 87 2t112 2q59 0 59 -22q0 -30 -67 -41q-71 -12 -91 -45t-20 -101v-383q0 -38 10 -38t27.5 11.5t28.5 24.5l409 418q31 31 31 62q0 38 -39 47 q-35 9 -49 18t-14 23q0 22 59 22h111q229 0 317 8h14q45 0 45 -22q0 -30 -67 -41q-192 -34 -311 -135q-206 -175 -394 -383q-13 -13 11 -37l495 -528q71 -80 106.5 -104t118.5 -42q68 -14 68 -37q0 -22 -59 -22z" />
<glyph unicode="L" horiz-adv-x="1175" d="M430 1161v-964q0 -68 31 -96.5t127 -28.5h299q12 0 51 15.5t63 37.5q41 36 61 63.5t46 81.5q7 20 20 41t25 21q11 0 18 -12t7 -25q0 -2 -1 -5.5t-1 -4.5q-48 -176 -56 -260q-4 -35 -28 -35q-146 0 -377.5 5t-325.5 5q-45 0 -114 -2.5t-115 -5.5l-47 -2q-58 0 -58 24 t45 35q84 16 125 49.5t41 98.5v950q0 71 -22.5 92t-102.5 35q-67 11 -67 41q0 22 59 22q58 0 122.5 -3t106.5 -3q49 0 125.5 3t133.5 3q59 0 59 -22q0 -29 -68 -41q-39 -7 -59 -11t-48 -13t-41.5 -20t-23.5 -28.5t-10 -40.5z" />
<glyph unicode="M" horiz-adv-x="1845" d="M1505 1163q0 -171 7 -331t20 -354.5t18 -282.5q3 -63 40 -97.5t114 -48.5q68 -12 68 -37q0 -22 -60 -22q-58 0 -126 5t-113 5q-39 0 -98 -5t-118 -5t-59 22q0 28 68 37q59 7 81.5 40.5t22.5 107.5q0 105 -2.5 212t-4.5 163.5t-8.5 193t-8.5 184.5q0 33 -11 33 q-5 0 -22 -33l-455 -921q-22 -49 -35 -49q-11 0 -28 53q-73 220 -153 421t-214 511q-9 22 -16.5 22.5t-10.5 -22.5q-25 -186 -35.5 -272t-20 -219t-9.5 -265q0 -30 11.5 -61t43.5 -61t78 -38q68 -12 68 -37q0 -22 -60 -22t-109 5t-83 5q-32 0 -79.5 -5t-107.5 -5 q-59 0 -59 22q0 26 67 37q35 6 61.5 27.5t39.5 50.5t18 47t8 35q84 633 84 893q0 11 -1 26.5t-1 20.5q0 30 -30 65q-12 13 -27.5 23.5t-37 18t-35 11.5t-39.5 10t-31 7q-29 10 -29 35q0 22 47 22q41 0 178.5 -8t161.5 -8q16 0 29.5 -33t26 -87t18.5 -70l323 -822 q12 -30 25 -30q11 0 23 24l403 840q12 26 20.5 73.5t16 77t20.5 29.5h74q50 0 131 8t96 8h7q43 0 43 -20q0 -15 -19.5 -28.5t-34.5 -18.5q-31 -9 -45.5 -13.5t-43.5 -16t-43 -21.5t-26 -26.5t-12 -35.5z" />
<glyph unicode="N" horiz-adv-x="1576" d="M1262 1331q46 0 107.5 3t127.5 3q59 0 59 -22q0 -30 -67 -41q-75 -13 -101 -36t-28 -75q-4 -98 -4 -1147q0 -51 -43 -51q-24 0 -72.5 34t-93.5 95q-24 33 -337.5 417.5t-391.5 479.5q-26 33 -43 33q-19 0 -19 -43q-10 -508 -10 -768q0 -141 131 -164q68 -12 68 -37 q0 -22 -60 -22t-109 5t-83 5q-32 0 -79.5 -5t-107.5 -5q-59 0 -59 22q0 25 68 37q27 5 50.5 28t37 52.5t21 52.5t9.5 37q37 317 37 819q0 101 -49.5 150t-152.5 82q-10 3 -22.5 8.5t-27 17.5t-14.5 23q0 29 47 29q67 -2 151 -6.5t165 -4.5q12 0 22 -6t13 -10t14 -18 q27 -37 385 -488.5t395 -495.5q33 -40 51 -40t21 43q4 132 4 655v178q-1 37 -41.5 71.5t-77.5 41.5q-68 12 -68 41q0 22 60 22h117z" />
<glyph unicode="O" horiz-adv-x="1562" d="M768 1280q-88 0 -165.5 -31t-133.5 -84.5t-97 -125t-61 -154t-20 -168.5q0 -175 65.5 -327t185.5 -245.5t267 -93.5q226 0 344.5 153t118.5 421q0 196 -57 342.5t-171.5 229.5t-275.5 83zM92 655q0 112 29 215.5t88 193t142.5 155.5t198.5 103.5t249 37.5 q133 0 255 -49.5t214 -136t147 -214t55 -274.5q0 -140 -45.5 -267.5t-129.5 -228t-217 -160t-296 -59.5q-134 0 -260 53t-221 142.5t-152 218t-57 270.5z" />
<glyph unicode="P" horiz-adv-x="1130" d="M375 4q-51 0 -130.5 -7t-135.5 -7q-60 0 -60 22q0 25 68 37q79 14 114 48.5t35 107.5v864q0 98 -26 145t-99 60q-67 11 -67 41q0 22 59 22t110.5 -1t90.5 -1q44 0 123 5.5t104 5.5q114 0 210.5 -24.5t170.5 -72.5t116 -126.5t42 -180.5q0 -74 -44 -171.5t-108 -147.5 q-65 -51 -151 -77t-166 -26q-36 0 -66 6q-37 8 -37 25q0 9 9 15.5t20 6.5h4q14 -2 41 -2q53 0 104.5 16.5t84.5 41.5q67 52 98 145t31 197q0 80 -34 144t-88.5 100.5t-115 55.5t-121.5 19q-131 0 -131 -86v-977q0 -77 31.5 -121t105.5 -57q68 -12 68 -37q0 -22 -60 -22 t-112.5 7t-87.5 7z" />
<glyph unicode="Q" horiz-adv-x="1650" d="M784 1282q-110 0 -204.5 -47t-158.5 -124.5t-100 -178t-36 -207.5q0 -132 46 -258.5t124 -224t190 -157.5t236 -60q90 0 169 39t135.5 103.5t97.5 147.5t61 172.5t20 176.5q0 117 -44 229t-120 198t-185 138.5t-231 52.5zM766 -111q-31 25 -121 75t-115 56 q-49 13 -105.5 46t-116 88.5t-107.5 124.5t-78.5 161t-30.5 189q0 201 93 367t261 263t377 97q109 0 214 -26t199.5 -79.5t166.5 -128.5t114 -179.5t42 -225.5q0 -101 -19.5 -191t-52 -158t-77.5 -127t-93.5 -100t-103 -73.5t-101.5 -52t-94 -31.5q-29 -7 -29 -19 q0 -10 8 -18q57 -61 110 -106t136 -105q102 -73 190 -101t209 -28q84 0 115 14q24 8 39 8q23 0 23 -16q0 -19 -7 -29.5t-30 -23.5q-118 -68 -240 -68q-138 0 -241 38t-211 116q-167 120 -324 243z" />
<glyph unicode="R" horiz-adv-x="1411" d="M430 745q0 -47 24.5 -59t84.5 -12q76 0 123 20.5t90 59.5q92 89 92 247q0 39 -6 74.5t-24.5 75t-47.5 68t-80 47t-117 18.5q-77 0 -103 -28t-28 -82q-8 -200 -8 -429zM1305 -43q-95 0 -163.5 24.5t-119.5 86.5q-12 15 -55 67t-59.5 73.5t-52.5 69t-69.5 99t-74.5 117.5 q-32 52 -88 79q-72 35 -162 45q-31 3 -31 -40v-353q0 -152 137 -176q68 -12 68 -37q0 -22 -60 -22t-112.5 7t-87.5 7q-51 0 -130.5 -7t-135.5 -7q-60 0 -60 22q0 25 68 37q79 14 114 48.5t35 107.5v864q0 98 -26 145t-99 60q-67 11 -67 41q0 22 59 22t110.5 -1t90.5 -1 q34 0 102 5.5t133 5.5q224 0 341.5 -88.5t117.5 -256.5q0 -62 -30.5 -129t-59.5 -96q-33 -32 -82.5 -71t-67.5 -48q-5 -2 -6 -4t0 -4.5t6 -9.5t36.5 -55.5t37.5 -57t34.5 -50.5t37.5 -54.5t35.5 -48.5t41 -52.5t41 -48t47.5 -52.5t48.5 -48t56.5 -53q50 -45 100 -56.5 t136 -11.5q30 0 30 -22q0 -21 -18 -36t-46 -22.5t-53 -10.5t-48 -3z" />
<glyph unicode="S" horiz-adv-x="952" d="M457 35q111 0 173 74.5t62 187.5q0 93 -75.5 174.5t-221.5 179.5q-124 83 -192 168.5t-68 198.5q0 138 116.5 240t295.5 102q58 0 114 -10t90.5 -20.5t39.5 -10.5q12 0 21 -14.5t13 -32.5q1 -4 5.5 -32t9 -70t4.5 -70q0 -51 -15 -51q-28 0 -47 16.5t-24 40.5 q-15 87 -78.5 136.5t-151.5 49.5q-99 0 -167 -60.5t-68 -160.5q0 -46 25.5 -92t74 -89t83.5 -69t89 -61l54 -36t56 -41t57.5 -49.5t50 -55.5t43.5 -65.5t27 -74t11 -84.5q0 -51 -14.5 -103t-47.5 -104t-81 -91.5t-121.5 -64t-161.5 -24.5q-167 0 -274 49q-35 16 -43 35 q-16 33 -26.5 104.5t-10.5 131.5q0 16 13.5 37.5t29.5 21.5q20 0 61 -135q28 -89 100.5 -132.5t168.5 -43.5z" />
<glyph unicode="T" horiz-adv-x="1372" d="M770 209q0 -71 41 -108.5t121 -51.5q67 -11 67 -37q0 -22 -59 -22q-58 0 -126.5 5t-113.5 5q-50 0 -127.5 -5t-134.5 -5q-59 0 -59 22q0 26 67 37q80 14 120 51.5t40 108.5v932q0 81 -37 88q-39 8 -151 8h-96q-53 0 -100 -21t-68 -59q-12 -24 -37.5 -51t-46.5 -27 q-15 0 -15 27q0 19 11 41q44 94 63 227q6 47 35 47q7 0 24 -22.5t27 -42.5q11 -20 53 -30.5t90 -10.5h781q78 0 118 28q15 10 36.5 30.5t37 32t29.5 11.5q6 0 10 -15.5t4 -31.5q0 -3 -1 -9.5t-1 -8.5q-33 -139 -33 -203v-25q0 -22 -9 -43.5t-23 -21.5t-22.5 20t-16.5 64 q-16 94 -189 94q-202 0 -276 -8q-33 -5 -33 -88v-932z" />
<glyph unicode="U" horiz-adv-x="1511" d="M1321 1120q-6 -106 -10 -205.5t-6.5 -221t-4.5 -173.5q-8 -238 -154.5 -393.5t-367.5 -155.5q-116 0 -210 33.5t-160 94t-110.5 146.5t-65.5 189.5t-21 224.5v461q0 67 -27 103t-67 47q-68 17 -68 45q0 22 60 22q29 0 92.5 -3t103.5 -3q34 0 89.5 2t74.5 2q59 0 59 -22 q0 -13 -15 -21t-52 -20q-29 -9 -57.5 -50.5t-28.5 -97.5v-522q0 -136 55 -256t160 -196t235 -76q189 0 288 146.5t99 393.5q0 117 -8 433q-2 85 -23 148.5t-61 74.5q-67 18 -67 41q0 22 59 22q31 0 78 -1t76 -1q35 0 90 3t76 3q59 0 59 -22q0 -27 -68 -41q-95 -19 -102 -154 z" />
<glyph unicode="V" horiz-adv-x="1376" d="M1096 1331q43 0 126.5 3t106.5 3q60 0 60 -22q0 -27 -68 -41q-70 -16 -122.5 -66.5t-78.5 -111.5l-385 -934q-1 -4 -9.5 -30t-17.5 -50.5t-20 -51.5t-22 -44t-19 -17q-10 0 -61 146l-375 1005q-47 122 -143 150q-68 21 -68 45q0 22 59 22q28 0 113.5 -3t136.5 -3 q46 0 120 2t89 2q60 0 60 -22q0 -29 -68 -41q-49 -10 -85 -44.5t-36 -84.5q0 -21 10 -51l260 -689q20 -57 37 -57q14 0 37 57l289 717q6 12 6 27q0 40 -41.5 75t-85.5 48q-67 18 -67 41q0 22 59 22q23 0 92 -1t111 -1z" />
<glyph unicode="W" horiz-adv-x="1875" d="M602 1337q30 0 92.5 -3t100.5 -3q33 0 86 2t71 2q60 0 60 -22q0 -12 -13 -22t-29 -16.5t-29 -19t-13 -28.5q0 -5 4 -17q6 -20 42.5 -111.5t49.5 -119.5q12 -27 18 -27q7 0 19 27q45 100 82 231q2 6 2 15q0 16 -12 29t-26 20t-26 17t-12 22q0 22 59 22q32 0 61 -2t46 -2 q23 0 59.5 3t61.5 3q59 0 59 -22q0 -27 -67 -41q-62 -14 -86.5 -32.5t-53.5 -65.5q-37 -63 -108 -252q-15 -38 -15 -64q0 -10 2 -14l211 -543q9 -20 23 12q76 202 250 793q12 38 12 74q0 72 -61 88q-68 19 -68 41t59 22q26 0 73.5 -1t74.5 -1q36 0 98.5 3t85.5 3 q60 0 60 -22q0 -27 -68 -41q-107 -25 -168 -180l-330 -975q-51 -144 -65 -144q-7 0 -18 12.5t-17 26.5q-48 108 -88 208t-85 220t-79 205q-8 17 -14 7q-3 -6 -8 -19q-119 -281 -234 -604q-9 -25 -21.5 -44.5t-23.5 -19.5q-8 0 -29 58l-442 1110q-51 107 -147 135 q-68 21 -68 45q0 22 59 22q31 0 89 -3t94 -3q42 0 108 2t82 2q60 0 60 -22q0 -24 -68 -41q-41 -10 -41 -68q0 -19 4 -41t8 -35l4 -12q159 -406 336 -805q18 -40 31 -2l160 396q12 30 12 47q0 16 -16 59l-117 291q-25 62 -81 106.5t-114 61.5q-67 21 -67 45q0 22 59 22z" />
<glyph unicode="X" horiz-adv-x="1447" d="M1133 1331q43 0 126 6t107 6q59 0 59 -22q0 -24 -67 -41q-52 -13 -116 -74t-150 -162l-236 -278q-37 -43 -37 -61q0 -5 8 -21l318 -457q46 -68 103.5 -113.5t115.5 -60.5q68 -17 68 -41q0 -22 -60 -22q-24 0 -132 6t-161 6q-46 0 -118.5 -1t-92.5 -1q-59 0 -59 23 q0 21 68 40q35 10 62.5 36t27.5 61q0 32 -25 67l-213 310q-14 21 -24.5 22.5t-20.5 -12.5l-276 -357q-19 -25 -19 -47q0 -29 25 -51t67 -31q68 -17 68 -41q0 -22 -60 -22q-14 0 -77 2t-105 2q-49 0 -138 -6t-120 -6q-59 0 -59 22q0 24 67 45q63 18 148.5 71.5t144.5 125.5 l256 319q37 50 37 76q0 13 -4 17l-297 417q-69 97 -121.5 135t-116.5 56q-67 21 -67 45q0 22 59 22q30 0 134 -5t159 -5q47 0 118.5 2t84.5 2q59 0 59 -22q0 -13 -14.5 -21.5t-52.5 -19.5q-42 -12 -59.5 -18.5t-31.5 -18t-14 -27.5q0 -32 68 -127l186 -262q22 -31 33 -31 q10 0 29 25l219 289q53 66 53 104q0 47 -92 64q-25 5 -46.5 17t-21.5 24q0 22 60 22q23 0 78.5 -1t87.5 -1z" />
<glyph unicode="Y" horiz-adv-x="1183" d="M541 221v303q0 58 -52 152l-239 393q-115 182 -182 201q-68 21 -68 45q0 22 59 22q26 0 107.5 -3t132.5 -3q34 0 89.5 2t74.5 2q59 0 59 -22q0 -26 -67 -41q-34 -9 -50 -19.5t-16 -31.5q0 -25 27 -74l188 -338q26 -45 38 -61.5t20 -16.5q11 0 23.5 15.5t43.5 62.5 q74 113 172 285q37 62 37 104q0 59 -84 72q-23 3 -45.5 15.5t-22.5 25.5q0 22 60 22q31 0 77.5 -1t75.5 -1q42 0 109.5 3t87.5 3q59 0 59 -22q0 -27 -67 -41q-48 -9 -105.5 -70.5t-99.5 -126.5q-121 -185 -227 -368q-36 -63 -43.5 -92t-7.5 -93v-303q0 -69 42 -113.5 t119 -58.5q68 -12 68 -37q0 -22 -60 -22q-58 0 -126 5t-113 5q-50 0 -127.5 -5t-134.5 -5q-60 0 -60 22q0 25 68 37q160 28 160 172z" />
<glyph unicode="Z" horiz-adv-x="1234" d="M473 -4q-41 0 -123 -1t-121 -1h-157q-5 0 -9 7t-5 15l-1 7q0 14 39 74.5t80 115.5q33 44 111 150.5t107 146.5t91 125.5t97 136t88.5 127t102.5 149.5t104 156q8 12 8 17q0 13 -39 16q-148 4 -299 4q-158 0 -209 -4q-57 -3 -109.5 -37.5t-78.5 -103.5q-26 -66 -58 -66 q-18 0 -18 23q0 18 14 55q47 146 55 227q2 35 31 35q15 0 51 -29q21 -16 150 -16q106 -2 297 -2q245 0 473 6q9 0 18.5 -15t3.5 -22l-125 -166q-173 -233 -256.5 -347t-198.5 -280.5t-237 -355.5q-6 -9 -6 -24q0 -13 6.5 -23.5t16.5 -11.5q98 -10 231 -10q129 0 289 10 q78 6 145.5 58t108.5 149q5 15 18 29t27 14q18 0 18 -27q0 -19 -30 -133.5t-46 -148.5q-15 -29 -27 -34q-4 -1 -9 -1q-123 0 -328.5 3t-290.5 3z" />
<glyph unicode="[" horiz-adv-x="763" d="M307 1438l338 -2q15 0 27.5 -9t9.5 -22q-4 -11 -14 -16.5t-15.5 -6t-23.5 -2.5q-42 -4 -78 -4.5t-83.5 1t-76.5 1.5q-22 0 -35.5 -17.5t-13.5 -41.5q-12 -305 -12 -782q0 -96 -1.5 -253t-1 -273.5t4.5 -252.5q1 -67 12.5 -83.5t46.5 -16.5q121 0 238 -10q53 -4 53 -37 q0 -27 -53 -27l-336 6q-39 0 -51 12t-11 50l9 1458q0 36 -5 98t-4 103q0 11 -1.5 29.5t-2 28.5t3 24.5t11.5 27.5q3 7 8 11t12.5 5t13 1.5t16 0t15.5 -0.5z" />
<glyph unicode="\" horiz-adv-x="817" d="M774 -96q4 -11 -7.5 -21t-25.5 -10q-60 0 -73 31l-609 1423q-4 12 5.5 23.5t21.5 11.5q64 0 80 -35z" />
<glyph unicode="]" horiz-adv-x="757" d="M457 1438q5 0 15.5 0.5t15.5 0t12.5 -1.5t12.5 -5t9 -11q10 -17 12.5 -32.5t0 -41t-2.5 -36.5q0 -39 -4 -100.5t-4 -100.5l8 -1458q0 -38 -11.5 -50t-49.5 -12l-336 -6q-53 0 -53 27q0 33 53 37q117 10 238 10q35 0 46.5 16.5t12.5 83.5q3 137 3.5 251.5t-0.5 276.5 t-1 251q0 416 -12 782q-2 25 -14.5 42t-34.5 17q-29 0 -77 -1.5t-84 -1t-77 4.5q-1 0 -6.5 0.5t-7.5 0.5t-6.5 1t-6.5 1.5l-6 1.5t-5.5 2l-4.5 3t-4.5 4t-3 5t-2.5 6q-4 13 9 22t28 9z" />
<glyph unicode="^" horiz-adv-x="1024" d="M512 1235q315 -452 408 -610q10 -17 3.5 -31.5t-20.5 -11.5q-57 14 -76 36q-26 28 -73 92.5t-83 117.5t-90 134t-61 91q-8 9 -11 9t-9 -9q-8 -11 -63 -94t-93 -138t-83 -118.5t-64 -84.5q-23 -23 -76 -36q-14 -3 -20.5 11.5t3.5 31.5q52 87 200 306t208 304z" />
<glyph unicode="_" horiz-adv-x="1024" d="M49 -270h948q12 0 21.5 -9.5t5.5 -19.5q-9 -26 -14 -37t-18 -24t-31 -13h-932q-11 0 -20 8t-9 17q0 21 12.5 49.5t36.5 28.5z" />
<glyph unicode="`" horiz-adv-x="571" d="M365 965q-69 96 -142.5 175t-107 113t-33.5 50q0 22 22 39.5t48 17.5q69 1 104 -55q46 -75 118 -207t72 -152q0 -26 -26 -26q-22 0 -55 45z" />
<glyph unicode="a" horiz-adv-x="1124" d="M1040 55q47 -10 47 -37q0 -11 -13.5 -17.5t-26.5 -6.5q-41 0 -93.5 5t-87.5 5t-94 -5t-100 -5q-13 0 -27 6.5t-14 17.5q0 25 47 37q36 9 48.5 13.5t22 16.5t9.5 34q0 29 -45 151q-3 9 -10.5 12t-28.5 3h-299q-22 0 -33 -25q-6 -16 -15 -37.5t-12.5 -30.5t-7.5 -21t-5 -20 t-1 -18q0 -36 19 -51.5t57 -26.5q47 -16 47 -37q0 -11 -14 -17.5t-27 -6.5q-41 0 -86 5t-80 5t-75 -5t-81 -5q-13 0 -27 6.5t-14 17.5q0 25 48 35q29 6 38.5 8.5t32 12t34.5 22t28.5 36t31.5 56.5l238 549q13 30 17.5 54.5t5 35.5t2.5 13q37 35 79 84q21 24 33 24 q8 0 15 -18l276 -711q13 -34 22.5 -54.5t26.5 -46.5t40 -41.5t52 -21.5zM526 690q-61 -150 -135 -311q-6 -13 0.5 -17t26.5 -4h237q16 0 18.5 3t-1.5 18q-6 24 -29.5 86t-51.5 133t-36 92q-6 16 -10.5 20.5t-8.5 0t-10 -20.5z" />
<glyph unicode="b" horiz-adv-x="1042" d="M309 918q25 0 97.5 5t117.5 5q163 0 256.5 -51.5t93.5 -161.5q0 -84 -33 -130.5t-96 -70.5q-5 -2 -5.5 -7t5.5 -7q33 -10 54 -18.5t51 -27t47 -40.5t30 -59.5t13 -84.5q0 -94 -58.5 -157.5t-150 -91t-209.5 -27.5q-10 0 -97 6t-122 6q-32 -1 -94.5 -6.5t-106.5 -5.5 q-13 0 -27 6.5t-14 17.5q0 22 50 33q64 12 99.5 36t35.5 75v559q0 64 -27.5 98.5t-91.5 44.5q-19 3 -34 14t-15 25q0 11 14 18t27 7q41 0 98 -5t92 -5zM399 575q0 -51 68 -51q38 0 67 2.5t64 12.5t58 28t39 51t16 78q0 34 -7 60.5t-26 52t-58 39.5t-96 14q-125 0 -125 -63 v-224zM477 463q-34 0 -56 -16t-22 -46v-225q0 -52 42.5 -86.5t101.5 -34.5q84 0 148.5 61.5t64.5 147.5q0 115 -70 157t-209 42z" />
<glyph unicode="c" horiz-adv-x="1146" d="M692 938q159 0 287 -43q17 -5 26 -69t11 -130q0 -11 -8 -26t-19 -15q-4 0 -7 1t-5.5 4.5t-4.5 6t-4.5 8.5t-4 9.5t-4.5 12t-5 12.5q-37 97 -99.5 131t-188.5 34q-151 0 -255 -114.5t-104 -270.5q0 -116 48 -217.5t138.5 -165t202.5 -63.5q80 0 161.5 43.5t117.5 116.5 q22 45 55 45q14 0 14 -25q0 -13 -29.5 -87.5t-37.5 -88.5q-11 -22 -115 -49t-192 -27q-143 0 -267.5 60.5t-202 173t-77.5 250.5q0 140 82 252.5t211 171.5t276 59z" />
<glyph unicode="d" horiz-adv-x="1234" d="M309 918q30 -1 109 4.5t92 5.5q147 0 253.5 -21.5t187.5 -71t121 -137.5t40 -215q0 -111 -49.5 -204t-132.5 -155t-192.5 -96t-231.5 -34q-9 0 -86 6t-117 6q-32 -1 -94.5 -6.5t-106.5 -5.5q-13 0 -27 6.5t-14 17.5q0 22 50 33q64 12 99.5 36t35.5 75v559 q0 64 -27.5 98.5t-91.5 44.5q-19 3 -34 14t-15 25q0 11 14 18t27 7q41 0 98 -5t92 -5zM555 57q167 0 270 119.5t103 284.5q0 198 -108 300.5t-304 102.5q-47 0 -82 -20t-35 -60v-598q0 -49 49 -89t107 -40z" />
<glyph unicode="e" horiz-adv-x="983" d="M309 918q101 0 269 3t204 3q25 0 25 -13q2 -60 11 -120.5t9 -67.5t-5 -17t-11 -10q-9 0 -20 10t-19 27q-25 58 -49 82.5t-74 24.5h-198q-16 0 -34 -9.5t-18 -27.5v-254q0 -12 7.5 -30.5t15.5 -18.5h162q30 0 45.5 17t29.5 58q13 35 31 35q11 0 19 -10t6 -20 q-6 -99 -6 -113q0 -21 3.5 -60t4.5 -53q2 -10 -5 -22.5t-16 -12.5q-8 0 -15 7t-10.5 14.5t-7 17.5t-4.5 11q-13 46 -65 55q-64 8 -102 8q-93 0 -93 -41v-227q0 -56 11 -70t57 -14h205q59 0 103 34.5t67 84.5q0 1 2.5 6l4 8t4.5 7.5t7.5 6.5t9.5 2q21 0 21 -32 q-8 -77 -35 -177q-1 -9 -12.5 -16.5t-22.5 -7.5q-109 0 -282 5t-236 5q-32 -1 -94.5 -6.5t-106.5 -5.5q-13 0 -27 6.5t-14 17.5q0 24 50 33q64 12 99.5 36t35.5 75v559q0 64 -27.5 98.5t-91.5 44.5q-20 3 -34.5 14t-14.5 25q0 11 14 18t27 7q41 0 98 -5t92 -5z" />
<glyph unicode="f" horiz-adv-x="903" d="M399 162q0 -41 32 -68.5t89 -38.5q47 -10 47 -37q0 -11 -14 -17.5t-27 -6.5q-41 0 -101 5t-95 5t-111 -5t-117 -5q-13 0 -27 6.5t-14 17.5q0 24 50 33q64 12 99.5 36t35.5 75v559q0 64 -27.5 98.5t-91.5 44.5q-20 3 -34.5 14t-14.5 25q0 11 14 18t27 7q41 0 98 -5t92 -5 q101 0 269 3t204 3q25 0 25 -13q4 -104 4 -188q0 -7 -5 -17t-11 -10q-10 0 -22 9.5t-17 27.5q-19 66 -37.5 86.5t-69.5 20.5h-198q-16 0 -34 -9.5t-18 -27.5v-254q0 -12 7.5 -30.5t15.5 -18.5h162q30 0 45.5 17t29.5 58q13 35 31 35q11 0 19 -10t6 -20q-6 -99 -6 -113 q0 -21 3.5 -60t4.5 -53q2 -10 -5 -22.5t-16 -12.5q-8 0 -15 7t-10.5 14.5t-7 17.5t-4.5 11q-13 46 -65 55q-64 8 -102 8q-93 0 -93 -41v-229z" />
<glyph unicode="g" horiz-adv-x="1216" d="M860 164v90q0 37 -32.5 58.5t-86.5 25.5q-23 2 -40 13t-17 26q0 13 14.5 19.5t30.5 6.5q33 0 93 -3t100 -3q28 0 72 4.5t69 4.5q19 0 35 -8t16 -21q0 -4 -1.5 -8t-3 -7t-5.5 -6l-6 -4.5t-7.5 -4t-7 -3.5t-7.5 -3.5t-7 -2.5q-55 -22 -55 -72v-119q0 -23 11 -38.5t21.5 -24 t10.5 -14.5q0 -7 -12 -18.5t-27 -18.5q-130 -60 -348 -60q-143 -1 -268 59t-202 172.5t-77 250.5q0 141 77 253t201.5 171t270.5 59q158 0 286 -43q9 -3 26 -77.5t20 -121.5q1 -11 -7.5 -26t-19.5 -15q-5 0 -8.5 2.5t-7 8t-6 11t-6.5 15.5t-7 17q-39 84 -109 124.5 t-188 40.5q-149 0 -243.5 -113t-94.5 -272q0 -116 48 -219.5t138.5 -169t202.5 -65.5q77 0 120.5 33t43.5 96z" />
<glyph unicode="h" horiz-adv-x="1310" d="M911 721q0 62 -27.5 97.5t-90.5 45.5q-20 3 -35 14t-15 25q0 11 14 18t27 7q41 0 105 -5t100 -5q35 0 98.5 5t104.5 5q13 0 27 -7t14 -18q0 -14 -14.5 -25t-34.5 -14q-119 -19 -119 -143v-559q0 -51 35.5 -75t99.5 -36q49 -9 49 -33q0 -11 -14 -17.5t-27 -6.5 q-39 0 -107 6t-112 6t-113 -6t-108 -6q-13 0 -27 6.5t-14 17.5q0 24 49 33q64 12 99.5 36t35.5 75v270q0 7 -1.5 8.5t-6.5 1.5q-218 4 -260 4q-53 0 -237 -4q-7 0 -7 -14v-266q0 -51 36 -74.5t100 -36.5q49 -9 49 -33q0 -11 -14 -17.5t-27 -6.5q-39 0 -107 6t-112 6 t-113.5 -6t-108.5 -6q-13 0 -27 6.5t-14 17.5q0 24 50 33q64 12 99.5 36t35.5 75v559q0 63 -28 98t-91 45q-20 3 -34.5 14t-14.5 25q0 11 14 18t27 7q41 0 105 -5t100 -5q35 0 98 5t104 5q13 0 27 -7t14 -18q0 -14 -14.5 -25t-34.5 -14q-63 -10 -91 -45t-28 -98v-191 q0 -12 21 -12q208 -4 229 -4q72 0 252 4q10 0 10 17v186z" />
<glyph unicode="i" horiz-adv-x="645" d="M324 6q-44 0 -113.5 -6t-108.5 -6q-13 0 -27 6.5t-14 17.5q0 24 50 33q64 12 99.5 36t35.5 75v559q0 64 -27.5 98.5t-91.5 44.5q-20 3 -34.5 14t-14.5 25q0 11 14 18t27 7q41 0 105 -5t100 -5q35 0 98 5t104 5q13 0 27 -7t14 -18q0 -14 -14.5 -25t-34.5 -14 q-64 -10 -91.5 -44.5t-27.5 -98.5v-559q0 -51 36 -74.5t100 -36.5q49 -9 49 -33q0 -11 -14 -17.5t-27 -6.5q-39 0 -107 6t-112 6z" />
<glyph unicode="j" horiz-adv-x="645" d="M246 723q0 63 -28 97t-91 44q-20 3 -34.5 14t-14.5 25q0 11 14 18t27 7q41 0 105 -5t100 -5q35 0 98 5t104 5q13 0 27 -7t14 -18q0 -14 -14.5 -25t-34.5 -14q-63 -10 -91 -44t-28 -97v-444q0 -209 -10 -297q-20 -152 -110 -244q-45 -47 -107.5 -71.5t-112.5 -24.5 q-60 0 -115 26.5t-55 57.5q0 35 30.5 69.5t55.5 34.5q24 0 47 -15.5t38 -34.5t34.5 -34.5t38.5 -15.5q43 0 74 43.5t35 120.5q4 72 4 198v631z" />
<glyph unicode="k" horiz-adv-x="1163" d="M1104 51q49 -6 49 -33q0 -11 -14 -17.5t-27 -6.5q-41 0 -136.5 4.5t-148.5 5.5q-17 0 -37.5 -2t-64.5 -2q-13 0 -27 7t-14 18q0 6 1.5 10t6.5 7.5t8.5 5.5t12.5 6t14 6q19 9 21 26.5t-11 30.5l-280 316q-26 28 -43 28q-15 0 -15 -39v-258q0 -57 18 -80t72 -33 q50 -9 50 -33q0 -11 -14 -17.5t-27 -6.5q-42 0 -92 6t-82 6q-44 0 -113.5 -6t-108.5 -6q-13 0 -27 6.5t-14 17.5q0 24 50 33q64 12 99.5 36t35.5 75v559q0 63 -28 98t-91 45q-20 3 -34.5 14t-14.5 25q0 11 14 18t27 7q41 0 105 -5t100 -5q35 0 88 4t94 4q13 0 27 -7t14 -18 q0 -14 -14.5 -25t-34.5 -14q-45 -7 -72 -45.5t-27 -97.5v-184q0 -29 15 -29q17 0 114 78q147 117 234 215q7 8 7.5 15t-2 12.5t-11 11.5t-16 10.5t-19.5 10.5l-10 5t-9 4t-7.5 3.5t-6.5 4.5t-4 5t-3 6.5t-1 7.5q0 11 14 18t27 7q41 0 96.5 -1t91.5 -1q41 0 95 7t61 7 q41 -3 41 -23q0 -14 -14.5 -26t-34.5 -15q-41 -7 -73 -18.5t-50 -22.5t-62 -41q-65 -44 -154.5 -113t-142.5 -122q-14 -14 7 -37l270 -296q134 -149 252 -167z" />
<glyph unicode="l" horiz-adv-x="962" d="M399 160q0 -54 14.5 -72t59.5 -18h201q58 0 102 38.5t68 90.5q15 30 37 30q20 0 20 -32q-3 -25 -11 -56.5t-19.5 -70.5t-14.5 -50q-1 -9 -12.5 -16.5t-22.5 -7.5q-109 0 -282 5t-236 5q-32 -1 -94.5 -6.5t-106.5 -5.5q-13 0 -27 6.5t-14 17.5q0 24 50 33q64 12 99.5 36 t35.5 75v559q0 64 -27.5 98.5t-91.5 44.5q-20 3 -34.5 14t-14.5 25q0 11 14 18t27 7q41 0 105 -5t100 -5q35 0 98 5t104 5q13 0 27 -7t14 -18q0 -14 -14.5 -25t-34.5 -14q-64 -10 -91.5 -44.5t-27.5 -98.5v-561z" />
<glyph unicode="m" horiz-adv-x="1447" d="M1184 795q0 -333 16 -645q2 -45 30 -66.5t87 -32.5q49 -9 49 -33q0 -11 -14 -17.5t-27 -6.5q-41 0 -95.5 6t-90.5 6q-40 0 -102.5 -6t-102.5 -6q-13 0 -27 6.5t-14 17.5q0 24 49 33q55 11 75.5 30.5t20.5 61.5q0 354 -6 519q-2 24 -10.5 22.5t-17.5 -22.5l-291 -664 q-14 -33 -35 -33q-25 0 -41 37q-55 116 -147 339t-140 331q-4 9 -7.5 12.5t-6.5 0.5t-4 -13q-21 -249 -35 -510q0 -19 1.5 -32t8 -31.5t23 -30.5t41.5 -17q49 -9 49 -33q0 -11 -14 -17.5t-27 -6.5q-43 0 -78 6t-59 6q-27 0 -67 -6t-83 -6q-13 0 -27 6.5t-14 17.5q0 24 49 33 q90 17 107 111q24 139 52 362t28 269q0 31 -27.5 45.5t-95.5 25.5q-20 3 -34.5 14t-14.5 25q0 11 14 18t27 7q41 0 73 -3t68 -3q35 0 56 2t32 2q23 0 25 -4l303 -705q16 -39 32 -4q122 278 246 584q4 11 18 48t21 53.5t12 16.5l78 3q39 0 105 5t86 5q13 0 27 -7t14 -18 q0 -14 -14.5 -25t-34.5 -14q-81 -13 -98 -23q-21 -13 -21 -46z" />
<glyph unicode="n" horiz-adv-x="1228" d="M1024 719v-676q0 -72 -33 -72q-42 0 -88 56l-506 623q-13 16 -29 28t-22 12q-14 0 -14 -55q0 -345 10 -473q4 -54 26.5 -77t77.5 -34q50 -9 50 -33q0 -11 -14 -17.5t-27 -6.5q-42 0 -88.5 6t-77.5 6q-34 0 -85.5 -6t-92.5 -6q-13 0 -27 6.5t-14 17.5q0 24 49 33 q59 11 86.5 34t32.5 77q3 42 8.5 228.5t5.5 240.5q0 41 -2.5 69t-11.5 57.5t-25 48.5t-44.5 34.5t-68.5 23.5q-20 4 -34.5 14.5t-14.5 24.5q0 11 14 18t27 7q38 0 126 -4t144 -4q17 0 44 -31l489 -588q20 -27 27 -27q10 0 10 27v418q0 63 -28 99t-91 46q-20 3 -34.5 14 t-14.5 25q0 11 14 18t27 7q41 0 90.5 -5t85.5 -5q35 0 75 5t81 5q13 0 27 -7t14 -18q0 -14 -15 -25t-35 -14q-61 -10 -82.5 -44t-21.5 -101z" />
<glyph unicode="o" horiz-adv-x="1261" d="M606 887q-82 0 -142.5 -34.5t-93.5 -94t-48 -127.5t-15 -146q0 -123 37.5 -221t116.5 -158.5t190 -60.5q68 0 122 26t87 67.5t55 95.5t30.5 106t8.5 104q0 64 -12.5 125.5t-39.5 119.5t-67 101.5t-99 70t-130 26.5zM123 455q0 124 68.5 239t183.5 186.5t243 71.5 q135 0 254.5 -63t193 -176.5t73.5 -249.5q0 -96 -35 -184t-99 -157.5t-164.5 -111t-222.5 -41.5q-133 0 -247.5 66t-181 178t-66.5 242z" />
<glyph unicode="p" horiz-adv-x="962" d="M399 162q0 -51 36 -74.5t100 -36.5q49 -9 49 -33q0 -11 -14 -17.5t-27 -6.5q-39 0 -107 6t-112 6t-113.5 -6t-108.5 -6q-13 0 -27 6.5t-14 17.5q0 24 50 33q64 12 99.5 36t35.5 75v559q0 64 -27.5 98.5t-91.5 44.5q-20 3 -34.5 14t-14.5 25q0 11 14 18t27 7q41 0 98 -5 t92 -5q25 0 97.5 5t117.5 5q94 0 169.5 -24t126 -82t50.5 -144q0 -138 -82.5 -218.5t-220.5 -80.5q-24 0 -49.5 11.5t-25.5 25.5q0 24 65 24q69 0 107 57.5t38 137.5q0 98 -61 165.5t-152 67.5q-90 0 -90 -59v-647z" />
<glyph unicode="q" horiz-adv-x="1282" d="M643 891q-102 0 -180.5 -58t-117 -147t-38.5 -192q0 -127 41 -232t126.5 -172t201.5 -67q79 0 138.5 37.5t93.5 101t50.5 136.5t16.5 153q0 69 -11.5 131.5t-37 119.5t-63.5 98.5t-94.5 66t-125.5 24.5zM571 -72q-21 14 -53.5 28t-50.5 17q-32 8 -75 33t-90 68t-87 94.5 t-66 119.5t-26 136q0 142 67.5 263t188.5 193t268 72q126 0 243.5 -57.5t193 -161.5t75.5 -227q0 -98 -24.5 -180.5t-60 -136t-85 -97.5t-89 -66.5t-83.5 -39.5q-10 -4 -17 -7t-14 -7.5t-6.5 -8.5t4.5 -10q54 -51 124.5 -103t155.5 -102t178 -81.5t171 -31.5q42 0 81 4.5 t62.5 9.5t27.5 5h6t6.5 0.5t6 0t5 -1t3 -2.5t1.5 -5q0 -19 -13 -37t-36 -27q-50 -19 -99 -28t-135 -9q-72 0 -142 16t-124 38.5t-122 64.5t-114 76t-125 92.5t-131 95.5z" />
<glyph unicode="r" horiz-adv-x="1105" d="M399 811v-283q0 -34 11.5 -42.5t40.5 -8.5q128 0 202.5 46.5t73.5 152.5q0 61 -39 106t-96.5 65.5t-122.5 20.5q-41 0 -55.5 -11.5t-14.5 -45.5zM399 162q0 -53 23 -74.5t80 -32.5q49 -9 49 -32q0 -11 -14 -18t-27 -7q-39 0 -94 4.5t-92 3.5q-42 0 -111.5 -6t-110.5 -6 q-13 0 -27 6.5t-14 17.5q0 24 50 33q64 12 99.5 36t35.5 75v559q0 64 -27.5 98.5t-91.5 44.5q-20 3 -34.5 14t-14.5 25q0 11 14 18t27 7q41 0 98 -5t92 -5q25 0 108 5t128 5q71 0 130 -11.5t109 -36.5t78.5 -72t28.5 -112q1 -83 -50 -141t-118 -80q-19 -6 -14 -20 q29 -76 83 -166.5t102 -147.5q30 -35 91 -65.5t92 -34.5q37 -5 37 -29q0 -18 -49.5 -29.5t-101.5 -11.5q-120 0 -205 103q-31 38 -88 127.5t-91 154.5q-12 24 -53 42t-86 18q-12 0 -26.5 -10.5t-14.5 -22.5v-221z" />
<glyph unicode="s" horiz-adv-x="880" d="M410 25q91 0 137.5 45t46.5 114q0 94 -94 154l-160 102q-83 53 -126.5 114.5t-43.5 141.5q0 75 49 132t121 83.5t154 26.5q44 0 83.5 -4.5t72.5 -11t38 -7.5q11 -1 18 -9.5t9 -18.5q9 -45 14 -166q0 -11 -8 -26t-19 -15q-12 0 -23.5 13t-14.5 28q-25 86 -82 126t-107 40 q-71 0 -116.5 -41t-45.5 -101q0 -33 7.5 -56.5t27.5 -44t37 -32.5t53 -34l174 -107q146 -90 146 -235q0 -43 -25 -88t-69.5 -83.5t-115 -63t-153.5 -24.5q-50 0 -89.5 6.5t-76.5 17.5t-49 13q-10 2 -14.5 4.5t-5.5 7t-2 5.5q-11 23 -22 87.5t-13 106.5v7.5v10.5t1 10t3 9.5 t6 6.5t10 3q11 0 18 -7.5t14 -25.5l7 -18q48 -87 81 -122q66 -74 147 -74z" />
<glyph unicode="t" horiz-adv-x="1126" d="M475 162v604q0 48 -10.5 56.5t-63.5 8.5h-147q-32 0 -68 -22t-51 -49q-7 -15 -21 -29t-28 -14t-14 16q0 8 3.5 25t11 63t13.5 113q3 31 27 31q2 0 19.5 -10.5t58 -21.5t96.5 -11h498q51 0 92 4t64 10t38.5 12.5t23.5 10.5t11 4q7 0 13 -7.5t6 -15.5q0 -60 4 -118t4 -72 q0 -9 -7.5 -24.5t-17.5 -14.5q-18 2 -33 47q-7 31 -39 52t-94 21q-163 0 -213 -4q-22 -2 -22 -61v-604q0 -51 35.5 -75t99.5 -36q49 -9 49 -33q0 -11 -14 -17.5t-27 -6.5q-39 0 -107 6t-112 6t-113 -6t-108 -6q-13 0 -27 6.5t-14 17.5q0 24 49 33q64 12 99.5 36t35.5 75z " />
<glyph unicode="u" horiz-adv-x="1228" d="M1016 725v-252q0 -78 -13 -148.5t-44 -135.5t-76.5 -112.5t-115 -75.5t-155.5 -28q-387 0 -387 420v328q0 64 -26 98.5t-88 44.5q-20 3 -35 14t-15 25q0 11 14 18t27 7q41 0 104 -5t99 -5q35 0 90.5 5t96.5 5q13 0 26.5 -7t13.5 -18q0 -14 -14.5 -25t-34.5 -14 q-61 -10 -82.5 -43.5t-21.5 -99.5v-293q0 -186 67.5 -274t208.5 -88q120 0 195.5 82.5t75.5 259.5v313q0 69 -19 101t-80 42q-20 3 -34.5 14t-14.5 25q0 11 14 18t27 7q41 0 76.5 -5t71.5 -5q35 0 76.5 5t82.5 5q13 0 27 -7t14 -18q0 -14 -14.5 -25t-34.5 -14 q-60 -10 -81 -44.5t-21 -94.5z" />
<glyph unicode="v" horiz-adv-x="1126" d="M373 817q0 -59 28 -127l166 -411q15 -38 21.5 -37.5t21.5 37.5l178 428q25 63 25 108q0 29 -47 49q-3 1 -10 4.5t-10.5 5t-9 4t-8 5t-5.5 6t-4.5 7t-1.5 7.5q0 11 14 18t27 7q41 0 76 -5t71 -5q35 0 77 5t83 5q13 0 27 -7t14 -18q0 -27 -49 -39q-132 -35 -187 -159 l-266 -601q-3 -6 -16 -44t-25.5 -64.5t-21.5 -26.5q-5 0 -15.5 26.5t-26.5 73t-26 70.5l-231 576q-14 33 -28 55.5t-25 36t-34 25t-36 16t-49 16.5q-50 17 -50 39q0 11 14 18t27 7q41 0 94 -5t89 -5q35 0 90 5t96 5q13 0 27 -7t14 -18q0 -14 -15.5 -25t-33.5 -14 q-11 -2 -30 -17t-19 -30z" />
<glyph unicode="w" horiz-adv-x="1617" d="M387 758l266 -553q5 -9 8 -12t6.5 0t8.5 12l106 206l-164 347q-44 91 -88 106q-49 16 -49 39q0 11 14 18t27 7q9 0 71.5 -5t78.5 -5q18 0 67.5 5t57.5 5q13 0 28 -7t15 -18q0 -14 -16.5 -25t-35.5 -14q-12 -2 -18 -13t-3 -35t19 -58l84 -178l88 178q15 29 6.5 61.5 t-34.5 44.5q-3 1 -10 4.5t-10.5 5t-9 4t-8 5t-5.5 6t-4.5 7t-1.5 7.5q0 11 14 18t27 7q16 0 54 -5t54 -5t79 5t79 5q13 0 27 -7t14 -18q0 -27 -49 -39q-97 -26 -138 -106l-134 -263l132 -290q10 -22 19 0l297 553q47 86 -47 106q-49 11 -49 39q0 11 13.5 18t26.5 7 q16 0 63 -5t62 -5q17 0 80 5t72 5q13 0 27 -7t14 -18q0 -27 -49 -39q-81 -21 -125 -106l-400 -758q-14 -31 -43 -31q-16 0 -30 31l-155 327l-171 -327q-10 -19 -18 -25t-23 -6q-16 0 -51 74l-344 715q-18 38 -47 62t-92 44q-50 17 -50 39q0 11 14 18t27 7q41 0 94 -5t89 -5 q28 0 84 5t71 5q13 0 27 -7t14 -18q0 -14 -15.5 -25t-33.5 -14q-19 -3 -26.5 -12.5t-4.5 -25t7.5 -27t14.5 -31.5q3 -7 5 -10z" />
<glyph unicode="x" horiz-adv-x="1146" d="M246 758q-38 50 -70.5 72t-75.5 34q-49 16 -49 39q0 11 14 18t27 7q41 0 93.5 -5t88.5 -5q35 0 100.5 5t106.5 5q13 0 27 -7t14 -18q0 -14 -15 -25t-34 -14q-29 -5 -42 -13.5t-12 -23.5t9.5 -29.5t26.5 -39.5l135 -183q6 -10 9 -11t13 7l140 187q39 52 37.5 73t-44.5 33 q-49 16 -49 39q0 11 14 18t27 7q41 0 86.5 -5t81.5 -5q35 0 77 5t83 5q13 0 27 -7t14 -18q0 -27 -49 -39q-58 -15 -84.5 -24t-59 -29.5t-59.5 -52.5l-205 -244q-7 -10 8 -33l246 -329q34 -45 68.5 -65t97.5 -32q19 -3 33 -13t14 -24q0 -11 -14 -17.5t-27 -6.5 q-41 0 -107.5 5t-101.5 5t-108.5 -5t-114.5 -5q-13 0 -27 6.5t-14 17.5q0 23 47 35q94 23 58 74l-160 223q-17 22 -25 12l-172 -233q-38 -52 37 -74q47 -16 47 -37q0 -11 -14 -17.5t-27 -6.5q-41 0 -86 5t-80 5t-74.5 -5t-80.5 -5q-13 0 -27 6.5t-14 17.5q0 23 47 35 q60 13 111.5 41t105.5 94l182 222q6 7 6.5 18.5t-4.5 17.5z" />
<glyph unicode="y" horiz-adv-x="1044" d="M432 162v133q0 38 -7.5 71t-16.5 44l-179 303q-45 77 -74.5 102t-97.5 47q-49 16 -49 39q0 11 14 18t27 7q41 0 93.5 -5.5t88.5 -5.5q35 0 90.5 5.5t96.5 5.5q13 0 27 -7t14 -18q0 -14 -15.5 -25t-33.5 -14t-27.5 -5.5t-22.5 -8t-18 -12.5t-4.5 -19.5t10.5 -28.5 l189 -317q5 -9 8 -12t6 0t8 12l166 317q24 46 -41 76q-3 1 -10 4.5t-10.5 5t-9 4t-8 5t-5.5 6t-4.5 7t-1.5 7.5q0 11 14 18t27 7q41 0 76 -5t71 -5q35 0 77 5t83 5q13 0 27 -7t14 -18q0 -27 -49 -39q-50 -13 -64.5 -17.5t-42.5 -17t-43 -28.5t-32 -43l-142 -254 q-24 -43 -34.5 -63t-20.5 -48t-10 -49v-182q0 -51 35.5 -75t99.5 -36q49 -9 49 -33q0 -11 -14 -17.5t-27 -6.5q-39 0 -107 6t-112 6t-113 -6t-108 -6q-13 0 -27 6.5t-14 17.5q0 24 49 33q64 12 99.5 36t35.5 75z" />
<glyph unicode="z" horiz-adv-x="1044" d="M469 70h276q58 0 102 38.5t68 90.5l3 7q4 8 7 13t7.5 12t9.5 11t10 4q21 0 21 -49q-3 -25 -11 -56.5t-19.5 -70.5t-14.5 -50q-1 -9 -12.5 -16.5t-22.5 -7.5q-96 -1 -309 2.5t-260 3.5q-60 0 -116 -3t-81 -3q-16 0 -29.5 8.5t-13.5 20.5q0 31 70 127l495 684l3 7.5 t-4.5 4.5t-12.5 2.5l-21 1.5q-115 4 -299 4q-37 0 -83.5 -28t-63.5 -64q-8 -19 -28.5 -47.5t-33.5 -28.5q-16 0 -20 7.5t-4 25.5q0 19 25 95.5t40 111.5q12 24 33 24q2 0 15.5 -7.5t41 -15t62.5 -7.5l244 -2q49 0 336 6q22 0 22 -21q0 -6 -1.5 -11t-6 -12t-9 -13 t-14.5 -18.5t-18 -23.5l-512 -706q-29 -37 -2 -41q102 -10 131 -10z" />
<glyph unicode="{" horiz-adv-x="763" d="M184 571q64 -17 140.5 -98t76.5 -172q0 -57 -13 -169.5t-13 -184.5q0 -54 22.5 -95t61 -65t84 -35.5t96.5 -11.5q53 0 53 -25q0 -13 -11.5 -21.5t-25.5 -8.5q-76 0 -147 16t-132 47.5t-97.5 85.5t-36.5 123q0 74 13 188.5t13 176.5q0 85 -52.5 144.5t-141.5 92.5 q-23 9 -23 19q0 5 3 7t10 3t10 2q89 33 141.5 92.5t52.5 144.5q0 61 -13 176t-13 189q0 69 36.5 123t97.5 85.5t132 47.5t147 16q14 0 25.5 -8.5t11.5 -21.5q0 -25 -53 -25q-51 0 -96.5 -11.5t-84 -35.5t-61 -65t-22.5 -95q0 -72 13 -184.5t13 -169.5q0 -63 -39 -121 t-86 -92.5t-96 -54.5q-9 -5 4 -9z" />
<glyph unicode="|" horiz-adv-x="532" d="M205 1384q0 28 37.5 46t56.5 18q11 0 20 -8t9 -19v-1964q0 -15 -12.5 -25.5t-31 -15t-32 -6.5t-23.5 -2q-9 0 -16.5 9t-7.5 20v1947z" />
<glyph unicode="}" horiz-adv-x="763" d="M580 571q10 5 4 9q-35 14 -71.5 38t-71.5 57.5t-57 79t-22 93.5q0 57 13.5 169.5t13.5 184.5q0 54 -22.5 95t-61 65t-84 35.5t-96.5 11.5q-53 0 -53 25q0 13 11.5 21.5t25.5 8.5q76 0 146.5 -16t131.5 -47t98 -85.5t37 -123.5q0 -74 -13 -189t-13 -176q0 -85 52 -144.5 t142 -92.5q2 -1 6.5 -2t8 -1t6 -2.5t2.5 -6.5q0 -10 -23 -19q-90 -33 -142 -92.5t-52 -144.5q0 -62 13 -176.5t13 -188.5q0 -69 -37 -123.5t-98 -85.5t-131.5 -47t-146.5 -16q-14 0 -25.5 8.5t-11.5 21.5q0 25 53 25q51 0 96.5 11.5t84 35.5t61 65t22.5 95q0 72 -13.5 184.5 t-13.5 169.5q0 91 77 172t141 98z" />
<glyph unicode="~" horiz-adv-x="1024" d="M102 571q38 70 115.5 139.5t140.5 69.5q38 0 93 -24.5t118.5 -49t120.5 -24.5q42 0 110.5 31.5t94.5 64.5q8 11 21 -11q10 -17 6 -26q-31 -58 -110.5 -133.5t-145.5 -75.5q-47 0 -166 49.5t-176 49.5q-34 0 -99.5 -33.5t-91.5 -62.5q-5 -5 -13.5 2t-14.5 17.5t-3 16.5z " />
<glyph unicode="&#xa1;" horiz-adv-x="577" d="M311 766q-51 0 -87 36t-36 87t36 87t87 36t87 -36t36 -87t-36 -87t-87 -36zM311 -369q-51 1 -77.5 44.5t-26.5 107.5q0 45 5 124.5t10.5 147t16 186.5t15.5 179q3 47 19 83t38 36q14 0 28 -35.5t17 -71.5q4 -39 18.5 -169.5t20 -187t11.5 -145t6 -151.5q0 -62 -26 -105.5 t-75 -42.5z" />
<glyph unicode="&#xa2;" horiz-adv-x="843" d="M397 -25q-133 24 -229 142t-96 268q0 176 117.5 309t297.5 150l11 102q1 17 14 26t31 9q12 0 20 -11.5t6 -23.5l-10 -100q146 -7 219 -98q32 -39 -41 -86q-17 -10 -39 -6t-30 18q-48 84 -117 102l-70 -682q10 -2 31 -2q51 0 89.5 5t80.5 25.5t66 57.5q9 11 21 10 t20 -11.5t2 -20.5q-57 -95 -135 -139.5t-189 -47.5l-10 -104q-1 -13 -13 -22t-26 -9t-24 9t-9 22zM410 109l71 677h-4q-78 0 -141 -51t-95 -126t-32 -154q0 -130 54.5 -220.5t146.5 -125.5z" />
<glyph unicode="&#xa3;" horiz-adv-x="1003" d="M705 1288q213 3 213 -168q0 -38 -32 -76t-55 -38q-11 0 -19.5 9t-4.5 19q2 6 2 45q-2 52 -46 101t-95 49q-101 0 -161 -141t-61 -388l273 19q11 0 20.5 -9.5t5.5 -19.5q-25 -49 -63 -49l-240 -16q-14 -125 -68.5 -252.5t-97.5 -163.5q-5 -3 -3 -11t12 -8q82 0 151 -19 t109 -41.5t99.5 -42.5t123.5 -21q48 -2 84.5 31.5t36.5 80.5q0 20 -13 52.5t-14 52.5q0 9 0.5 15t2 13t6 10.5t10.5 2.5q44 -4 70 -35t26 -74q0 -118 -94 -203.5t-219 -85.5q-94 0 -161 29t-167 98q-32 23 -73.5 41.5t-57.5 18.5q-10 0 -40 -32t-50 -69q-21 -41 -74 -41 q-26 0 -43.5 18.5t-17.5 45.5q0 34 61.5 85.5t134.5 65.5q11 2 23 25q25 46 42.5 158.5t22.5 242.5l-172 -12q-10 0 -19.5 8t-9.5 17q0 15 15.5 33.5t34.5 19.5l153 10v10q0 83 17 165.5t52.5 159t86 135t124 94t159.5 36.5z" />
<glyph unicode="&#xa4;" horiz-adv-x="989" d="M84 889q-20 19 16 55q38 38 58 17l92 -93q112 84 244 84q136 0 241 -84l94 95q15 9 30 2.5t30 -21.5q33 -34 10 -57l-92 -92q80 -107 80 -242t-80 -242l96 -96q19 -19 -16 -55q-37 -38 -58 -17l-94 95q-105 -84 -241 -84q-137 0 -242 84l-96 -95q-20 -21 -56 15t-16 57 l96 96q-80 107 -80 242q0 136 80 240zM494 850q-121 0 -206 -87.5t-85 -209.5t85 -209.5t206 -87.5t205.5 87.5t84.5 209.5t-84.5 209.5t-205.5 87.5z" />
<glyph unicode="&#xa5;" horiz-adv-x="1267" d="M260 1069q-81 120 -122 160q-34 33 -60 41q-68 21 -68 45q0 22 60 22q26 0 107 -3t132 -3q34 0 89.5 2t74.5 2q59 0 59 -22q0 -13 -15 -21t-52 -20q-15 -4 -27 -12.5t-22.5 -22.5t-8.5 -37.5t19 -52.5l190 -338q17 -30 26 -45.5t20 -24.5t16 -10t17 11.5t19.5 24.5 t26.5 44q115 168 170 285q25 54 10.5 109t-57.5 67q-67 18 -67 41q0 22 59 22q31 0 78 -1t76 -1q42 0 109 3t87 3q60 0 60 -22q0 -27 -68 -41q-81 -16 -205 -197q-49 -75 -106.5 -167t-90.5 -146l-32 -55q-31 -49 -37 -64h250q11 0 21 -9.5t6 -19.5q-22 -43 -64 -43h-223 v-49v-49h258q11 0 20.5 -9.5t5.5 -19.5q-22 -43 -63 -43h-221v-182q0 -69 41.5 -113.5t118.5 -58.5q67 -11 67 -37q0 -22 -59 -22q-58 0 -126.5 5t-113.5 5q-50 0 -127.5 -5t-134.5 -5q-59 0 -59 22q0 26 67 37q160 28 160 172l2 182h-258q-10 0 -19.5 8t-9.5 17q0 15 15 31 t34 16h238v49q0 21 -4 49h-254q-10 0 -19.5 8t-9.5 17q0 15 15 31t34 16h217q-17 29 -18 31z" />
<glyph unicode="&#xa6;" horiz-adv-x="532" d="M229 565q-9 0 -16.5 15.5t-7.5 31.5v768q0 28 37.5 46t56.5 18q11 0 20 -8t9 -19v-809q0 -13 -40.5 -28t-58.5 -15zM299 367q10 0 19.5 -15t9.5 -30v-867q0 -15 -12.5 -25.5t-31 -15t-32 -6.5t-23.5 -2q-9 0 -16.5 9t-7.5 20v884q0 13 40.5 30.5t53.5 17.5z" />
<glyph unicode="&#xa7;" horiz-adv-x="819" d="M444 625q-72 73 -102.5 105t-82 98.5t-66.5 109.5q-3 7 -11 6.5t-10 -6.5q-22 -86 -22 -150q0 -102 43.5 -186t140.5 -184q140 -143 189 -208q48 -62 63 -106q3 -7 10.5 -6.5t9.5 6.5q23 90 23 150q0 102 -44 186.5t-141 184.5zM469 1311q38 0 82 -12t61 -27 q25 -21 25 -37q0 -12 -16 -41.5t-37 -46.5q-12 -9 -27.5 -7t-24.5 11q-78 70 -126 70q-58 0 -91.5 -38t-33.5 -91q0 -55 59 -136.5t154 -167.5q124 -111 169.5 -215.5t45.5 -246.5q0 -106 -23 -177t-80 -172q-99 -171 -244 -258q-38 -22 -110 -22q-54 0 -90.5 18.5 t-36.5 46.5q0 21 13 52.5t44 54.5q16 11 45 -12q26 -23 66 -36.5t76 -13.5q52 0 79 44t27 124q0 21 -6.5 43.5t-22 48t-28.5 45t-40.5 50t-42 46t-48.5 50.5t-45 47q-193 196 -193 369q0 126 34.5 211.5t100.5 165.5q26 99 105 179.5t180 80.5z" />
<glyph unicode="&#xa8;" horiz-adv-x="0" d="M-182 1217q38 0 70 -32.5t32 -70.5t-32 -70t-70 -32t-70.5 32t-32.5 70t32.5 70.5t70.5 32.5zM-545 1217q38 0 70.5 -32.5t32.5 -70.5t-32.5 -70t-70.5 -32t-70 32t-32 70t32 70.5t70 32.5z" />
<glyph unicode="&#xa9;" horiz-adv-x="1361" d="M709 1208q-146 0 -270 -72t-196.5 -196t-72.5 -270q0 -110 42 -212t114 -176t171.5 -118.5t209.5 -44.5q148 0 272.5 74.5t196 201.5t71.5 275q0 146 -72 270t-196 196t-270 72zM709 1290q126 0 241 -49t198 -132t132 -198t49 -241q0 -168 -83.5 -311t-227 -226.5 t-311.5 -83.5t-310.5 83.5t-225.5 226.5t-83 311t83.5 311t226.5 226t311 83zM946 461q7 14 17.5 22.5t17.5 8.5q10 0 10 -27q0 -19 -15 -55.5t-26 -49.5q-6 -6 -43 -24q-46 -21 -172 -21q-143 0 -246.5 109t-103.5 248q0 98 56 177t145.5 121t191.5 42q50 0 109 -13 q8 -3 39 -10t39 -10t12 -29q7 -57 2 -112q0 -7 -7 -15.5t-14 -7.5q-12 0 -24 31q-16 45 -61.5 74.5t-112.5 29.5q-102 0 -167 -78.5t-65 -193.5q0 -122 64.5 -211.5t177.5 -89.5q134 0 176 84z" />
<glyph unicode="&#xaa;" horiz-adv-x="552" d="M100 401h422q11 0 21 -9t6 -19q-22 -43 -64 -43h-405q-11 0 -20 7.5t-9 16.5q0 15 15 31t34 16zM164 700q0 -32 20.5 -50.5t44.5 -18.5q33 0 82 39q15 12 15 47l2 59q0 18 -7 23t-24 0q-70 -20 -101.5 -47t-31.5 -52zM449 549q-26 0 -48 10t-33.5 21.5t-20 21.5t-11.5 10 q-5 0 -18 -10t-29.5 -21.5t-48 -21.5t-68.5 -10q-40 0 -80.5 42t-40.5 79q0 42 15.5 66t62.5 42l162 58q26 9 31.5 16.5t5.5 32.5v47q0 32 -20 53t-56 21q-26 0 -53.5 -8t-34.5 -19q-9 -18 -4 -51q2 -15 -86 -37q-4 -1 -6 -2q-7 -2 -10 4t1 16q8 20 12 29t14 22.5t26 26.5 q36 31 96 58.5t108 27.5t88 -33t39 -75l-6 -254q0 -80 43 -80q32 0 43 16q8 12 21 -10q9 -13 6 -21q-2 -5 -15.5 -20t-38 -31t-46.5 -16z" />
<glyph unicode="&#xab;" horiz-adv-x="1384" d="M858 444q-12 -9 -12 -14t12 -14q86 -67 160 -142t151 -192q10 -17 3.5 -31.5t-19.5 -11.5q-26 6 -57 37q-101 98 -212.5 175.5t-207.5 121.5q-20 9 -31.5 37.5t0.5 35.5q167 100 264.5 170t198.5 166q31 31 57 37q11 3 13 -13q2 -17 -9 -36q-41 -62 -82 -112.5t-85.5 -92 t-70.5 -63.5t-73 -58zM424 444q-12 -9 -12 -14t12 -14q86 -67 160 -142t151 -192q10 -17 3.5 -31.5t-19.5 -11.5q-26 6 -57 37q-101 98 -212.5 175.5t-207.5 121.5q-20 9 -31.5 37.5t0.5 35.5q167 100 264.5 170t198.5 166q31 31 57 37q11 3 13 -13q2 -17 -9 -36 q-41 -62 -82 -112.5t-85.5 -92t-70.5 -63.5t-73 -58z" />
<glyph unicode="&#xac;" horiz-adv-x="1228" d="M131 659q-10 0 -19.5 8t-9.5 17q0 10 2 23.5t6.5 31.5t15.5 30.5t26 12.5h948q10 0 18 -8.5t8 -19.5v-617q0 -15 -12.5 -25.5t-30.5 -15t-31.5 -6.5t-23.5 -2q-9 0 -16.5 9t-7.5 20v506q0 36 -29 36h-844z" />
<glyph unicode="&#xad;" horiz-adv-x="561" d="M80 348q-13 -1 -17 1.5t-4 10.5q10 109 33 111q295 40 393 51q17 0 17 -12q-8 -107 -43 -111q-266 -39 -379 -51z" />
<glyph unicode="&#xae;" horiz-adv-x="690" d="M328 1290q-74 0 -126 -52t-52 -126t52 -126t126 -52t126 52t52 126t-52 126t-126 52zM328 1331q91 0 155 -64t64 -155t-64 -155t-155 -64t-155 64t-64 155t64 155t155 64zM360 1161q0 17 -10.5 31t-23.5 14q-23 0 -23 -18v-47q0 -8 3 -10.5t11 -2.5q16 0 29.5 10t13.5 23 zM219 999q-3 0 -3 9.5t3 9.5q33 13 33 24v127q0 7 -8 15.5t-17 11.5q-2 0 -3.5 6.5t-1 13t4.5 7.5q52 12 99 12q39 0 62.5 -18t23.5 -46q0 -23 -14 -35.5t-25 -15.5q-1 0 -1 -5t1 -7q38 -72 53 -84q23 -23 23 -25q0 -6 -25 -6q-28 0 -55 27q-21 26 -33 61q-1 5 -9 9t-12 4 q-12 0 -12 -7v-45q0 -16 31 -22q3 -2 3 -11.5t-3 -9.5h-115z" />
<glyph unicode="&#xaf;" horiz-adv-x="512" d="M-419 -324zM-955 262h457q12 0 21.5 -9.5t5.5 -19.5q-9 -25 -14.5 -37t-18.5 -24.5t-31 -12.5h-440q-11 0 -20 8t-9 17q0 21 12.5 49.5t36.5 28.5z" />
<glyph unicode="&#xb0;" horiz-adv-x="593" d="M297 1321q98 0 172 -71.5t74 -168.5q0 -99 -75 -178.5t-171 -79.5t-171 79.5t-75 178.5q0 97 74 168.5t172 71.5zM147 1071q0 -62 44.5 -106.5t105.5 -44.5t105 44.5t44 106.5q0 63 -43.5 107.5t-105.5 44.5t-106 -44.5t-44 -107.5z" />
<glyph unicode="&#xb1;" horiz-adv-x="1208" d="M131 78q-11 0 -20 7.5t-9 16.5q0 21 13 49.5t37 28.5h927q12 0 21.5 -9t5.5 -19q-9 -25 -14.5 -37t-18.5 -24.5t-31 -12.5h-911zM655 834q0 -10 1.5 -11.5t7.5 -1.5h415q12 0 21.5 -9t5.5 -19q-9 -25 -14.5 -37t-18.5 -24.5t-31 -12.5h-378q-9 0 -9 -8v-414 q0 -24 -28 -36.5t-49 -12.5q-9 0 -17 8.5t-8 19.5v433q0 10 -8 10h-414q-11 0 -20 7.5t-9 16.5q0 21 13 49.5t37 28.5h387q14 0 14 17v350q0 25 29.5 44t44.5 19q11 0 19.5 -7.5t8.5 -18.5v-391z" />
<glyph unicode="&#xb2;" horiz-adv-x="614" d="M86 1389q-9 -18 -18 -13q-15 6 -15 23t18 45.5t48 58.5t77 52t97 22q78 0 132 -56.5t54 -134.5q0 -15 -1.5 -28t-6.5 -26.5t-8 -21.5t-11.5 -22.5t-12 -20t-15 -22t-14.5 -20.5q-20 -30 -67 -77t-90 -86t-46 -42q-5 -5 5 -8.5t19 -3.5h142q45 0 86.5 28t64.5 74 q3 8 12.5 12.5t18.5 3.5q12 0 6 -18q-41 -112 -55 -186q-2 -13 -6.5 -20t-9.5 -7h-9q-104 6 -172 6q-148 0 -252 -4q-7 -1 -9 9q-2 13 9 24q15 15 43.5 44.5t36.5 37.5l35 32q34 32 60 59.5t60 68.5t53 83t20 78q1 57 -33.5 95t-83.5 38q-55 0 -87 -15.5t-75 -61.5z" />
<glyph unicode="&#xb3;" horiz-adv-x="614" d="M383 1405q0 31 -34.5 54.5t-65.5 21.5q-74 -3 -144 -62q-14 -14 -20 -12q-7 3 -11.5 10t-1.5 13q31 59 84 103t127 44q181 -3 181 -145q0 -38 -32 -74t-89 -64q-6 -3 -6 -6.5t6 -3.5q58 -3 99.5 -41t41.5 -94q0 -59 -29.5 -110t-74.5 -82.5t-94 -49.5t-91 -18 q-44 0 -66 4t-46 20q-23 15 -23 43q0 14 12.5 36t24.5 22q17 0 27 -10q72 -46 133 -46q15 0 31 3.5t38.5 14.5t37 39.5t14.5 69.5q0 56 -40 95t-98 39q-18 0 -75 -15q-6 -2 -15 1.5t-14 10t0 11.5q18 18 54.5 31.5t45.5 19.5t34 22t33 22.5t22.5 20.5t19 28.5t4.5 33.5z" />
<glyph unicode="&#xb4;" horiz-adv-x="782" d="M375 965q-33 -45 -56 -45q-26 0 -26 26q0 20 72 152t118 207q35 57 105 55q26 0 47.5 -17.5t21.5 -39.5q0 -16 -33 -50t-106.5 -113t-142.5 -175z" />
<glyph unicode="&#xb5;" horiz-adv-x="1044" d="M860 131q91 0 133 82q6 13 22 8.5t17 -16.5q2 -33 -9 -70.5t-22 -54.5q-43 -69 -79 -90t-91 -21q-50 0 -78 27t-59 102q-4 10 -13.5 57.5t-12.5 77.5q-8 -18 -30 -55.5t-55.5 -86t-75.5 -83.5t-77 -35q-67 0 -111.5 23t-117.5 82q-7 6 -19.5 19t-22 21.5t-16.5 8.5 q-12 0 -17 -27t-2.5 -70.5t8.5 -92.5t15 -97q12 -69 45.5 -151.5t61 -138.5t27.5 -70q0 -64 -58 -64q-90 0 -129 105q-13 34 -22 192t-9 287q0 14 7.5 82.5t7.5 105.5q0 31 -7.5 237.5t-7.5 254.5q0 74 26 125t81 51q80 0 80 -154q0 -44 -32 -218t-32 -214q0 -47 49 -107.5 t111 -60.5q147 0 225 148q28 54 45 105t23.5 111t8 97.5t1.5 116.5q0 67 26 118.5t75 51.5q79 0 79 -129q0 -33 -49 -181.5t-49 -207.5q0 -43 12 -86.5t43 -79t74 -35.5z" />
<glyph unicode="&#xb6;" horiz-adv-x="1200" d="M549 -446q0 -37 26 -63t64 -28q73 -3 120.5 45.5t47.5 122.5v562q0 51 -27 51q-101 0 -198.5 20.5t-185.5 62.5t-155 101t-106 142.5t-39 179.5q0 110 46 204.5t123 161t179 113.5t214.5 69.5t228.5 22.5q91 0 223 -4q15 -1 23 -14.5t8 -28.5q0 -14 -12.5 -29.5 t-24.5 -15.5q-6 0 -74.5 7t-73.5 7q-15 0 -25.5 -11t-10.5 -26v-1546q0 -47 -34.5 -104t-98 -100.5t-132.5 -43.5q-73 0 -126.5 47.5t-53.5 118.5q0 58 42 96.5t101 38.5q44 0 77.5 -25t33.5 -65q0 -33 -22 -60.5t-50 -27.5q-12 0 -24 4t-24 10.5t-20 11.5q-11 7 -16.5 10 t-12 4t-9 -4t-2.5 -17z" />
<glyph unicode="&#xb7;" horiz-adv-x="409" d="M205 532q47 0 79.5 -33t32.5 -79q0 -47 -33 -80t-79 -33q-47 0 -80 33.5t-33 79.5t33 79t80 33z" />
<glyph unicode="&#xb8;" horiz-adv-x="516" d="M738 0zM784 -264q-12 0 -24.5 9t-12.5 22q0 5 11 20l180 229h63l-80 -104q-8 -8 -8 -16t8 -15.5t15 -9.5q53 -23 89 -65t36 -91q0 -58 -29.5 -112t-71 -88.5t-84 -55t-71.5 -20.5q-62 0 -62 84q0 19 9.5 29t17.5 10l33 -12q34 -11 75 -11q39 0 59.5 25.5t20.5 66.5 q0 55 -33 86t-88 31q-15 0 -31.5 -6t-21.5 -6z" />
<glyph unicode="&#xb9;" horiz-adv-x="614" d="M350 1602q16 7 25.5 -1t7.5 -24q-5 -34 -8 -143q-3 -255 0 -390q3 -59 18 -72t84 -22q16 -2 22 -14.5t0 -24.5t-22 -12q-65 0 -103 5t-65 5t-67 -5t-101 -5q-12 0 -19.5 12.5t-2.5 25t22 13.5q26 2 41 5t33.5 11.5t27.5 28t9 49.5v314q0 58 -111 96q-25 9 -21.5 31 t19.5 24q46 4 91 23.5t82 44t38 25.5z" />
<glyph unicode="&#xba;" horiz-adv-x="632" d="M100 401h455q11 0 21 -9t6 -19q-22 -43 -64 -43h-438q-11 0 -20 7.5t-9 16.5q0 15 15 31t34 16zM305 1006q-65 0 -97 -52.5t-32 -130.5q0 -87 43 -149t109 -62q64 0 96.5 53t32.5 132q0 83 -42.5 146t-109.5 63zM328 1073q100 0 177 -73.5t77 -172.5q0 -115 -74 -196.5 t-205 -81.5q-105 0 -178.5 69t-73.5 177q0 114 81.5 196t195.5 82z" />
<glyph unicode="&#xbb;" horiz-adv-x="1384" d="M526 444q-47 36 -73 58t-70.5 63.5t-85.5 92t-82 112.5q-17 28 -8 44q4 7 12 5q7 -2 13.5 -5t13.5 -7.5t10.5 -7.5t11 -9.5t8.5 -7.5q101 -96 198.5 -166t264.5 -170q12 -7 1 -35.5t-31 -37.5q-96 -44 -207.5 -121.5t-212.5 -175.5q-37 -32 -58 -37q-14 -3 -20 11.5 t4 31.5q77 117 151 192t160 142q12 9 12 14t-12 14zM961 444q-63 49 -98.5 79t-98 98t-115.5 149q-17 28 -8 44q4 7 12 5q21 -5 58 -37q101 -96 198.5 -166t264.5 -170q12 -7 0.5 -35.5t-31.5 -37.5q-96 -44 -207.5 -121.5t-212.5 -175.5q-1 -1 -8.5 -7.5t-11 -9.5 t-10.5 -7.5t-13.5 -7.5t-13.5 -5q-14 -3 -20.5 11.5t3.5 31.5q77 117 151 191.5t161 142.5q12 9 12 14t-12 14z" />
<glyph unicode="&#xbc;" horiz-adv-x="1312" d="M248 -23l844 1330q21 34 79 34q12 0 22.5 -12t4.5 -22l-844 -1330q-18 -30 -73 -30q-15 0 -27.5 10t-5.5 20zM1028 303q16 0 16 10v228q0 3 -4.5 4t-7.5 -2q-79 -88 -190 -230q-5 -10 0 -10h186zM715 223q33 42 57 76q35 44 99 122t112 138q25 31 119 133q23 23 31 25 q5 1 9.5 -5t4.5 -12q0 -239 4 -391q0 -8 6 -8q39 -2 121 2q6 0 10.5 -3.5t3.5 -8.5q-3 -23 -11.5 -47.5t-14.5 -24.5q-11 0 -33.5 1t-39 1t-26.5 -2q-16 -5 -16 -8v-172q0 -20 -38 -39.5t-50 -19.5q-19 0 -19 16v209q0 10 -18 10q-53 0 -146.5 -3.5t-152.5 -4.5 q-6 0 -10.5 6.5t-1.5 9.5zM315 1282q16 7 25.5 -1t7.5 -24q-8 -58 -8 -143q-3 -255 0 -389q1 -58 16.5 -71.5t85.5 -22.5q17 -2 23 -14.5t-0.5 -24.5t-22.5 -12q-65 0 -103 5t-65 5t-67 -5t-101 -5q-12 0 -19 12.5t-2 25t21 13.5q27 2 42 5t33.5 12t27 28t8.5 49v313 q0 59 -111 97q-25 9 -21.5 31t19.5 24q46 4 91 23.5t82 43.5t38 25z" />
<glyph unicode="&#xbd;" horiz-adv-x="1431" d="M907 475q-8 -17 -18 -12q-15 6 -15 22q0 42 72.5 110.5t167.5 68.5q78 0 132 -56.5t54 -134.5q0 -15 -1.5 -27.5t-6.5 -27t-7.5 -22t-12.5 -23.5t-11.5 -19t-15 -22t-14.5 -21q-20 -30 -67 -77t-90 -86t-46 -42q-5 -5 5.5 -8.5t19.5 -3.5h141q45 0 87 28.5t65 74.5 q3 8 12 12.5t18 3.5q12 0 6 -18q-41 -111 -55 -187q-2 -13 -6.5 -20t-9 -6.5t-8.5 0.5q-104 6 -173 6q-147 0 -251 -4q-7 -1 -9 9q-2 12 9 23q15 15 43 44.5t36 37.5q3 3 27.5 26t46 44t51.5 55t51 64t36.5 66t15.5 67q1 57 -33.5 95t-83.5 38q-55 0 -86.5 -15.5 t-75.5 -62.5zM248 -23l844 1330q21 34 79 34q12 0 22.5 -12t4.5 -22l-844 -1330q-18 -30 -73 -30q-15 0 -27.5 10t-5.5 20zM315 1282q16 7 25.5 -1t7.5 -24q-8 -58 -8 -143q-3 -255 0 -389q1 -58 16.5 -71.5t85.5 -22.5q17 -2 23 -14.5t-0.5 -24.5t-22.5 -12q-65 0 -103 5 t-65 5t-67 -5t-101 -5q-12 0 -19 12.5t-2 25t21 13.5q27 2 42 5t33.5 12t27 28t8.5 49v313q0 59 -111 97q-25 9 -21.5 31t19.5 24q46 4 91 23.5t82 43.5t38 25z" />
<glyph unicode="&#xbe;" horiz-adv-x="1312" d="M401 1122q0 31 -34.5 54.5t-65.5 21.5q-74 -3 -143 -61q-15 -15 -21 -13q-7 3 -11 10t-1 13q31 59 84 103t127 44q180 -3 180 -145q0 -37 -32 -73t-89 -64q-6 -3 -6 -7t6 -4q65 -3 103.5 -56t38.5 -124q0 -59 -29.5 -110t-74.5 -82.5t-94 -49.5t-91 -18q-44 0 -68.5 4.5 t-48.5 20.5q-22 15 -22 43q0 14 12 35.5t24 21.5q17 0 27 -10q70 -45 137 -45q13 0 31 7t39.5 22.5t36 46.5t14.5 73q0 62 -40 109t-97 47q-22 0 -76 -14q-6 -2 -15 1.5t-14 9.5t0 11q18 18 55 31.5t46 19.5q10 6 29 18.5t27.5 18.5t21.5 17t19 20t10.5 23t4.5 30zM248 -23 l844 1330q21 34 79 34q12 0 22.5 -12t4.5 -22l-844 -1330q-18 -30 -73 -30q-15 0 -27.5 10t-5.5 20zM1028 303q16 0 16 10v228q0 3 -4.5 4t-7.5 -2q-79 -88 -190 -230q-5 -10 0 -10h186zM715 223q33 42 57 76q35 44 99 122t112 138q25 31 119 133q23 23 31 25q5 1 9.5 -5 t4.5 -12q0 -239 4 -391q0 -8 6 -8q39 -2 121 2q6 0 10.5 -3.5t3.5 -8.5q-3 -23 -11.5 -47.5t-14.5 -24.5q-11 0 -33.5 1t-39 1t-26.5 -2q-16 -5 -16 -8v-172q0 -20 -38 -39.5t-50 -19.5q-19 0 -19 16v209q0 10 -18 10q-53 0 -146.5 -3.5t-152.5 -4.5q-6 0 -10.5 6.5 t-1.5 9.5z" />
<glyph unicode="&#xbf;" horiz-adv-x="727" d="M477 766q-51 0 -87 36t-36 87t36 87t87 36t87 -36t36 -87t-36 -87t-87 -36zM559 -371q-53 0 -112.5 27t-108.5 76q-84 84 -141.5 202.5t-57.5 198.5q0 69 27.5 122t62.5 73q117 64 185 108q40 26 49.5 50t11.5 79q0 17 8.5 32t22.5 15q11 0 25 -17.5t20 -41.5 q2 -9 8.5 -32t9.5 -36.5t7.5 -41t7.5 -60.5q4 -52 -45.5 -94t-161.5 -99q-49 -25 -87 -64.5t-38 -80.5q0 -105 53 -169.5t154 -65.5q20 0 48.5 4t47.5 4q32 0 59 -36.5t27 -78.5q0 -28 -27 -51t-55 -23z" />
<glyph unicode="&#xc0;" horiz-adv-x="1400" d="M0 0zM809 1427q-13 0 -37 19q-165 122 -266 209q-27 24 -27 39q0 19 44.5 33t74.5 14q36 0 55 -27q93 -136 158 -244q10 -17 10 -30t-12 -13zM1368 -10q-24 0 -129.5 6t-155.5 6q-44 0 -112.5 -1t-89.5 -1q-60 0 -60 23q0 22 68 40q59 14 81.5 36t22.5 57q0 13 -8 59 q-33 164 -59 262q-4 15 -15 19t-43 4h-391q-15 0 -22 -7.5t-13 -29.5l-77 -254q-5 -12 -5 -31q0 -43 33.5 -73.5t85.5 -43.5q68 -17 68 -41q0 -22 -60 -22q-14 0 -78.5 2t-107.5 2q-48 0 -131.5 -6t-114.5 -6q-59 0 -59 26t67 47q59 17 102.5 52t74.5 106q196 444 383 963 q19 57 20 61q3 10 4 24.5t1.5 23.5t2.5 10q54 17 74 30q12 8 21 21t13.5 21.5t8.5 8.5q11 0 20 -28q154 -488 365 -1094q39 -112 86.5 -152.5t120.5 -52.5q33 -6 50 -19t17 -28q0 -20 -59 -20zM682 1110l-184 -492q-4 -12 -4 -14q0 -16 43 -16h317h13t8.5 1t6 3t1.5 6t-4 20 l-162 490q-12 37 -19 37q-4 0 -16 -35z" />
<glyph unicode="&#xc1;" horiz-adv-x="1400" d="M0 0zM678 1427q-13 0 -13 13q0 12 11 30q71 120 157 244q19 27 56 27q30 0 74 -14t44 -33q0 -16 -26 -39q-95 -81 -267 -209q-24 -19 -36 -19zM1368 -10q-24 0 -129.5 6t-155.5 6q-44 0 -112.5 -1t-89.5 -1q-60 0 -60 23q0 22 68 40q59 14 81.5 36t22.5 57q0 13 -8 59 q-33 164 -59 262q-4 15 -15 19t-43 4h-391q-15 0 -22 -7.5t-13 -29.5l-77 -254q-5 -12 -5 -31q0 -43 33.5 -73.5t85.5 -43.5q68 -17 68 -41q0 -22 -60 -22q-14 0 -78.5 2t-107.5 2q-48 0 -131.5 -6t-114.5 -6q-59 0 -59 26t67 47q59 17 102.5 52t74.5 106q196 444 383 963 q19 57 20 61q3 10 4 24.5t1.5 23.5t2.5 10q54 17 74 30q12 8 21 21t13.5 21.5t8.5 8.5q11 0 20 -28q154 -488 365 -1094q39 -112 86.5 -152.5t120.5 -52.5q33 -6 50 -19t17 -28q0 -20 -59 -20zM682 1110l-184 -492q-4 -12 -4 -14q0 -16 43 -16h317h13t8.5 1t6 3t1.5 6t-4 20 l-162 490q-12 37 -19 37q-4 0 -16 -35z" />
<glyph unicode="&#xc2;" horiz-adv-x="1400" d="M0 0zM475 1436q-31 0 -31 20q0 13 15 25l200 180q31 28 46.5 36.5t37.5 8.5t37.5 -8.5t46.5 -36.5l201 -180q12 -10 12 -25q0 -22 -28 -22q-18 0 -109.5 43t-138.5 71q-13 7 -20.5 7t-20.5 -7q-46 -27 -137.5 -69.5t-110.5 -42.5zM1368 -10q-24 0 -129.5 6t-155.5 6 q-44 0 -112.5 -1t-89.5 -1q-60 0 -60 23q0 22 68 40q59 14 81.5 36t22.5 57q0 13 -8 59q-33 164 -59 262q-4 15 -15 19t-43 4h-391q-15 0 -22 -7.5t-13 -29.5l-77 -254q-5 -12 -5 -31q0 -43 33.5 -73.5t85.5 -43.5q68 -17 68 -41q0 -22 -60 -22q-14 0 -78.5 2t-107.5 2 q-48 0 -131.5 -6t-114.5 -6q-59 0 -59 26t67 47q59 17 102.5 52t74.5 106q196 444 383 963q19 57 20 61q3 10 4 24.5t1.5 23.5t2.5 10q54 17 74 30q12 8 21 21t13.5 21.5t8.5 8.5q11 0 20 -28q154 -488 365 -1094q39 -112 86.5 -152.5t120.5 -52.5q33 -6 50 -19t17 -28 q0 -20 -59 -20zM682 1110l-184 -492q-4 -12 -4 -14q0 -16 43 -16h317h13t8.5 1t6 3t1.5 6t-4 20l-162 490q-12 37 -19 37q-4 0 -16 -35z" />
<glyph unicode="&#xc3;" horiz-adv-x="1400" d="M0 0zM865 1489q-26 0 -124 9t-124 9q-24 0 -45 -13t-32.5 -29t-22.5 -29t-17 -13q-13 0 -26 10.5t-13 24.5q0 53 61 117.5t117 64.5q26 0 119.5 -11t118.5 -11q31 0 56.5 20t41.5 39.5t25 19.5q15 0 25 -9.5t10 -24.5q0 -48 -57.5 -111t-112.5 -63zM1368 -10 q-24 0 -129.5 6t-155.5 6q-44 0 -112.5 -1t-89.5 -1q-60 0 -60 23q0 22 68 40q59 14 81.5 36t22.5 57q0 13 -8 59q-33 164 -59 262q-4 15 -15 19t-43 4h-391q-15 0 -22 -7.5t-13 -29.5l-77 -254q-5 -12 -5 -31q0 -43 33.5 -73.5t85.5 -43.5q68 -17 68 -41q0 -22 -60 -22 q-14 0 -78.5 2t-107.5 2q-48 0 -131.5 -6t-114.5 -6q-59 0 -59 26t67 47q59 17 102.5 52t74.5 106q196 444 383 963q19 57 20 61q3 10 4 24.5t1.5 23.5t2.5 10q54 17 74 30q12 8 21 21t13.5 21.5t8.5 8.5q11 0 20 -28q154 -488 365 -1094q39 -112 86.5 -152.5t120.5 -52.5 q33 -6 50 -19t17 -28q0 -20 -59 -20zM682 1110l-184 -492q-4 -12 -4 -14q0 -16 43 -16h317h13t8.5 1t6 3t1.5 6t-4 20l-162 490q-12 37 -19 37q-4 0 -16 -35z" />
<glyph unicode="&#xc4;" horiz-adv-x="1400" d="M0 0zM942 1638q43 0 72.5 -29.5t29.5 -72.5t-29.5 -72.5t-72.5 -29.5t-72.5 29.5t-29.5 72.5t29.5 72.5t72.5 29.5zM543 1638q43 0 72.5 -29.5t29.5 -72.5t-29.5 -72.5t-72.5 -29.5t-73 29.5t-30 72.5t30 72.5t73 29.5zM1368 -10q-24 0 -129.5 6t-155.5 6 q-44 0 -112.5 -1t-89.5 -1q-60 0 -60 23q0 22 68 40q59 14 81.5 36t22.5 57q0 13 -8 59q-33 164 -59 262q-4 15 -15 19t-43 4h-391q-15 0 -22 -7.5t-13 -29.5l-77 -254q-5 -12 -5 -31q0 -43 33.5 -73.5t85.5 -43.5q68 -17 68 -41q0 -22 -60 -22q-14 0 -78.5 2t-107.5 2 q-48 0 -131.5 -6t-114.5 -6q-59 0 -59 26t67 47q59 17 102.5 52t74.5 106q196 444 383 963q19 57 20 61q3 10 4 24.5t1.5 23.5t2.5 10q54 17 74 30q12 8 21 21t13.5 21.5t8.5 8.5q11 0 20 -28q154 -488 365 -1094q39 -112 86.5 -152.5t120.5 -52.5q33 -6 50 -19t17 -28 q0 -20 -59 -20zM682 1110l-184 -492q-4 -12 -4 -14q0 -16 43 -16h317h13t8.5 1t6 3t1.5 6t-4 20l-162 490q-12 37 -19 37q-4 0 -16 -35z" />
<glyph unicode="&#xc5;" horiz-adv-x="1400" d="M0 0zM776 1709q75 0 124.5 -42.5t49.5 -114.5q0 -75 -56 -126.5t-134 -51.5q-72 0 -123 43.5t-51 117.5t56.5 124t133.5 50zM663 1542q0 -50 33 -86.5t82 -36.5q42 0 68 38.5t26 84.5q0 48 -32 84t-78 36q-44 0 -71.5 -36.5t-27.5 -83.5zM1368 -10q-24 0 -129.5 6 t-155.5 6q-44 0 -112.5 -1t-89.5 -1q-60 0 -60 23q0 22 68 40q59 14 81.5 36t22.5 57q0 13 -8 59q-33 164 -59 262q-4 15 -15 19t-43 4h-391q-15 0 -22 -7.5t-13 -29.5l-77 -254q-5 -12 -5 -31q0 -43 33.5 -73.5t85.5 -43.5q68 -17 68 -41q0 -22 -60 -22q-14 0 -78.5 2 t-107.5 2q-48 0 -131.5 -6t-114.5 -6q-59 0 -59 26t67 47q59 17 102.5 52t74.5 106q196 444 383 963q19 57 20 61q3 10 4 24.5t1.5 23.5t2.5 10q54 17 74 30q12 8 21 21t13.5 21.5t8.5 8.5q11 0 20 -28q154 -488 365 -1094q39 -112 86.5 -152.5t120.5 -52.5q33 -6 50 -19 t17 -28q0 -20 -59 -20zM682 1110l-184 -492q-4 -12 -4 -14q0 -16 43 -16h317h13t8.5 1t6 3t1.5 6t-4 20l-162 490q-12 37 -19 37q-4 0 -16 -35z" />
<glyph unicode="&#xc6;" horiz-adv-x="1773" d="M930 547q0 18 -8.5 27.5t-36.5 9.5h-289q-37 0 -61 -47q-68 -115 -168 -308q-65 -126 114 -168q68 -17 68 -41q0 -22 -60 -22q-8 0 -88 2.5t-131 1.5q-43 -1 -116.5 -6.5t-104.5 -5.5q-59 0 -59 22q0 24 67 45q52 15 111 71t102 130q92 159 283.5 486.5t275.5 472.5 q7 12 -3.5 22t-30.5 12l-181 31q-16 6 -20 18.5t3 22.5t17 10q36 0 159.5 -3t199.5 -3q106 0 255 3t253 5.5t125 1.5q33 0 36 -18q23 -126 25 -211q0 -8 -9.5 -13t-19.5 -5t-14.5 4.5t-7.5 15.5q-23 73 -47 100q-51 56 -137 56h-269q-17 0 -32.5 -17.5t-18.5 -36.5 q-13 -58 -16 -147q-6 -147 -6 -340q0 -15 0.5 -22.5t5.5 -15t14 -7.5q115 0 213 4q64 3 90 27q24 21 35 49q3 8 16.5 21.5t20.5 13.5q9 0 18 -10.5t8 -22.5q-10 -102 0 -270q0 -35 -18 -35t-30.5 16t-16.5 31q-24 76 -96 80q-86 4 -211 4q-23 0 -36.5 -13t-12.5 -38 q0 -131 6 -306q2 -69 33 -114t96 -45h213q16 0 77 12t78 25q42 33 86 129q10 20 29 20q12 -2 20 -8.5t7 -16.5q-11 -108 -35 -208q-9 -35 -29 -35q-127 0 -342.5 6.5t-320.5 5.5q-44 0 -111 -6t-125 -6q-59 0 -59 22q0 26 67 37q80 14 117.5 48.5t36.5 105.5q-4 226 -4 344z M897 1190q-18 -31 -279 -488q-11 -20 -6.5 -25t31.5 -5h254q24 0 28.5 3.5t4.5 26.5v486q0 37 -6 37q-9 0 -27 -35z" />
<glyph unicode="&#xc7;" horiz-adv-x="1310" d="M46 0zM667 -236q0 14 13 31l163 221h64l-84 -127q-7 -9 1 -18.5t19 -13.5q53 -23 94.5 -70.5t41.5 -112.5q0 -49 -28.5 -95t-70 -76t-86.5 -48t-80 -18q-49 0 -70.5 19t-21.5 46q0 33 10 51.5t23 18.5q4 0 16 -7t40.5 -13.5t72.5 -6.5q32 0 59 20t27 60q0 44 -23.5 77.5 t-72.5 33.5q-13 0 -29 -3t-24 -3q-24 0 -39 11.5t-15 22.5zM1200 281q5 10 15.5 17.5t21.5 13t14 7.5q3 3 4 3q6 0 10.5 -12.5t4.5 -26.5q0 -3 -1 -9t-1 -8q-7 -47 -27 -114t-41 -99q-4 -7 -17.5 -12.5t-38.5 -13.5t-44 -17q-87 -41 -344 -41q-182 0 -335 95t-240 254 t-87 344q0 145 61 275.5t163 222t238.5 145t283.5 53.5q50 0 119.5 -8t97.5 -17q80 -26 155 -37q23 -3 27 -61q14 -109 16 -223q2 -17 -3.5 -32.5t-18.5 -14.5q-18 2 -32.5 21.5t-20.5 53.5q-12 94 -72 150q-12 12 -30.5 25.5t-55.5 33.5t-93.5 32.5t-121.5 12.5 q-110 0 -206 -49t-161.5 -129.5t-103 -186.5t-37.5 -218q0 -100 23 -198.5t68.5 -184.5t107.5 -152t145 -104.5t176 -38.5q81 0 147 23t111 63.5t72 77.5t51 84z" />
<glyph unicode="&#xc8;" horiz-adv-x="1095" d="M23 0zM653 1429q-13 0 -37 19q-165 122 -266 209q-27 24 -27 39q0 19 44.5 33t74.5 14q36 0 55 -27q93 -136 158 -244q10 -17 10 -30t-12 -13zM938 1337q34 0 37 -18q31 -173 31 -211q0 -31 -29 -31q-17 0 -23 21q-29 95 -45 112q-51 56 -137 56h-268q-19 0 -41 -19.5 t-25 -42.5q-2 -14 -5 -189t-3 -249q0 -45 21 -45h213q43 0 76 22t48 58q3 8 16.5 21.5t20.5 13.5q9 0 18 -9.5t9 -23.5q0 -7 -3 -51t-3 -62q0 -24 2 -79t2 -60q0 -35 -19 -35q-18 0 -30.5 16t-16.5 31q-14 45 -40 68.5t-54 23.5h-190q-24 0 -34 -1t-21 -6.5t-13.5 -17.5 t-1.5 -34q0 -14 6 -365q2 -80 32 -119.5t97 -39.5h213q48 0 80 5.5t45.5 12.5t30.5 19q42 33 86 129q11 23 29 20q26 -4 26 -22q0 -27 -12 -98.5t-23 -112.5q-8 -35 -28 -35q-138 0 -356.5 6t-313.5 6q-44 0 -111 -6t-125 -6q-59 0 -59 22q0 25 68 37q79 14 115 48.5 t36 105.5v921q0 73 -30 104.5t-107 45.5q-68 12 -68 41q0 22 60 22q78 0 185 -3t177 -3q82 0 190.5 1.5t184.5 3t80 1.5z" />
<glyph unicode="&#xc9;" horiz-adv-x="1095" d="M23 0zM523 1429q-13 0 -13 13q0 12 11 30q71 120 157 244q19 27 56 27q30 0 74 -14t44 -33q0 -16 -26 -39q-95 -81 -267 -209q-24 -19 -36 -19zM938 1337q34 0 37 -18q31 -173 31 -211q0 -31 -29 -31q-17 0 -23 21q-29 95 -45 112q-51 56 -137 56h-268q-19 0 -41 -19.5 t-25 -42.5q-2 -14 -5 -189t-3 -249q0 -45 21 -45h213q43 0 76 22t48 58q3 8 16.5 21.5t20.5 13.5q9 0 18 -9.5t9 -23.5q0 -7 -3 -51t-3 -62q0 -24 2 -79t2 -60q0 -35 -19 -35q-18 0 -30.5 16t-16.5 31q-14 45 -40 68.5t-54 23.5h-190q-24 0 -34 -1t-21 -6.5t-13.5 -17.5 t-1.5 -34q0 -14 6 -365q2 -80 32 -119.5t97 -39.5h213q48 0 80 5.5t45.5 12.5t30.5 19q42 33 86 129q11 23 29 20q26 -4 26 -22q0 -27 -12 -98.5t-23 -112.5q-8 -35 -28 -35q-138 0 -356.5 6t-313.5 6q-44 0 -111 -6t-125 -6q-59 0 -59 22q0 25 68 37q79 14 115 48.5 t36 105.5v921q0 73 -30 104.5t-107 45.5q-68 12 -68 41q0 22 60 22q78 0 185 -3t177 -3q82 0 190.5 1.5t184.5 3t80 1.5z" />
<glyph unicode="&#xca;" horiz-adv-x="1095" d="M23 0zM320 1438q-31 0 -31 20q0 13 15 25l200 180q31 28 46.5 36.5t37.5 8.5t37.5 -8.5t46.5 -36.5l201 -180q12 -10 12 -25q0 -22 -28 -22q-18 0 -109.5 43t-138.5 71q-13 7 -20.5 7t-20.5 -7q-46 -27 -137.5 -69.5t-110.5 -42.5zM938 1337q34 0 37 -18q31 -173 31 -211 q0 -31 -29 -31q-17 0 -23 21q-29 95 -45 112q-51 56 -137 56h-268q-19 0 -41 -19.5t-25 -42.5q-2 -14 -5 -189t-3 -249q0 -45 21 -45h213q43 0 76 22t48 58q3 8 16.5 21.5t20.5 13.5q9 0 18 -9.5t9 -23.5q0 -7 -3 -51t-3 -62q0 -24 2 -79t2 -60q0 -35 -19 -35 q-18 0 -30.5 16t-16.5 31q-14 45 -40 68.5t-54 23.5h-190q-24 0 -34 -1t-21 -6.5t-13.5 -17.5t-1.5 -34q0 -14 6 -365q2 -80 32 -119.5t97 -39.5h213q48 0 80 5.5t45.5 12.5t30.5 19q42 33 86 129q11 23 29 20q26 -4 26 -22q0 -27 -12 -98.5t-23 -112.5q-8 -35 -28 -35 q-138 0 -356.5 6t-313.5 6q-44 0 -111 -6t-125 -6q-59 0 -59 22q0 25 68 37q79 14 115 48.5t36 105.5v921q0 73 -30 104.5t-107 45.5q-68 12 -68 41q0 22 60 22q78 0 185 -3t177 -3q82 0 190.5 1.5t184.5 3t80 1.5z" />
<glyph unicode="&#xcb;" horiz-adv-x="1095" d="M23 0zM786 1640q43 0 72.5 -29.5t29.5 -72.5t-29.5 -72.5t-72.5 -29.5t-72.5 29.5t-29.5 72.5t29.5 72.5t72.5 29.5zM387 1640q43 0 72.5 -29.5t29.5 -72.5t-29.5 -72.5t-72.5 -29.5t-73 29.5t-30 72.5t30 72.5t73 29.5zM938 1337q34 0 37 -18q31 -173 31 -211 q0 -31 -29 -31q-17 0 -23 21q-29 95 -45 112q-51 56 -137 56h-268q-19 0 -41 -19.5t-25 -42.5q-2 -14 -5 -189t-3 -249q0 -45 21 -45h213q43 0 76 22t48 58q3 8 16.5 21.5t20.5 13.5q9 0 18 -9.5t9 -23.5q0 -7 -3 -51t-3 -62q0 -24 2 -79t2 -60q0 -35 -19 -35 q-18 0 -30.5 16t-16.5 31q-14 45 -40 68.5t-54 23.5h-190q-24 0 -34 -1t-21 -6.5t-13.5 -17.5t-1.5 -34q0 -14 6 -365q2 -80 32 -119.5t97 -39.5h213q48 0 80 5.5t45.5 12.5t30.5 19q42 33 86 129q11 23 29 20q26 -4 26 -22q0 -27 -12 -98.5t-23 -112.5q-8 -35 -28 -35 q-138 0 -356.5 6t-313.5 6q-44 0 -111 -6t-125 -6q-59 0 -59 22q0 25 68 37q79 14 115 48.5t36 105.5v921q0 73 -30 104.5t-107 45.5q-68 12 -68 41q0 22 60 22q78 0 185 -3t177 -3q82 0 190.5 1.5t184.5 3t80 1.5z" />
<glyph unicode="&#xcc;" horiz-adv-x="696" d="M19 0zM436 1427q-13 0 -37 19q-165 122 -266 209q-27 24 -27 39q0 19 44.5 33t74.5 14q36 0 55 -27q93 -136 158 -244q10 -17 10 -30t-12 -13zM266 1126q0 71 -30 102.5t-107 45.5q-68 12 -68 41q0 22 60 22q58 0 126 -3t113 -3q41 0 103.5 3t120.5 3q59 0 59 -22 q0 -29 -68 -41q-79 -14 -112 -46t-33 -102v-925q0 -69 40.5 -103.5t121.5 -48.5q67 -11 67 -37q0 -22 -59 -22q-58 0 -126.5 5t-113.5 5q-50 0 -127.5 -5t-134.5 -5q-59 0 -59 22q0 26 67 37q81 14 120.5 48.5t39.5 103.5v925z" />
<glyph unicode="&#xcd;" horiz-adv-x="696" d="M19 0zM306 1427q-13 0 -13 13q0 12 11 30q71 120 157 244q19 27 56 27q30 0 74 -14t44 -33q0 -16 -26 -39q-95 -81 -267 -209q-24 -19 -36 -19zM266 1126q0 71 -30 102.5t-107 45.5q-68 12 -68 41q0 22 60 22q58 0 126 -3t113 -3q41 0 103.5 3t120.5 3q59 0 59 -22 q0 -29 -68 -41q-79 -14 -112 -46t-33 -102v-925q0 -69 40.5 -103.5t121.5 -48.5q67 -11 67 -37q0 -22 -59 -22q-58 0 -126.5 5t-113.5 5q-50 0 -127.5 -5t-134.5 -5q-59 0 -59 22q0 26 67 37q81 14 120.5 48.5t39.5 103.5v925z" />
<glyph unicode="&#xce;" horiz-adv-x="696" d="M19 0zM102 1436q-31 0 -31 20q0 13 15 25l200 180q31 28 46.5 36.5t37.5 8.5t37.5 -8.5t46.5 -36.5l201 -180q12 -10 12 -25q0 -22 -28 -22q-18 0 -109.5 43t-138.5 71q-13 7 -20.5 7t-20.5 -7q-46 -27 -137.5 -69.5t-110.5 -42.5zM266 1126q0 71 -30 102.5t-107 45.5 q-68 12 -68 41q0 22 60 22q58 0 126 -3t113 -3q41 0 103.5 3t120.5 3q59 0 59 -22q0 -29 -68 -41q-79 -14 -112 -46t-33 -102v-925q0 -69 40.5 -103.5t121.5 -48.5q67 -11 67 -37q0 -22 -59 -22q-58 0 -126.5 5t-113.5 5q-50 0 -127.5 -5t-134.5 -5q-59 0 -59 22q0 26 67 37 q81 14 120.5 48.5t39.5 103.5v925z" />
<glyph unicode="&#xcf;" horiz-adv-x="696" d="M19 0zM569 1638q43 0 72.5 -29.5t29.5 -72.5t-29.5 -72.5t-72.5 -29.5t-72.5 29.5t-29.5 72.5t29.5 72.5t72.5 29.5zM170 1638q43 0 72.5 -29.5t29.5 -72.5t-29.5 -72.5t-72.5 -29.5t-73 29.5t-30 72.5t30 72.5t73 29.5zM266 1126q0 71 -30 102.5t-107 45.5 q-68 12 -68 41q0 22 60 22q58 0 126 -3t113 -3q41 0 103.5 3t120.5 3q59 0 59 -22q0 -29 -68 -41q-79 -14 -112 -46t-33 -102v-925q0 -69 40.5 -103.5t121.5 -48.5q67 -11 67 -37q0 -22 -59 -22q-58 0 -126.5 5t-113.5 5q-50 0 -127.5 -5t-134.5 -5q-59 0 -59 22q0 26 67 37 q81 14 120.5 48.5t39.5 103.5v925z" />
<glyph unicode="&#xd0;" horiz-adv-x="1544" d="M29 0zM29 0zM143 723h629q11 0 21 -9.5t6 -19.5q-23 -45 -64 -45h-612q-12 0 -20.5 13t-8.5 24q0 14 15 25.5t34 11.5zM760 -14q-5 0 -167.5 7t-258.5 7q-38 0 -97.5 -5t-117.5 -5q-60 0 -60 22q0 25 68 37q77 14 107 47.5t30 106.5v921q0 73 -30 104.5t-107 45.5 q-68 12 -68 41q0 22 60 22q59 0 116.5 -2t96.5 -2h14q48 0 187.5 8.5t162.5 8.5q164 0 290.5 -31t212 -87.5t140.5 -140t79 -183t24 -222.5q0 -141 -52 -269.5t-142 -223.5t-217 -151t-271 -56zM1247 709q0 160 -67 291.5t-191 208.5t-282 77q-47 0 -72 -0.5t-60 -3 t-52.5 -7t-38.5 -13.5t-30.5 -22.5t-16.5 -33t-7 -45.5v-913q0 -58 17 -87.5t55 -58.5q60 -45 147 -45q17 0 57 2t64 2q113 0 206 57t150.5 150t89 207t31.5 234z" />
<glyph unicode="&#xd1;" horiz-adv-x="1576" d="M2 0zM963 1489q-26 0 -124 9t-124 9q-24 0 -45 -13t-32.5 -29t-22.5 -29t-17 -13q-13 0 -26 10.5t-13 24.5q0 53 61 117.5t117 64.5q26 0 119.5 -11t118.5 -11q31 0 56.5 20t41.5 39.5t25 19.5q15 0 25 -9.5t10 -24.5q0 -48 -57.5 -111t-112.5 -63zM1262 1331 q46 0 107.5 3t127.5 3q59 0 59 -22q0 -30 -67 -41q-75 -13 -101 -36t-28 -75q-4 -98 -4 -1147q0 -51 -43 -51q-24 0 -72.5 34t-93.5 95q-24 33 -337.5 417.5t-391.5 479.5q-26 33 -43 33q-19 0 -19 -43q-10 -508 -10 -768q0 -141 131 -164q68 -12 68 -37q0 -22 -60 -22 t-109 5t-83 5q-32 0 -79.5 -5t-107.5 -5q-59 0 -59 22q0 25 68 37q27 5 50.5 28t37 52.5t21 52.5t9.5 37q37 317 37 819q0 101 -49.5 150t-152.5 82q-10 3 -22.5 8.5t-27 17.5t-14.5 23q0 29 47 29q67 -2 151 -6.5t165 -4.5q12 0 22 -6t13 -10t14 -18q27 -37 385 -488.5 t395 -495.5q33 -40 51 -40t21 43q4 132 4 655v178q-1 37 -41.5 71.5t-77.5 41.5q-68 12 -68 41q0 22 60 22h117z" />
<glyph unicode="&#xd2;" horiz-adv-x="1562" d="M45 0zM850 1427q-13 0 -37 19q-165 122 -266 209q-27 24 -27 39q0 19 44.5 33t74.5 14q36 0 55 -27q93 -136 158 -244q10 -17 10 -30t-12 -13zM768 1280q-88 0 -165.5 -31t-133.5 -84.5t-97 -125t-61 -154t-20 -168.5q0 -175 65.5 -327t185.5 -245.5t267 -93.5 q226 0 344.5 153t118.5 421q0 196 -57 342.5t-171.5 229.5t-275.5 83zM92 655q0 112 29 215.5t88 193t142.5 155.5t198.5 103.5t249 37.5q133 0 255 -49.5t214 -136t147 -214t55 -274.5q0 -140 -45.5 -267.5t-129.5 -228t-217 -160t-296 -59.5q-134 0 -260 53t-221 142.5 t-152 218t-57 270.5z" />
<glyph unicode="&#xd3;" horiz-adv-x="1562" d="M45 0zM719 1427q-13 0 -13 13q0 12 11 30q71 120 157 244q19 27 56 27q30 0 74 -14t44 -33q0 -16 -26 -39q-95 -81 -267 -209q-24 -19 -36 -19zM768 1280q-88 0 -165.5 -31t-133.5 -84.5t-97 -125t-61 -154t-20 -168.5q0 -175 65.5 -327t185.5 -245.5t267 -93.5 q226 0 344.5 153t118.5 421q0 196 -57 342.5t-171.5 229.5t-275.5 83zM92 655q0 112 29 215.5t88 193t142.5 155.5t198.5 103.5t249 37.5q133 0 255 -49.5t214 -136t147 -214t55 -274.5q0 -140 -45.5 -267.5t-129.5 -228t-217 -160t-296 -59.5q-134 0 -260 53t-221 142.5 t-152 218t-57 270.5z" />
<glyph unicode="&#xd4;" horiz-adv-x="1562" d="M45 0zM516 1436q-31 0 -31 20q0 13 15 25l200 180q31 28 46.5 36.5t37.5 8.5t37.5 -8.5t46.5 -36.5l201 -180q12 -10 12 -25q0 -22 -28 -22q-18 0 -109.5 43t-138.5 71q-13 7 -20.5 7t-20.5 -7q-46 -27 -137.5 -69.5t-110.5 -42.5zM768 1280q-88 0 -165.5 -31 t-133.5 -84.5t-97 -125t-61 -154t-20 -168.5q0 -175 65.5 -327t185.5 -245.5t267 -93.5q226 0 344.5 153t118.5 421q0 196 -57 342.5t-171.5 229.5t-275.5 83zM92 655q0 112 29 215.5t88 193t142.5 155.5t198.5 103.5t249 37.5q133 0 255 -49.5t214 -136t147 -214t55 -274.5 q0 -140 -45.5 -267.5t-129.5 -228t-217 -160t-296 -59.5q-134 0 -260 53t-221 142.5t-152 218t-57 270.5z" />
<glyph unicode="&#xd5;" horiz-adv-x="1562" d="M45 0zM906 1489q-26 0 -124 9t-124 9q-24 0 -45 -13t-32.5 -29t-22.5 -29t-17 -13q-13 0 -26 10.5t-13 24.5q0 53 61 117.5t117 64.5q26 0 119.5 -11t118.5 -11q31 0 56.5 20t41.5 39.5t25 19.5q15 0 25 -9.5t10 -24.5q0 -48 -57.5 -111t-112.5 -63zM768 1280 q-88 0 -165.5 -31t-133.5 -84.5t-97 -125t-61 -154t-20 -168.5q0 -175 65.5 -327t185.5 -245.5t267 -93.5q226 0 344.5 153t118.5 421q0 196 -57 342.5t-171.5 229.5t-275.5 83zM92 655q0 112 29 215.5t88 193t142.5 155.5t198.5 103.5t249 37.5q133 0 255 -49.5t214 -136 t147 -214t55 -274.5q0 -140 -45.5 -267.5t-129.5 -228t-217 -160t-296 -59.5q-134 0 -260 53t-221 142.5t-152 218t-57 270.5z" />
<glyph unicode="&#xd6;" horiz-adv-x="1562" d="M45 0zM983 1638q43 0 72.5 -29.5t29.5 -72.5t-29.5 -72.5t-72.5 -29.5t-72.5 29.5t-29.5 72.5t29.5 72.5t72.5 29.5zM584 1638q43 0 72.5 -29.5t29.5 -72.5t-29.5 -72.5t-72.5 -29.5t-73 29.5t-30 72.5t30 72.5t73 29.5zM768 1280q-88 0 -165.5 -31t-133.5 -84.5 t-97 -125t-61 -154t-20 -168.5q0 -175 65.5 -327t185.5 -245.5t267 -93.5q226 0 344.5 153t118.5 421q0 196 -57 342.5t-171.5 229.5t-275.5 83zM92 655q0 112 29 215.5t88 193t142.5 155.5t198.5 103.5t249 37.5q133 0 255 -49.5t214 -136t147 -214t55 -274.5 q0 -140 -45.5 -267.5t-129.5 -228t-217 -160t-296 -59.5q-134 0 -260 53t-221 142.5t-152 218t-57 270.5z" />
<glyph unicode="&#xd7;" horiz-adv-x="1228" d="M594 612q8 -8 12 -4l2 2l295 293q8 9 20.5 9t18.5 -9q3 -6 12.5 -23t13 -25t7.5 -21.5t0.5 -23.5t-12.5 -19l-269 -269q-5 -5 0 -10l293 -293q20 -20 2.5 -53.5t-37.5 -50.5q-6 -6 -18 -5.5t-19 7.5l-305 307q-7 7 -14 0l-293 -293q-7 -7 -19 -7.5t-18 5.5 q-5 5 -11.5 12.5t-15 20.5t-13.5 24.5t-4.5 24.5t9.5 22l275 275q9 9 -2 20l-248 248q-10 14 -10.5 29.5t7.5 35t14.5 31t11.5 17.5q7 7 19 7t19 -7z" />
<glyph unicode="&#xd8;" horiz-adv-x="1583" d="M778 1280q-88 0 -165.5 -31t-133.5 -84.5t-97 -125t-61 -154t-20 -168.5q0 -214 96 -389l766 755q-132 197 -385 197zM102 655q0 111 28.5 214t86 191t139 154t194 104.5t243.5 41.5q133 3 256.5 -42.5t218.5 -131.5l164 162q10 11 27.5 7.5t21.5 -16.5q15 -44 -8 -67 l-148 -148q156 -184 156 -438q0 -140 -45.5 -267.5t-129.5 -228t-217 -160t-296 -59.5q-124 0 -241 44.5t-212 125.5l-164 -164q-13 -13 -40 -0.5t-34 23.5q-11 23 19 53l153 152q-172 193 -172 450zM1206 1008l-757 -758q71 -94 166 -146.5t204 -52.5q226 0 344.5 153 t118.5 421q0 228 -76 383z" />
<glyph unicode="&#xd9;" horiz-adv-x="1511" d="M24 0zM864 1427q-13 0 -37 19q-165 122 -266 209q-27 24 -27 39q0 19 44.5 33t74.5 14q36 0 55 -27q93 -136 158 -244q10 -17 10 -30t-12 -13zM1321 1120q-6 -106 -10 -205.5t-6.5 -221t-4.5 -173.5q-8 -238 -154.5 -393.5t-367.5 -155.5q-116 0 -210 33.5t-160 94 t-110.5 146.5t-65.5 189.5t-21 224.5v461q0 67 -27 103t-67 47q-68 17 -68 45q0 22 60 22q29 0 92.5 -3t103.5 -3q34 0 89.5 2t74.5 2q59 0 59 -22q0 -13 -15 -21t-52 -20q-29 -9 -57.5 -50.5t-28.5 -97.5v-522q0 -136 55 -256t160 -196t235 -76q189 0 288 146.5t99 393.5 q0 117 -8 433q-2 85 -23 148.5t-61 74.5q-67 18 -67 41q0 22 59 22q31 0 78 -1t76 -1q35 0 90 3t76 3q59 0 59 -22q0 -27 -68 -41q-95 -19 -102 -154z" />
<glyph unicode="&#xda;" horiz-adv-x="1511" d="M24 0zM734 1427q-13 0 -13 13q0 12 11 30q71 120 157 244q19 27 56 27q30 0 74 -14t44 -33q0 -16 -26 -39q-95 -81 -267 -209q-24 -19 -36 -19zM1321 1120q-6 -106 -10 -205.5t-6.5 -221t-4.5 -173.5q-8 -238 -154.5 -393.5t-367.5 -155.5q-116 0 -210 33.5t-160 94 t-110.5 146.5t-65.5 189.5t-21 224.5v461q0 67 -27 103t-67 47q-68 17 -68 45q0 22 60 22q29 0 92.5 -3t103.5 -3q34 0 89.5 2t74.5 2q59 0 59 -22q0 -13 -15 -21t-52 -20q-29 -9 -57.5 -50.5t-28.5 -97.5v-522q0 -136 55 -256t160 -196t235 -76q189 0 288 146.5t99 393.5 q0 117 -8 433q-2 85 -23 148.5t-61 74.5q-67 18 -67 41q0 22 59 22q31 0 78 -1t76 -1q35 0 90 3t76 3q59 0 59 -22q0 -27 -68 -41q-95 -19 -102 -154z" />
<glyph unicode="&#xdb;" horiz-adv-x="1511" d="M24 0zM530 1436q-31 0 -31 20q0 13 15 25l200 180q31 28 46.5 36.5t37.5 8.5t37.5 -8.5t46.5 -36.5l201 -180q12 -10 12 -25q0 -22 -28 -22q-18 0 -109.5 43t-138.5 71q-13 7 -20.5 7t-20.5 -7q-46 -27 -137.5 -69.5t-110.5 -42.5zM1321 1120q-6 -106 -10 -205.5 t-6.5 -221t-4.5 -173.5q-8 -238 -154.5 -393.5t-367.5 -155.5q-116 0 -210 33.5t-160 94t-110.5 146.5t-65.5 189.5t-21 224.5v461q0 67 -27 103t-67 47q-68 17 -68 45q0 22 60 22q29 0 92.5 -3t103.5 -3q34 0 89.5 2t74.5 2q59 0 59 -22q0 -13 -15 -21t-52 -20 q-29 -9 -57.5 -50.5t-28.5 -97.5v-522q0 -136 55 -256t160 -196t235 -76q189 0 288 146.5t99 393.5q0 117 -8 433q-2 85 -23 148.5t-61 74.5q-67 18 -67 41q0 22 59 22q31 0 78 -1t76 -1q35 0 90 3t76 3q59 0 59 -22q0 -27 -68 -41q-95 -19 -102 -154z" />
<glyph unicode="&#xdc;" horiz-adv-x="1511" d="M24 0zM997 1638q43 0 72.5 -29.5t29.5 -72.5t-29.5 -72.5t-72.5 -29.5t-72.5 29.5t-29.5 72.5t29.5 72.5t72.5 29.5zM598 1638q43 0 72.5 -29.5t29.5 -72.5t-29.5 -72.5t-72.5 -29.5t-73 29.5t-30 72.5t30 72.5t73 29.5zM1321 1120q-6 -106 -10 -205.5t-6.5 -221 t-4.5 -173.5q-8 -238 -154.5 -393.5t-367.5 -155.5q-116 0 -210 33.5t-160 94t-110.5 146.5t-65.5 189.5t-21 224.5v461q0 67 -27 103t-67 47q-68 17 -68 45q0 22 60 22q29 0 92.5 -3t103.5 -3q34 0 89.5 2t74.5 2q59 0 59 -22q0 -13 -15 -21t-52 -20q-29 -9 -57.5 -50.5 t-28.5 -97.5v-522q0 -136 55 -256t160 -196t235 -76q189 0 288 146.5t99 393.5q0 117 -8 433q-2 85 -23 148.5t-61 74.5q-67 18 -67 41q0 22 59 22q31 0 78 -1t76 -1q35 0 90 3t76 3q59 0 59 -22q0 -27 -68 -41q-95 -19 -102 -154z" />
<glyph unicode="&#xdd;" horiz-adv-x="1183" d="M0 0zM590 1427q-13 0 -13 13q0 12 11 30q71 120 157 244q19 27 56 27q30 0 74 -14t44 -33q0 -16 -26 -39q-95 -81 -267 -209q-24 -19 -36 -19zM541 221v303q0 58 -52 152l-239 393q-115 182 -182 201q-68 21 -68 45q0 22 59 22q26 0 107.5 -3t132.5 -3q34 0 89.5 2 t74.5 2q59 0 59 -22q0 -26 -67 -41q-34 -9 -50 -19.5t-16 -31.5q0 -25 27 -74l188 -338q26 -45 38 -61.5t20 -16.5q11 0 23.5 15.5t43.5 62.5q74 113 172 285q37 62 37 104q0 59 -84 72q-23 3 -45.5 15.5t-22.5 25.5q0 22 60 22q31 0 77.5 -1t75.5 -1q42 0 109.5 3t87.5 3 q59 0 59 -22q0 -27 -67 -41q-48 -9 -105.5 -70.5t-99.5 -126.5q-121 -185 -227 -368q-36 -63 -43.5 -92t-7.5 -93v-303q0 -69 42 -113.5t119 -58.5q68 -12 68 -37q0 -22 -60 -22q-58 0 -126 5t-113 5q-50 0 -127.5 -5t-134.5 -5q-60 0 -60 22q0 25 68 37q160 28 160 172z " />
<glyph unicode="&#xde;" horiz-adv-x="1144" d="M274 203v921q0 68 -22.5 102.5t-93.5 47.5q-68 12 -68 41q0 22 60 22q59 0 116.5 -3t95.5 -3q46 0 116 3t128 3q60 0 60 -22q0 -29 -68 -41q-82 -14 -121 -47t-39 -103q0 -14 0.5 -22t2.5 -23.5t8 -22t16 -3.5q65 20 180 20q113 0 206.5 -43.5t151.5 -131t58 -204.5 q0 -71 -48 -166.5t-114 -146.5q-80 -61 -219 -88t-223 -12q-7 1 -11 -3t-5.5 -17t-2 -23.5t-0.5 -33.5v-7q0 -119 162 -148q68 -12 68 -37q0 -22 -60 -22q-58 0 -126 5t-113 5q-51 0 -130 -5t-135 -5q-59 0 -59 22q0 25 68 37q81 14 121 49t40 105zM487 338q73 -10 144 4.5 t110 44.5q131 99 131 305q0 125 -74.5 220t-187.5 94q-113 -3 -141 -17q-28 -10 -31 -43q-5 -260 -2 -571q0 -11 18.5 -23t32.5 -14z" />
<glyph unicode="&#xdf;" horiz-adv-x="1052" d="M586 -27q-30 0 -119 19q-9 2 -13 4t-6 7l-2 5q-11 27 -26.5 92t-16.5 101q0 8 8.5 15t20.5 7q3 0 18 -29.5t35 -64.5t58 -64.5t82 -29.5q78 0 115.5 65t37.5 154q0 59 -25 98t-77 70q-70 39 -201 39h-7.5t-10.5 1.5t-7.5 4.5t1.5 8q31 43 68.5 94t48 65t33 46t24.5 34.5 t22 32.5t24.5 38t33.5 53q6 5 5 11.5t-14 10.5q-36 8 -94 8q-74 0 -127.5 -24t-101.5 -80q-50 -58 -67.5 -116.5t-22.5 -151.5q-7 -121 0 -330q2 -60 19.5 -90.5t59.5 -36.5q8 -1 10.5 -11t-0.5 -20t-10 -10q-41 0 -87 2t-76 2q-34 0 -86.5 -2t-85.5 -2q-8 0 -10 10t3 21 t13 14q23 6 35 11t29 16.5t24.5 32t7.5 51.5v303q0 113 38 212t99 160q39 39 121.5 70t167.5 31q83 0 181.5 -18t146.5 -35q7 -2 12.5 -10.5t1.5 -14.5q-4 -5 -18 -23t-28.5 -37t-23.5 -32q-109 -144 -168 -236q-3 -4 -1 -11t8 -7q60 0 108 -12q83 -21 129.5 -82.5 t46.5 -149.5q0 -134 -99 -211.5t-265 -77.5z" />
<glyph unicode="&#xe0;" horiz-adv-x="1124" d="M10 0zM551 1112q-67 73 -154.5 178.5t-87.5 124.5q0 23 29.5 35t71.5 12q15 0 30.5 -11t24.5 -26q46 -80 106 -195.5t60 -135.5q0 -15 -3 -21t-16 -6q-21 0 -61 45zM1040 55q47 -10 47 -37q0 -11 -13.5 -17.5t-26.5 -6.5q-41 0 -93.5 5t-87.5 5t-94 -5t-100 -5 q-13 0 -27 6.5t-14 17.5q0 25 47 37q36 9 48.5 13.5t22 16.5t9.5 34q0 29 -45 151q-3 9 -10.5 12t-28.5 3h-299q-22 0 -33 -25q-6 -16 -15 -37.5t-12.5 -30.5t-7.5 -21t-5 -20t-1 -18q0 -36 19 -51.5t57 -26.5q47 -16 47 -37q0 -11 -14 -17.5t-27 -6.5q-41 0 -86 5t-80 5 t-75 -5t-81 -5q-13 0 -27 6.5t-14 17.5q0 25 48 35q29 6 38.5 8.5t32 12t34.5 22t28.5 36t31.5 56.5l238 549q13 30 17.5 54.5t5 35.5t2.5 13q37 35 79 84q21 24 33 24q8 0 15 -18l276 -711q13 -34 22.5 -54.5t26.5 -46.5t40 -41.5t52 -21.5zM526 690q-61 -150 -135 -311 q-6 -13 0.5 -17t26.5 -4h237q16 0 18.5 3t-1.5 18q-6 24 -29.5 86t-51.5 133t-36 92q-6 16 -10.5 20.5t-8.5 0t-10 -20.5z" />
<glyph unicode="&#xe1;" horiz-adv-x="1124" d="M10 0zM580 1112q-40 -45 -62 -45q-12 0 -15 5.5t-3 21.5q0 20 60 135.5t106 195.5q9 15 24.5 26t30.5 11q42 0 71 -12t29 -35q0 -19 -87.5 -125.5t-153.5 -177.5zM1040 55q47 -10 47 -37q0 -11 -13.5 -17.5t-26.5 -6.5q-41 0 -93.5 5t-87.5 5t-94 -5t-100 -5 q-13 0 -27 6.5t-14 17.5q0 25 47 37q36 9 48.5 13.5t22 16.5t9.5 34q0 29 -45 151q-3 9 -10.5 12t-28.5 3h-299q-22 0 -33 -25q-6 -16 -15 -37.5t-12.5 -30.5t-7.5 -21t-5 -20t-1 -18q0 -36 19 -51.5t57 -26.5q47 -16 47 -37q0 -11 -14 -17.5t-27 -6.5q-41 0 -86 5t-80 5 t-75 -5t-81 -5q-13 0 -27 6.5t-14 17.5q0 25 48 35q29 6 38.5 8.5t32 12t34.5 22t28.5 36t31.5 56.5l238 549q13 30 17.5 54.5t5 35.5t2.5 13q37 35 79 84q21 24 33 24q8 0 15 -18l276 -711q13 -34 22.5 -54.5t26.5 -46.5t40 -41.5t52 -21.5zM526 690q-61 -150 -135 -311 q-6 -13 0.5 -17t26.5 -4h237q16 0 18.5 3t-1.5 18q-6 24 -29.5 86t-51.5 133t-36 92q-6 16 -10.5 20.5t-8.5 0t-10 -20.5z" />
<glyph unicode="&#xe2;" horiz-adv-x="1124" d="M10 0zM559 1266q-50 -60 -135 -172q-12 -16 -31 -31t-30 -15q-9 0 -13 3.5t-5 8.5t-1 15q0 20 68 147t113 201q21 37 41 37t41 -37q46 -76 114 -202t68 -146q0 -15 -3 -21t-16 -6q-11 0 -30.5 15t-30.5 31q-52 69 -135 172q-7 10 -15 0zM1040 55q47 -10 47 -37 q0 -11 -13.5 -17.5t-26.5 -6.5q-41 0 -93.5 5t-87.5 5t-94 -5t-100 -5q-13 0 -27 6.5t-14 17.5q0 25 47 37q36 9 48.5 13.5t22 16.5t9.5 34q0 29 -45 151q-3 9 -10.5 12t-28.5 3h-299q-22 0 -33 -25q-6 -16 -15 -37.5t-12.5 -30.5t-7.5 -21t-5 -20t-1 -18q0 -36 19 -51.5 t57 -26.5q47 -16 47 -37q0 -11 -14 -17.5t-27 -6.5q-41 0 -86 5t-80 5t-75 -5t-81 -5q-13 0 -27 6.5t-14 17.5q0 25 48 35q29 6 38.5 8.5t32 12t34.5 22t28.5 36t31.5 56.5l238 549q13 30 17.5 54.5t5 35.5t2.5 13q37 35 79 84q21 24 33 24q8 0 15 -18l276 -711 q13 -34 22.5 -54.5t26.5 -46.5t40 -41.5t52 -21.5zM526 690q-61 -150 -135 -311q-6 -13 0.5 -17t26.5 -4h237q16 0 18.5 3t-1.5 18q-6 24 -29.5 86t-51.5 133t-36 92q-6 16 -10.5 20.5t-8.5 0t-10 -20.5z" />
<glyph unicode="&#xe3;" horiz-adv-x="1124" d="M10 0zM336 1096q-14 0 -21.5 12t-7.5 29q0 19 73 95.5t107 76.5q25 0 110 -8.5t110 -8.5q32 0 57 17.5t39.5 35t19.5 17.5q15 0 24 -10t9 -25q0 -19 -70 -94.5t-104 -75.5q-26 0 -114.5 7.5t-114.5 7.5q-22 0 -48 -19t-44.5 -38t-24.5 -19zM1040 55q47 -10 47 -37 q0 -11 -13.5 -17.5t-26.5 -6.5q-41 0 -93.5 5t-87.5 5t-94 -5t-100 -5q-13 0 -27 6.5t-14 17.5q0 25 47 37q36 9 48.5 13.5t22 16.5t9.5 34q0 29 -45 151q-3 9 -10.5 12t-28.5 3h-299q-22 0 -33 -25q-6 -16 -15 -37.5t-12.5 -30.5t-7.5 -21t-5 -20t-1 -18q0 -36 19 -51.5 t57 -26.5q47 -16 47 -37q0 -11 -14 -17.5t-27 -6.5q-41 0 -86 5t-80 5t-75 -5t-81 -5q-13 0 -27 6.5t-14 17.5q0 25 48 35q29 6 38.5 8.5t32 12t34.5 22t28.5 36t31.5 56.5l238 549q13 30 17.5 54.5t5 35.5t2.5 13q37 35 79 84q21 24 33 24q8 0 15 -18l276 -711 q13 -34 22.5 -54.5t26.5 -46.5t40 -41.5t52 -21.5zM526 690q-61 -150 -135 -311q-6 -13 0.5 -17t26.5 -4h237q16 0 18.5 3t-1.5 18q-6 24 -29.5 86t-51.5 133t-36 92q-6 16 -10.5 20.5t-8.5 0t-10 -20.5z" />
<glyph unicode="&#xe4;" horiz-adv-x="1124" d="M10 0zM756 1348q38 0 70 -32.5t32 -70.5t-32 -70t-70 -32t-70.5 32t-32.5 70t32.5 70.5t70.5 32.5zM393 1348q38 0 70 -32.5t32 -70.5t-32 -70t-70 -32t-70 32t-32 70t32 70.5t70 32.5zM1040 55q47 -10 47 -37q0 -11 -13.5 -17.5t-26.5 -6.5q-41 0 -93.5 5t-87.5 5 t-94 -5t-100 -5q-13 0 -27 6.5t-14 17.5q0 25 47 37q36 9 48.5 13.5t22 16.5t9.5 34q0 29 -45 151q-3 9 -10.5 12t-28.5 3h-299q-22 0 -33 -25q-6 -16 -15 -37.5t-12.5 -30.5t-7.5 -21t-5 -20t-1 -18q0 -36 19 -51.5t57 -26.5q47 -16 47 -37q0 -11 -14 -17.5t-27 -6.5 q-41 0 -86 5t-80 5t-75 -5t-81 -5q-13 0 -27 6.5t-14 17.5q0 25 48 35q29 6 38.5 8.5t32 12t34.5 22t28.5 36t31.5 56.5l238 549q13 30 17.5 54.5t5 35.5t2.5 13q37 35 79 84q21 24 33 24q8 0 15 -18l276 -711q13 -34 22.5 -54.5t26.5 -46.5t40 -41.5t52 -21.5zM526 690 q-61 -150 -135 -311q-6 -13 0.5 -17t26.5 -4h237q16 0 18.5 3t-1.5 18q-6 24 -29.5 86t-51.5 133t-36 92q-6 16 -10.5 20.5t-8.5 0t-10 -20.5z" />
<glyph unicode="&#xe5;" horiz-adv-x="1124" d="M10 0zM574 1458q68 0 116.5 -46.5t48.5 -113.5q0 -77 -54 -129.5t-124 -52.5q-67 0 -116.5 51t-49.5 119q0 67 55.5 119.5t123.5 52.5zM479 1296q0 -52 27.5 -89.5t69.5 -37.5q79 0 79 115q0 45 -29.5 82t-70.5 37q-76 0 -76 -107zM1040 55q47 -10 47 -37 q0 -11 -13.5 -17.5t-26.5 -6.5q-41 0 -93.5 5t-87.5 5t-94 -5t-100 -5q-13 0 -27 6.5t-14 17.5q0 25 47 37q36 9 48.5 13.5t22 16.5t9.5 34q0 29 -45 151q-3 9 -10.5 12t-28.5 3h-299q-22 0 -33 -25q-6 -16 -15 -37.5t-12.5 -30.5t-7.5 -21t-5 -20t-1 -18q0 -36 19 -51.5 t57 -26.5q47 -16 47 -37q0 -11 -14 -17.5t-27 -6.5q-41 0 -86 5t-80 5t-75 -5t-81 -5q-13 0 -27 6.5t-14 17.5q0 25 48 35q29 6 38.5 8.5t32 12t34.5 22t28.5 36t31.5 56.5l238 549q13 30 17.5 54.5t5 35.5t2.5 13q37 35 79 84q21 24 33 24q8 0 15 -18l276 -711 q13 -34 22.5 -54.5t26.5 -46.5t40 -41.5t52 -21.5zM526 690q-61 -150 -135 -311q-6 -13 0.5 -17t26.5 -4h237q16 0 18.5 3t-1.5 18q-6 24 -29.5 86t-51.5 133t-36 92q-6 16 -10.5 20.5t-8.5 0t-10 -20.5z" />
<glyph unicode="&#xe6;" horiz-adv-x="1318" d="M676 360q0 12 -6.5 18.5t-26.5 6.5h-201q-26 0 -43 -31q-67 -107 -118 -202q-46 -83 79 -111q50 -12 50 -27q0 -16 -43 -16q-7 0 -72.5 2.5t-106.5 1.5q-31 -1 -81.5 -4.5t-71.5 -3.5q-43 0 -43 14q0 13 49 29q36 10 76 46.5t71 86.5q60 98 197.5 316.5t196.5 316.5 q6 7 -2.5 13.5t-22.5 8.5l-127 21q-12 4 -15 15t1.5 20.5t13.5 9.5q24 0 120 -2t155 -2q80 0 201.5 2t201.5 3.5t96 0.5q23 0 25 -12q15 -76 18 -150q0 -12 -20 -12q-26 0 -29 14q-14 44 -33 66q-34 37 -96 37h-186q-12 0 -23.5 -11.5t-13.5 -23.5q-10 -59 -12 -99 q-5 -165 -5 -217q0 -30 15 -30q114 0 149 2q47 4 64 18q13 11 24 33q2 5 13.5 13.5t17.5 8.5q7 0 13 -6t5 -14q-7 -62 0 -186q0 -23 -14 -23q-13 0 -24 11t-13 20q-17 49 -67 53q-59 2 -148 2q-16 0 -26 -8.5t-9 -24.5q0 -5 5 -200q2 -46 24 -76.5t68 -30.5h147q12 0 55.5 8 t55.5 17q22 14 59 86q8 14 31 12q8 -1 13.5 -5t4.5 -11q-10 -87 -24 -138q-4 -22 -21 -22q-99 0 -271.5 4.5t-246.5 3.5q-28 0 -75 -4t-89 -4q-41 0 -41 14q0 16 47 25q57 10 82.5 31.5t24.5 68.5q-2 74 -2 227zM653 784q-28 -47 -99.5 -165t-90.5 -150q-8 -13 -4.5 -16.5 t22.5 -3.5h172q11 0 15 1t6 5t2 14v315q0 25 -4 25q-5 0 -19 -25z" />
<glyph unicode="&#xe7;" horiz-adv-x="1146" d="M60 0zM484 -290q-12 0 -24.5 9t-12.5 22q0 5 11 20l180 229h63l-80 -104q-8 -8 -8 -16t8 -15.5t15 -9.5q53 -23 89 -65t36 -91q0 -58 -29.5 -112t-71 -88.5t-84 -55t-71.5 -20.5q-62 0 -62 84q0 19 9.5 29t17.5 10l33 -12q34 -11 75 -11q39 0 59.5 25.5t20.5 66.5 q0 55 -33 86t-88 31q-15 0 -31.5 -6t-21.5 -6zM692 938q159 0 287 -43q17 -5 26 -69t11 -130q0 -11 -8 -26t-19 -15q-4 0 -7 1t-5.5 4.5t-4.5 6t-4.5 8.5t-4 9.5t-4.5 12t-5 12.5q-37 97 -99.5 131t-188.5 34q-151 0 -255 -114.5t-104 -270.5q0 -116 48 -217.5t138.5 -165 t202.5 -63.5q80 0 161.5 43.5t117.5 116.5q22 45 55 45q14 0 14 -25q0 -13 -29.5 -87.5t-37.5 -88.5q-11 -22 -115 -49t-192 -27q-143 0 -267.5 60.5t-202 173t-77.5 250.5q0 140 82 252.5t211 171.5t276 59z" />
<glyph unicode="&#xe8;" horiz-adv-x="983" d="M30 0zM491 1112q-67 73 -154.5 178.5t-87.5 124.5q0 23 29.5 35t71.5 12q15 0 30.5 -11t24.5 -26q46 -80 106 -195.5t60 -135.5q0 -15 -3 -21t-16 -6q-21 0 -61 45zM309 918q101 0 269 3t204 3q25 0 25 -13q2 -60 11 -120.5t9 -67.5t-5 -17t-11 -10q-9 0 -20 10t-19 27 q-25 58 -49 82.5t-74 24.5h-198q-16 0 -34 -9.5t-18 -27.5v-254q0 -12 7.5 -30.5t15.5 -18.5h162q30 0 45.5 17t29.5 58q13 35 31 35q11 0 19 -10t6 -20q-6 -99 -6 -113q0 -21 3.5 -60t4.5 -53q2 -10 -5 -22.5t-16 -12.5q-8 0 -15 7t-10.5 14.5t-7 17.5t-4.5 11 q-13 46 -65 55q-64 8 -102 8q-93 0 -93 -41v-227q0 -56 11 -70t57 -14h205q59 0 103 34.5t67 84.5q0 1 2.5 6l4 8t4.5 7.5t7.5 6.5t9.5 2q21 0 21 -32q-8 -77 -35 -177q-1 -9 -12.5 -16.5t-22.5 -7.5q-109 0 -282 5t-236 5q-32 -1 -94.5 -6.5t-106.5 -5.5q-13 0 -27 6.5 t-14 17.5q0 24 50 33q64 12 99.5 36t35.5 75v559q0 64 -27.5 98.5t-91.5 44.5q-20 3 -34.5 14t-14.5 25q0 11 14 18t27 7q41 0 98 -5t92 -5z" />
<glyph unicode="&#xe9;" horiz-adv-x="983" d="M30 0zM521 1112q-40 -45 -62 -45q-12 0 -15 5.5t-3 21.5q0 20 60 135.5t106 195.5q9 15 24.5 26t30.5 11q42 0 71 -12t29 -35q0 -19 -87.5 -125.5t-153.5 -177.5zM309 918q101 0 269 3t204 3q25 0 25 -13q2 -60 11 -120.5t9 -67.5t-5 -17t-11 -10q-9 0 -20 10t-19 27 q-25 58 -49 82.5t-74 24.5h-198q-16 0 -34 -9.5t-18 -27.5v-254q0 -12 7.5 -30.5t15.5 -18.5h162q30 0 45.5 17t29.5 58q13 35 31 35q11 0 19 -10t6 -20q-6 -99 -6 -113q0 -21 3.5 -60t4.5 -53q2 -10 -5 -22.5t-16 -12.5q-8 0 -15 7t-10.5 14.5t-7 17.5t-4.5 11 q-13 46 -65 55q-64 8 -102 8q-93 0 -93 -41v-227q0 -56 11 -70t57 -14h205q59 0 103 34.5t67 84.5q0 1 2.5 6l4 8t4.5 7.5t7.5 6.5t9.5 2q21 0 21 -32q-8 -77 -35 -177q-1 -9 -12.5 -16.5t-22.5 -7.5q-109 0 -282 5t-236 5q-32 -1 -94.5 -6.5t-106.5 -5.5q-13 0 -27 6.5 t-14 17.5q0 24 50 33q64 12 99.5 36t35.5 75v559q0 64 -27.5 98.5t-91.5 44.5q-20 3 -34.5 14t-14.5 25q0 11 14 18t27 7q41 0 98 -5t92 -5z" />
<glyph unicode="&#xea;" horiz-adv-x="983" d="M30 0zM499 1266q-50 -60 -135 -172q-12 -16 -31 -31t-30 -15q-9 0 -13 3.5t-5 8.5t-1 15q0 20 68 147t113 201q21 37 41 37t41 -37q46 -76 114 -202t68 -146q0 -15 -3 -21t-16 -6q-11 0 -30.5 15t-30.5 31q-52 69 -135 172q-7 10 -15 0zM309 918q101 0 269 3t204 3 q25 0 25 -13q2 -60 11 -120.5t9 -67.5t-5 -17t-11 -10q-9 0 -20 10t-19 27q-25 58 -49 82.5t-74 24.5h-198q-16 0 -34 -9.5t-18 -27.5v-254q0 -12 7.5 -30.5t15.5 -18.5h162q30 0 45.5 17t29.5 58q13 35 31 35q11 0 19 -10t6 -20q-6 -99 -6 -113q0 -21 3.5 -60t4.5 -53 q2 -10 -5 -22.5t-16 -12.5q-8 0 -15 7t-10.5 14.5t-7 17.5t-4.5 11q-13 46 -65 55q-64 8 -102 8q-93 0 -93 -41v-227q0 -56 11 -70t57 -14h205q59 0 103 34.5t67 84.5q0 1 2.5 6l4 8t4.5 7.5t7.5 6.5t9.5 2q21 0 21 -32q-8 -77 -35 -177q-1 -9 -12.5 -16.5t-22.5 -7.5 q-109 0 -282 5t-236 5q-32 -1 -94.5 -6.5t-106.5 -5.5q-13 0 -27 6.5t-14 17.5q0 24 50 33q64 12 99.5 36t35.5 75v559q0 64 -27.5 98.5t-91.5 44.5q-20 3 -34.5 14t-14.5 25q0 11 14 18t27 7q41 0 98 -5t92 -5z" />
<glyph unicode="&#xeb;" horiz-adv-x="983" d="M30 0zM697 1348q38 0 70 -32.5t32 -70.5t-32 -70t-70 -32t-70.5 32t-32.5 70t32.5 70.5t70.5 32.5zM334 1348q38 0 70 -32.5t32 -70.5t-32 -70t-70 -32t-70 32t-32 70t32 70.5t70 32.5zM309 918q101 0 269 3t204 3q25 0 25 -13q2 -60 11 -120.5t9 -67.5t-5 -17t-11 -10 q-9 0 -20 10t-19 27q-25 58 -49 82.5t-74 24.5h-198q-16 0 -34 -9.5t-18 -27.5v-254q0 -12 7.5 -30.5t15.5 -18.5h162q30 0 45.5 17t29.5 58q13 35 31 35q11 0 19 -10t6 -20q-6 -99 -6 -113q0 -21 3.5 -60t4.5 -53q2 -10 -5 -22.5t-16 -12.5q-8 0 -15 7t-10.5 14.5t-7 17.5 t-4.5 11q-13 46 -65 55q-64 8 -102 8q-93 0 -93 -41v-227q0 -56 11 -70t57 -14h205q59 0 103 34.5t67 84.5q0 1 2.5 6l4 8t4.5 7.5t7.5 6.5t9.5 2q21 0 21 -32q-8 -77 -35 -177q-1 -9 -12.5 -16.5t-22.5 -7.5q-109 0 -282 5t-236 5q-32 -1 -94.5 -6.5t-106.5 -5.5 q-13 0 -27 6.5t-14 17.5q0 24 50 33q64 12 99.5 36t35.5 75v559q0 64 -27.5 98.5t-91.5 44.5q-20 3 -34.5 14t-14.5 25q0 11 14 18t27 7q41 0 98 -5t92 -5z" />
<glyph unicode="&#xec;" horiz-adv-x="645" d="M10 0zM260 1120q-67 73 -154.5 178.5t-87.5 124.5q0 23 29.5 35t71.5 12q15 0 30.5 -11t24.5 -26q46 -80 106 -195.5t60 -135.5q0 -15 -3 -21t-16 -6q-21 0 -61 45zM30 0zM324 6q-44 0 -113.5 -6t-108.5 -6q-13 0 -27 6.5t-14 17.5q0 24 50 33q64 12 99.5 36t35.5 75v559 q0 64 -27.5 98.5t-91.5 44.5q-20 3 -34.5 14t-14.5 25q0 11 14 18t27 7q41 0 105 -5t100 -5q35 0 98 5t104 5q13 0 27 -7t14 -18q0 -14 -14.5 -25t-34.5 -14q-64 -10 -91.5 -44.5t-27.5 -98.5v-559q0 -51 36 -74.5t100 -36.5q49 -9 49 -33q0 -11 -14 -17.5t-27 -6.5 q-39 0 -107 6t-112 6z" />
<glyph unicode="&#xed;" horiz-adv-x="645" d="M30 0zM383 1120q-40 -45 -62 -45q-12 0 -15 5.5t-3 21.5q0 20 60 135.5t106 195.5q9 15 24.5 26t30.5 11q42 0 71 -12t29 -35q0 -19 -87.5 -125.5t-153.5 -177.5zM30 0zM324 6q-44 0 -113.5 -6t-108.5 -6q-13 0 -27 6.5t-14 17.5q0 24 50 33q64 12 99.5 36t35.5 75v559 q0 64 -27.5 98.5t-91.5 44.5q-20 3 -34.5 14t-14.5 25q0 11 14 18t27 7q41 0 105 -5t100 -5q35 0 98 5t104 5q13 0 27 -7t14 -18q0 -14 -14.5 -25t-34.5 -14q-64 -10 -91.5 -44.5t-27.5 -98.5v-559q0 -51 36 -74.5t100 -36.5q49 -9 49 -33q0 -11 -14 -17.5t-27 -6.5 q-39 0 -107 6t-112 6z" />
<glyph unicode="&#xee;" horiz-adv-x="645" d="M30 0zM314 1293q-50 -60 -135 -172q-12 -16 -31 -31t-30 -15q-9 0 -13 3.5t-5 8.5t-1 15q0 20 68 147t113 201q21 37 41 37t41 -37q46 -76 114 -202t68 -146q0 -15 -3 -21t-16 -6q-11 0 -30.5 15t-30.5 31q-52 69 -135 172q-7 10 -15 0zM30 0zM324 6q-44 0 -113.5 -6 t-108.5 -6q-13 0 -27 6.5t-14 17.5q0 24 50 33q64 12 99.5 36t35.5 75v559q0 64 -27.5 98.5t-91.5 44.5q-20 3 -34.5 14t-14.5 25q0 11 14 18t27 7q41 0 105 -5t100 -5q35 0 98 5t104 5q13 0 27 -7t14 -18q0 -14 -14.5 -25t-34.5 -14q-64 -10 -91.5 -44.5t-27.5 -98.5v-559 q0 -51 36 -74.5t100 -36.5q49 -9 49 -33q0 -11 -14 -17.5t-27 -6.5q-39 0 -107 6t-112 6z" />
<glyph unicode="&#xef;" horiz-adv-x="645" d="M23 0zM503 1280q38 0 70 -32.5t32 -70.5t-32 -70t-70 -32t-70.5 32t-32.5 70t32.5 70.5t70.5 32.5zM140 1280q38 0 70 -32.5t32 -70.5t-32 -70t-70 -32t-70 32t-32 70t32 70.5t70 32.5zM30 0zM324 6q-44 0 -113.5 -6t-108.5 -6q-13 0 -27 6.5t-14 17.5q0 24 50 33 q64 12 99.5 36t35.5 75v559q0 64 -27.5 98.5t-91.5 44.5q-20 3 -34.5 14t-14.5 25q0 11 14 18t27 7q41 0 105 -5t100 -5q35 0 98 5t104 5q13 0 27 -7t14 -18q0 -14 -14.5 -25t-34.5 -14q-64 -10 -91.5 -44.5t-27.5 -98.5v-559q0 -51 36 -74.5t100 -36.5q49 -9 49 -33 q0 -11 -14 -17.5t-27 -6.5q-39 0 -107 6t-112 6z" />
<glyph unicode="&#xf0;" horiz-adv-x="1062" d="M371 88q5 -4 10.5 -7t13.5 -5t14.5 -3.5t18 -2.5t19 -1.5t22.5 -0.5h23.5h27h27.5q45 0 81.5 8.5t64 26t42.5 30t35 33.5q92 100 92 330q0 61 -24.5 124.5t-68.5 118t-114 89.5t-151 36q-180 0 -180 -80v-598q0 -39 11 -58.5t36 -39.5zM539 -6q-5 0 -111.5 5.5 t-171.5 6.5q-48 1 -125.5 -2.5t-87.5 -3.5q-7 0 -7 24t7 25q54 14 88 49q37 38 39 84v535q0 81 -18 102q-20 23 -32 29.5t-50 17.5q-6 2 -10.5 15t-2.5 25t11 12q27 0 80.5 -2.5t87.5 -2.5q27 0 136 7.5t126 7.5q132 0 236.5 -36t169.5 -98.5t99 -142t33 -170.5 q-2 -184 -110 -319q-55 -70 -159.5 -119t-227.5 -49z" />
<glyph unicode="&#xf1;" horiz-adv-x="1228" d="M25 0zM432 1096q-14 0 -21.5 12t-7.5 29q0 19 73 95.5t107 76.5q25 0 110 -8.5t110 -8.5q32 0 57 17.5t39.5 35t19.5 17.5q15 0 24 -10t9 -25q0 -19 -70 -94.5t-104 -75.5q-26 0 -114.5 7.5t-114.5 7.5q-22 0 -48 -19t-44.5 -38t-24.5 -19zM1024 719v-676q0 -72 -33 -72 q-42 0 -88 56l-506 623q-13 16 -29 28t-22 12q-14 0 -14 -55q0 -345 10 -473q4 -54 26.5 -77t77.5 -34q50 -9 50 -33q0 -11 -14 -17.5t-27 -6.5q-42 0 -88.5 6t-77.5 6q-34 0 -85.5 -6t-92.5 -6q-13 0 -27 6.5t-14 17.5q0 24 49 33q59 11 86.5 34t32.5 77q3 42 8.5 228.5 t5.5 240.5q0 41 -2.5 69t-11.5 57.5t-25 48.5t-44.5 34.5t-68.5 23.5q-20 4 -34.5 14.5t-14.5 24.5q0 11 14 18t27 7q38 0 126 -4t144 -4q17 0 44 -31l489 -588q20 -27 27 -27q10 0 10 27v418q0 63 -28 99t-91 46q-20 3 -34.5 14t-14.5 25q0 11 14 18t27 7q41 0 90.5 -5 t85.5 -5q35 0 75 5t81 5q13 0 27 -7t14 -18q0 -14 -15 -25t-35 -14q-61 -10 -82.5 -44t-21.5 -101z" />
<glyph unicode="&#xf2;" horiz-adv-x="1261" d="M60 0zM616 1112q-67 73 -154.5 178.5t-87.5 124.5q0 23 29.5 35t71.5 12q15 0 30.5 -11t24.5 -26q46 -80 106 -195.5t60 -135.5q0 -15 -3 -21t-16 -6q-21 0 -61 45zM606 887q-82 0 -142.5 -34.5t-93.5 -94t-48 -127.5t-15 -146q0 -123 37.5 -221t116.5 -158.5t190 -60.5 q68 0 122 26t87 67.5t55 95.5t30.5 106t8.5 104q0 64 -12.5 125.5t-39.5 119.5t-67 101.5t-99 70t-130 26.5zM123 455q0 124 68.5 239t183.5 186.5t243 71.5q135 0 254.5 -63t193 -176.5t73.5 -249.5q0 -96 -35 -184t-99 -157.5t-164.5 -111t-222.5 -41.5q-133 0 -247.5 66 t-181 178t-66.5 242z" />
<glyph unicode="&#xf3;" horiz-adv-x="1261" d="M60 0zM646 1112q-40 -45 -62 -45q-12 0 -15 5.5t-3 21.5q0 20 60 135.5t106 195.5q9 15 24.5 26t30.5 11q42 0 71 -12t29 -35q0 -19 -87.5 -125.5t-153.5 -177.5zM606 887q-82 0 -142.5 -34.5t-93.5 -94t-48 -127.5t-15 -146q0 -123 37.5 -221t116.5 -158.5t190 -60.5 q68 0 122 26t87 67.5t55 95.5t30.5 106t8.5 104q0 64 -12.5 125.5t-39.5 119.5t-67 101.5t-99 70t-130 26.5zM123 455q0 124 68.5 239t183.5 186.5t243 71.5q135 0 254.5 -63t193 -176.5t73.5 -249.5q0 -96 -35 -184t-99 -157.5t-164.5 -111t-222.5 -41.5q-133 0 -247.5 66 t-181 178t-66.5 242z" />
<glyph unicode="&#xf4;" horiz-adv-x="1261" d="M60 0zM624 1266q-50 -60 -135 -172q-12 -16 -31 -31t-30 -15q-9 0 -13 3.5t-5 8.5t-1 15q0 20 68 147t113 201q21 37 41 37t41 -37q46 -76 114 -202t68 -146q0 -15 -3 -21t-16 -6q-11 0 -30.5 15t-30.5 31q-52 69 -135 172q-7 10 -15 0zM606 887q-82 0 -142.5 -34.5 t-93.5 -94t-48 -127.5t-15 -146q0 -123 37.5 -221t116.5 -158.5t190 -60.5q68 0 122 26t87 67.5t55 95.5t30.5 106t8.5 104q0 64 -12.5 125.5t-39.5 119.5t-67 101.5t-99 70t-130 26.5zM123 455q0 124 68.5 239t183.5 186.5t243 71.5q135 0 254.5 -63t193 -176.5 t73.5 -249.5q0 -96 -35 -184t-99 -157.5t-164.5 -111t-222.5 -41.5q-133 0 -247.5 66t-181 178t-66.5 242z" />
<glyph unicode="&#xf5;" horiz-adv-x="1261" d="M60 0zM401 1096q-14 0 -21.5 12t-7.5 29q0 19 73 95.5t107 76.5q25 0 110 -8.5t110 -8.5q32 0 57 17.5t39.5 35t19.5 17.5q15 0 24 -10t9 -25q0 -19 -70 -94.5t-104 -75.5q-26 0 -114.5 7.5t-114.5 7.5q-22 0 -48 -19t-44.5 -38t-24.5 -19zM606 887q-82 0 -142.5 -34.5 t-93.5 -94t-48 -127.5t-15 -146q0 -123 37.5 -221t116.5 -158.5t190 -60.5q68 0 122 26t87 67.5t55 95.5t30.5 106t8.5 104q0 64 -12.5 125.5t-39.5 119.5t-67 101.5t-99 70t-130 26.5zM123 455q0 124 68.5 239t183.5 186.5t243 71.5q135 0 254.5 -63t193 -176.5 t73.5 -249.5q0 -96 -35 -184t-99 -157.5t-164.5 -111t-222.5 -41.5q-133 0 -247.5 66t-181 178t-66.5 242z" />
<glyph unicode="&#xf6;" horiz-adv-x="1261" d="M60 0zM822 1348q38 0 70 -32.5t32 -70.5t-32 -70t-70 -32t-70.5 32t-32.5 70t32.5 70.5t70.5 32.5zM459 1348q38 0 70 -32.5t32 -70.5t-32 -70t-70 -32t-70 32t-32 70t32 70.5t70 32.5zM606 887q-82 0 -142.5 -34.5t-93.5 -94t-48 -127.5t-15 -146q0 -123 37.5 -221 t116.5 -158.5t190 -60.5q68 0 122 26t87 67.5t55 95.5t30.5 106t8.5 104q0 64 -12.5 125.5t-39.5 119.5t-67 101.5t-99 70t-130 26.5zM123 455q0 124 68.5 239t183.5 186.5t243 71.5q135 0 254.5 -63t193 -176.5t73.5 -249.5q0 -96 -35 -184t-99 -157.5t-164.5 -111 t-222.5 -41.5q-133 0 -247.5 66t-181 178t-66.5 242z" />
<glyph unicode="&#xf7;" horiz-adv-x="1208" d="M604 330q39 0 66.5 -27.5t27.5 -66.5t-27.5 -67t-66.5 -28t-66.5 28t-27.5 67t27.5 66.5t66.5 27.5zM604 911q38 0 65.5 -28t26.5 -66q-1 -39 -28 -66.5t-66 -27.5t-67 27.5t-27 66.5q1 40 28.5 67t67.5 27zM131 475q-11 0 -20 8t-9 17q0 21 13 49.5t37 28.5h927 q12 0 21.5 -9.5t5.5 -19.5q-9 -25 -14.5 -37t-18.5 -24.5t-31 -12.5h-911z" />
<glyph unicode="&#xf8;" horiz-adv-x="1239" d="M608 868q-66 0 -118.5 -22.5t-86 -59.5t-55 -88.5t-30.5 -106.5t-9 -116q0 -189 89.5 -309.5t254.5 -120.5q68 0 122 25t87.5 65t56 92.5t31 103.5t8.5 103q0 64 -12.5 125t-40 117.5t-67.5 98.5t-99.5 67.5t-130.5 25.5zM135 444q0 124 66 237.5t179 183t241 69.5 q135 0 251.5 -61t187 -172.5t70.5 -247.5q0 -96 -33 -182t-95 -154t-160.5 -108t-220.5 -40q-204 0 -345 138.5t-141 336.5z" />
<glyph unicode="&#xf9;" horiz-adv-x="1228" d="M30 0zM627 1112q-67 73 -154.5 178.5t-87.5 124.5q0 23 29.5 35t71.5 12q15 0 30.5 -11t24.5 -26q46 -80 106 -195.5t60 -135.5q0 -15 -3 -21t-16 -6q-21 0 -61 45zM1016 725v-252q0 -78 -13 -148.5t-44 -135.5t-76.5 -112.5t-115 -75.5t-155.5 -28q-387 0 -387 420v328 q0 64 -26 98.5t-88 44.5q-20 3 -35 14t-15 25q0 11 14 18t27 7q41 0 104 -5t99 -5q35 0 90.5 5t96.5 5q13 0 26.5 -7t13.5 -18q0 -14 -14.5 -25t-34.5 -14q-61 -10 -82.5 -43.5t-21.5 -99.5v-293q0 -186 67.5 -274t208.5 -88q120 0 195.5 82.5t75.5 259.5v313q0 69 -19 101 t-80 42q-20 3 -34.5 14t-14.5 25q0 11 14 18t27 7q41 0 76.5 -5t71.5 -5q35 0 76.5 5t82.5 5q13 0 27 -7t14 -18q0 -14 -14.5 -25t-34.5 -14q-60 -10 -81 -44.5t-21 -94.5z" />
<glyph unicode="&#xfa;" horiz-adv-x="1228" d="M30 0zM656 1112q-40 -45 -62 -45q-12 0 -15 5.5t-3 21.5q0 20 60 135.5t106 195.5q9 15 24.5 26t30.5 11q42 0 71 -12t29 -35q0 -19 -87.5 -125.5t-153.5 -177.5zM1016 725v-252q0 -78 -13 -148.5t-44 -135.5t-76.5 -112.5t-115 -75.5t-155.5 -28q-387 0 -387 420v328 q0 64 -26 98.5t-88 44.5q-20 3 -35 14t-15 25q0 11 14 18t27 7q41 0 104 -5t99 -5q35 0 90.5 5t96.5 5q13 0 26.5 -7t13.5 -18q0 -14 -14.5 -25t-34.5 -14q-61 -10 -82.5 -43.5t-21.5 -99.5v-293q0 -186 67.5 -274t208.5 -88q120 0 195.5 82.5t75.5 259.5v313q0 69 -19 101 t-80 42q-20 3 -34.5 14t-14.5 25q0 11 14 18t27 7q41 0 76.5 -5t71.5 -5q35 0 76.5 5t82.5 5q13 0 27 -7t14 -18q0 -14 -14.5 -25t-34.5 -14q-60 -10 -81 -44.5t-21 -94.5z" />
<glyph unicode="&#xfb;" horiz-adv-x="1228" d="M30 0zM634 1266q-50 -60 -135 -172q-12 -16 -31 -31t-30 -15q-9 0 -13 3.5t-5 8.5t-1 15q0 20 68 147t113 201q21 37 41 37t41 -37q46 -76 114 -202t68 -146q0 -15 -3 -21t-16 -6q-11 0 -30.5 15t-30.5 31q-52 69 -135 172q-7 10 -15 0zM1016 725v-252q0 -78 -13 -148.5 t-44 -135.5t-76.5 -112.5t-115 -75.5t-155.5 -28q-387 0 -387 420v328q0 64 -26 98.5t-88 44.5q-20 3 -35 14t-15 25q0 11 14 18t27 7q41 0 104 -5t99 -5q35 0 90.5 5t96.5 5q13 0 26.5 -7t13.5 -18q0 -14 -14.5 -25t-34.5 -14q-61 -10 -82.5 -43.5t-21.5 -99.5v-293 q0 -186 67.5 -274t208.5 -88q120 0 195.5 82.5t75.5 259.5v313q0 69 -19 101t-80 42q-20 3 -34.5 14t-14.5 25q0 11 14 18t27 7q41 0 76.5 -5t71.5 -5q35 0 76.5 5t82.5 5q13 0 27 -7t14 -18q0 -14 -14.5 -25t-34.5 -14q-60 -10 -81 -44.5t-21 -94.5z" />
<glyph unicode="&#xfc;" horiz-adv-x="1228" d="M30 0zM832 1348q38 0 70 -32.5t32 -70.5t-32 -70t-70 -32t-70.5 32t-32.5 70t32.5 70.5t70.5 32.5zM469 1348q38 0 70 -32.5t32 -70.5t-32 -70t-70 -32t-70 32t-32 70t32 70.5t70 32.5zM1016 725v-252q0 -78 -13 -148.5t-44 -135.5t-76.5 -112.5t-115 -75.5t-155.5 -28 q-387 0 -387 420v328q0 64 -26 98.5t-88 44.5q-20 3 -35 14t-15 25q0 11 14 18t27 7q41 0 104 -5t99 -5q35 0 90.5 5t96.5 5q13 0 26.5 -7t13.5 -18q0 -14 -14.5 -25t-34.5 -14q-61 -10 -82.5 -43.5t-21.5 -99.5v-293q0 -186 67.5 -274t208.5 -88q120 0 195.5 82.5 t75.5 259.5v313q0 69 -19 101t-80 42q-20 3 -34.5 14t-14.5 25q0 11 14 18t27 7q41 0 76.5 -5t71.5 -5q35 0 76.5 5t82.5 5q13 0 27 -7t14 -18q0 -14 -14.5 -25t-34.5 -14q-60 -10 -81 -44.5t-21 -94.5z" />
<glyph unicode="&#xfd;" horiz-adv-x="1044" d="M4 0zM560 1112q-40 -45 -62 -45q-12 0 -15 5.5t-3 21.5q0 20 60 135.5t106 195.5q9 15 24.5 26t30.5 11q42 0 71 -12t29 -35q0 -19 -87.5 -125.5t-153.5 -177.5zM432 162v133q0 38 -7.5 71t-16.5 44l-179 303q-45 77 -74.5 102t-97.5 47q-49 16 -49 39q0 11 14 18t27 7 q41 0 93.5 -5.5t88.5 -5.5q35 0 90.5 5.5t96.5 5.5q13 0 27 -7t14 -18q0 -14 -15.5 -25t-33.5 -14t-27.5 -5.5t-22.5 -8t-18 -12.5t-4.5 -19.5t10.5 -28.5l189 -317q5 -9 8 -12t6 0t8 12l166 317q24 46 -41 76q-3 1 -10 4.5t-10.5 5t-9 4t-8 5t-5.5 6t-4.5 7t-1.5 7.5 q0 11 14 18t27 7q41 0 76 -5t71 -5q35 0 77 5t83 5q13 0 27 -7t14 -18q0 -27 -49 -39q-50 -13 -64.5 -17.5t-42.5 -17t-43 -28.5t-32 -43l-142 -254q-24 -43 -34.5 -63t-20.5 -48t-10 -49v-182q0 -51 35.5 -75t99.5 -36q49 -9 49 -33q0 -11 -14 -17.5t-27 -6.5q-39 0 -107 6 t-112 6t-113 -6t-108 -6q-13 0 -27 6.5t-14 17.5q0 24 49 33q64 12 99.5 36t35.5 75z" />
<glyph unicode="&#xfe;" horiz-adv-x="1144" d="M22 0zM274 203v921q0 68 -22.5 102.5t-93.5 47.5q-68 12 -68 41q0 22 60 22q59 0 116.5 -3t95.5 -3q46 0 116 3t128 3q60 0 60 -22q0 -29 -68 -41q-82 -14 -121 -47t-39 -103q0 -14 0.5 -22t2.5 -23.5t8 -22t16 -3.5q65 20 180 20q113 0 206.5 -43.5t151.5 -131 t58 -204.5q0 -71 -48 -166.5t-114 -146.5q-80 -61 -219 -88t-223 -12q-7 1 -11 -3t-5.5 -17t-2 -23.5t-0.5 -33.5v-7q0 -119 162 -148q68 -12 68 -37q0 -22 -60 -22q-58 0 -126 5t-113 5q-51 0 -130 -5t-135 -5q-59 0 -59 22q0 25 68 37q81 14 121 49t40 105zM487 338 q73 -10 144 4.5t110 44.5q131 99 131 305q0 125 -74.5 220t-187.5 94q-113 -3 -141 -17q-28 -10 -31 -43q-5 -260 -2 -571q0 -11 18.5 -23t32.5 -14z" />
<glyph unicode="&#xff;" horiz-adv-x="1044" d="M4 0zM736 1348q38 0 70 -32.5t32 -70.5t-32 -70t-70 -32t-70.5 32t-32.5 70t32.5 70.5t70.5 32.5zM373 1348q38 0 70 -32.5t32 -70.5t-32 -70t-70 -32t-70 32t-32 70t32 70.5t70 32.5zM432 162v133q0 38 -7.5 71t-16.5 44l-179 303q-45 77 -74.5 102t-97.5 47 q-49 16 -49 39q0 11 14 18t27 7q41 0 93.5 -5.5t88.5 -5.5q35 0 90.5 5.5t96.5 5.5q13 0 27 -7t14 -18q0 -14 -15.5 -25t-33.5 -14t-27.5 -5.5t-22.5 -8t-18 -12.5t-4.5 -19.5t10.5 -28.5l189 -317q5 -9 8 -12t6 0t8 12l166 317q24 46 -41 76q-3 1 -10 4.5t-10.5 5t-9 4 t-8 5t-5.5 6t-4.5 7t-1.5 7.5q0 11 14 18t27 7q41 0 76 -5t71 -5q35 0 77 5t83 5q13 0 27 -7t14 -18q0 -27 -49 -39q-50 -13 -64.5 -17.5t-42.5 -17t-43 -28.5t-32 -43l-142 -254q-24 -43 -34.5 -63t-20.5 -48t-10 -49v-182q0 -51 35.5 -75t99.5 -36q49 -9 49 -33 q0 -11 -14 -17.5t-27 -6.5q-39 0 -107 6t-112 6t-113 -6t-108 -6q-13 0 -27 6.5t-14 17.5q0 24 49 33q64 12 99.5 36t35.5 75z" />
<glyph unicode="&#x100;" horiz-adv-x="1400" d="M0 0zM485 1591h539q9 0 18 -7.5t9 -16.5q0 -31 -20 -58.5t-44 -27.5h-522q-11 0 -20 7.5t-9 16.5q0 24 12 55t37 31zM1368 -10q-24 0 -129.5 6t-155.5 6q-44 0 -112.5 -1t-89.5 -1q-60 0 -60 23q0 22 68 40q59 14 81.5 36t22.5 57q0 13 -8 59q-33 164 -59 262 q-4 15 -15 19t-43 4h-391q-15 0 -22 -7.5t-13 -29.5l-77 -254q-5 -12 -5 -31q0 -43 33.5 -73.5t85.5 -43.5q68 -17 68 -41q0 -22 -60 -22q-14 0 -78.5 2t-107.5 2q-48 0 -131.5 -6t-114.5 -6q-59 0 -59 26t67 47q59 17 102.5 52t74.5 106q196 444 383 963q19 57 20 61 q3 10 4 24.5t1.5 23.5t2.5 10q54 17 74 30q12 8 21 21t13.5 21.5t8.5 8.5q11 0 20 -28q154 -488 365 -1094q39 -112 86.5 -152.5t120.5 -52.5q33 -6 50 -19t17 -28q0 -20 -59 -20zM682 1110l-184 -492q-4 -12 -4 -14q0 -16 43 -16h317h13t8.5 1t6 3t1.5 6t-4 20l-162 490 q-12 37 -19 37q-4 0 -16 -35z" />
<glyph unicode="&#x101;" horiz-adv-x="1124" d="M10 0zM369 1270h416q9 0 17.5 -7.5t8.5 -16.5q0 -37 -16.5 -62.5t-46.5 -25.5h-399q-11 0 -20 7.5t-9 16.5q0 24 12 56t37 32zM1040 55q47 -10 47 -37q0 -11 -13.5 -17.5t-26.5 -6.5q-41 0 -93.5 5t-87.5 5t-94 -5t-100 -5q-13 0 -27 6.5t-14 17.5q0 25 47 37 q36 9 48.5 13.5t22 16.5t9.5 34q0 29 -45 151q-3 9 -10.5 12t-28.5 3h-299q-22 0 -33 -25q-6 -16 -15 -37.5t-12.5 -30.5t-7.5 -21t-5 -20t-1 -18q0 -36 19 -51.5t57 -26.5q47 -16 47 -37q0 -11 -14 -17.5t-27 -6.5q-41 0 -86 5t-80 5t-75 -5t-81 -5q-13 0 -27 6.5t-14 17.5 q0 25 48 35q29 6 38.5 8.5t32 12t34.5 22t28.5 36t31.5 56.5l238 549q13 30 17.5 54.5t5 35.5t2.5 13q37 35 79 84q21 24 33 24q8 0 15 -18l276 -711q13 -34 22.5 -54.5t26.5 -46.5t40 -41.5t52 -21.5zM526 690q-61 -150 -135 -311q-6 -13 0.5 -17t26.5 -4h237q16 0 18.5 3 t-1.5 18q-6 24 -29.5 86t-51.5 133t-36 92q-6 16 -10.5 20.5t-8.5 0t-10 -20.5z" />
<glyph unicode="&#x102;" horiz-adv-x="1400" d="M0 0zM502 1690q16 -28 41.5 -54t79.5 -50.5t120 -24.5q95 0 155.5 41t86.5 88q24 43 45 43q14 0 17.5 -12.5t3.5 -37.5q0 -100 -93.5 -183t-214.5 -83q-125 0 -216 76.5t-91 189.5q0 25 3.5 37.5t17.5 12.5q21 0 45 -43zM1368 -10q-24 0 -129.5 6t-155.5 6 q-44 0 -112.5 -1t-89.5 -1q-60 0 -60 23q0 22 68 40q59 14 81.5 36t22.5 57q0 13 -8 59q-33 164 -59 262q-4 15 -15 19t-43 4h-391q-15 0 -22 -7.5t-13 -29.5l-77 -254q-5 -12 -5 -31q0 -43 33.5 -73.5t85.5 -43.5q68 -17 68 -41q0 -22 -60 -22q-14 0 -78.5 2t-107.5 2 q-48 0 -131.5 -6t-114.5 -6q-59 0 -59 26t67 47q59 17 102.5 52t74.5 106q196 444 383 963q19 57 20 61q3 10 4 24.5t1.5 23.5t2.5 10q54 17 74 30q12 8 21 21t13.5 21.5t8.5 8.5q11 0 20 -28q154 -488 365 -1094q39 -112 86.5 -152.5t120.5 -52.5q33 -6 50 -19t17 -28 q0 -20 -59 -20zM682 1110l-184 -492q-4 -12 -4 -14q0 -16 43 -16h317h13t8.5 1t6 3t1.5 6t-4 20l-162 490q-12 37 -19 37q-4 0 -16 -35z" />
<glyph unicode="&#x103;" horiz-adv-x="1124" d="M10 0zM407 1335q8 -43 47.5 -71.5t110.5 -28.5t110.5 28.5t47.5 71.5q9 43 31 43q30 0 30 -49q0 -84 -59 -150.5t-160 -66.5t-160 66.5t-59 150.5q0 21 8.5 35t22.5 14q21 0 30 -43zM1040 55q47 -10 47 -37q0 -11 -13.5 -17.5t-26.5 -6.5q-41 0 -93.5 5t-87.5 5t-94 -5 t-100 -5q-13 0 -27 6.5t-14 17.5q0 25 47 37q36 9 48.5 13.5t22 16.5t9.5 34q0 29 -45 151q-3 9 -10.5 12t-28.5 3h-299q-22 0 -33 -25q-6 -16 -15 -37.5t-12.5 -30.5t-7.5 -21t-5 -20t-1 -18q0 -36 19 -51.5t57 -26.5q47 -16 47 -37q0 -11 -14 -17.5t-27 -6.5q-41 0 -86 5 t-80 5t-75 -5t-81 -5q-13 0 -27 6.5t-14 17.5q0 25 48 35q29 6 38.5 8.5t32 12t34.5 22t28.5 36t31.5 56.5l238 549q13 30 17.5 54.5t5 35.5t2.5 13q37 35 79 84q21 24 33 24q8 0 15 -18l276 -711q13 -34 22.5 -54.5t26.5 -46.5t40 -41.5t52 -21.5zM526 690 q-61 -150 -135 -311q-6 -13 0.5 -17t26.5 -4h237q16 0 18.5 3t-1.5 18q-6 24 -29.5 86t-51.5 133t-36 92q-6 16 -10.5 20.5t-8.5 0t-10 -20.5z" />
<glyph unicode="&#x104;" horiz-adv-x="1400" d="M0 0zM899 -588q-97 0 -165.5 67.5t-68.5 164.5q0 42 19.5 86.5t50 82t68 73t75 62.5t68 47.5t49.5 30.5l20 11h54q-9 -6 -24.5 -17.5t-55.5 -48t-70 -75.5t-55 -97.5t-25 -115.5q0 -53 40 -89t95 -36q25 0 54.5 11.5t49.5 25t40.5 28.5t23.5 17q7 5 16 1.5t9 -14.5 q0 -66 -92.5 -140.5t-175.5 -74.5zM1368 -10q-24 0 -129.5 6t-155.5 6q-44 0 -112.5 -1t-89.5 -1q-60 0 -60 23q0 22 68 40q59 14 81.5 36t22.5 57q0 13 -8 59q-33 164 -59 262q-4 15 -15 19t-43 4h-391q-15 0 -22 -7.5t-13 -29.5l-77 -254q-5 -12 -5 -31q0 -43 33.5 -73.5 t85.5 -43.5q68 -17 68 -41q0 -22 -60 -22q-14 0 -78.5 2t-107.5 2q-48 0 -131.5 -6t-114.5 -6q-59 0 -59 26t67 47q59 17 102.5 52t74.5 106q196 444 383 963q19 57 20 61q3 10 4 24.5t1.5 23.5t2.5 10q54 17 74 30q12 8 21 21t13.5 21.5t8.5 8.5q11 0 20 -28 q154 -488 365 -1094q39 -112 86.5 -152.5t120.5 -52.5q33 -6 50 -19t17 -28q0 -20 -59 -20zM682 1110l-184 -492q-4 -12 -4 -14q0 -16 43 -16h317h13t8.5 1t6 3t1.5 6t-4 20l-162 490q-12 37 -19 37q-4 0 -16 -35z" />
<glyph unicode="&#x105;" horiz-adv-x="1124" d="M10 0zM819 -610q-94 0 -150.5 55.5t-56.5 165.5q0 45 15.5 91.5t40.5 85t55 74.5t60.5 63t55.5 48t41 31l15 11h53q-7 -5 -19.5 -15t-44.5 -43.5t-56 -71t-44 -97t-20 -121.5q0 -66 34.5 -104t88.5 -38q32 0 59.5 10.5t43.5 21.5t18 11q16 0 16 -14q0 -38 -64 -101 t-141 -63zM1040 55q47 -10 47 -37q0 -11 -13.5 -17.5t-26.5 -6.5q-41 0 -93.5 5t-87.5 5t-94 -5t-100 -5q-13 0 -27 6.5t-14 17.5q0 25 47 37q36 9 48.5 13.5t22 16.5t9.5 34q0 29 -45 151q-3 9 -10.5 12t-28.5 3h-299q-22 0 -33 -25q-6 -16 -15 -37.5t-12.5 -30.5t-7.5 -21 t-5 -20t-1 -18q0 -36 19 -51.5t57 -26.5q47 -16 47 -37q0 -11 -14 -17.5t-27 -6.5q-41 0 -86 5t-80 5t-75 -5t-81 -5q-13 0 -27 6.5t-14 17.5q0 25 48 35q29 6 38.5 8.5t32 12t34.5 22t28.5 36t31.5 56.5l238 549q13 30 17.5 54.5t5 35.5t2.5 13q37 35 79 84q21 24 33 24 q8 0 15 -18l276 -711q13 -34 22.5 -54.5t26.5 -46.5t40 -41.5t52 -21.5zM526 690q-61 -150 -135 -311q-6 -13 0.5 -17t26.5 -4h237q16 0 18.5 3t-1.5 18q-6 24 -29.5 86t-51.5 133t-36 92q-6 16 -10.5 20.5t-8.5 0t-10 -20.5z" />
<glyph unicode="&#x106;" horiz-adv-x="1310" d="M46 0zM715 1427q-13 0 -13 13q0 12 11 30q71 120 157 244q19 27 56 27q30 0 74 -14t44 -33q0 -16 -26 -39q-95 -81 -267 -209q-24 -19 -36 -19zM1200 281q5 10 15.5 17.5t21.5 13t14 7.5q3 3 4 3q6 0 10.5 -12.5t4.5 -26.5q0 -3 -1 -9t-1 -8q-7 -47 -27 -114t-41 -99 q-4 -7 -17.5 -12.5t-38.5 -13.5t-44 -17q-87 -41 -344 -41q-182 0 -335 95t-240 254t-87 344q0 145 61 275.5t163 222t238.5 145t283.5 53.5q50 0 119.5 -8t97.5 -17q80 -26 155 -37q23 -3 27 -61q14 -109 16 -223q2 -17 -3.5 -32.5t-18.5 -14.5q-18 2 -32.5 21.5 t-20.5 53.5q-12 94 -72 150q-12 12 -30.5 25.5t-55.5 33.5t-93.5 32.5t-121.5 12.5q-110 0 -206 -49t-161.5 -129.5t-103 -186.5t-37.5 -218q0 -100 23 -198.5t68.5 -184.5t107.5 -152t145 -104.5t176 -38.5q81 0 147 23t111 63.5t72 77.5t51 84z" />
<glyph unicode="&#x107;" horiz-adv-x="1146" d="M60 0zM633 1112q-40 -45 -62 -45q-12 0 -15 5.5t-3 21.5q0 20 60 135.5t106 195.5q9 15 24.5 26t30.5 11q42 0 71 -12t29 -35q0 -19 -87.5 -125.5t-153.5 -177.5zM692 938q159 0 287 -43q17 -5 26 -69t11 -130q0 -11 -8 -26t-19 -15q-4 0 -7 1t-5.5 4.5t-4.5 6t-4.5 8.5 t-4 9.5t-4.5 12t-5 12.5q-37 97 -99.5 131t-188.5 34q-151 0 -255 -114.5t-104 -270.5q0 -116 48 -217.5t138.5 -165t202.5 -63.5q80 0 161.5 43.5t117.5 116.5q22 45 55 45q14 0 14 -25q0 -13 -29.5 -87.5t-37.5 -88.5q-11 -22 -115 -49t-192 -27q-143 0 -267.5 60.5 t-202 173t-77.5 250.5q0 140 82 252.5t211 171.5t276 59z" />
<glyph unicode="&#x108;" horiz-adv-x="1310" d="M46 0zM512 1436q-31 0 -31 20q0 13 15 25l200 180q31 28 46.5 36.5t37.5 8.5t37.5 -8.5t46.5 -36.5l201 -180q12 -10 12 -25q0 -22 -28 -22q-18 0 -109.5 43t-138.5 71q-13 7 -20.5 7t-20.5 -7q-46 -27 -137.5 -69.5t-110.5 -42.5zM1200 281q5 10 15.5 17.5t21.5 13 t14 7.5q3 3 4 3q6 0 10.5 -12.5t4.5 -26.5q0 -3 -1 -9t-1 -8q-7 -47 -27 -114t-41 -99q-4 -7 -17.5 -12.5t-38.5 -13.5t-44 -17q-87 -41 -344 -41q-182 0 -335 95t-240 254t-87 344q0 145 61 275.5t163 222t238.5 145t283.5 53.5q50 0 119.5 -8t97.5 -17q80 -26 155 -37 q23 -3 27 -61q14 -109 16 -223q2 -17 -3.5 -32.5t-18.5 -14.5q-18 2 -32.5 21.5t-20.5 53.5q-12 94 -72 150q-12 12 -30.5 25.5t-55.5 33.5t-93.5 32.5t-121.5 12.5q-110 0 -206 -49t-161.5 -129.5t-103 -186.5t-37.5 -218q0 -100 23 -198.5t68.5 -184.5t107.5 -152 t145 -104.5t176 -38.5q81 0 147 23t111 63.5t72 77.5t51 84z" />
<glyph unicode="&#x109;" horiz-adv-x="1146" d="M60 0zM612 1266q-50 -60 -135 -172q-12 -16 -31 -31t-30 -15q-9 0 -13 3.5t-5 8.5t-1 15q0 20 68 147t113 201q21 37 41 37t41 -37q46 -76 114 -202t68 -146q0 -15 -3 -21t-16 -6q-11 0 -30.5 15t-30.5 31q-52 69 -135 172q-7 10 -15 0zM692 938q159 0 287 -43 q17 -5 26 -69t11 -130q0 -11 -8 -26t-19 -15q-4 0 -7 1t-5.5 4.5t-4.5 6t-4.5 8.5t-4 9.5t-4.5 12t-5 12.5q-37 97 -99.5 131t-188.5 34q-151 0 -255 -114.5t-104 -270.5q0 -116 48 -217.5t138.5 -165t202.5 -63.5q80 0 161.5 43.5t117.5 116.5q22 45 55 45q14 0 14 -25 q0 -13 -29.5 -87.5t-37.5 -88.5q-11 -22 -115 -49t-192 -27q-143 0 -267.5 60.5t-202 173t-77.5 250.5q0 140 82 252.5t211 171.5t276 59z" />
<glyph unicode="&#x10a;" horiz-adv-x="1310" d="M46 0zM840 1708q46 0 79.5 -33.5t33.5 -79.5t-33.5 -79t-79.5 -33t-79.5 33t-33.5 79t33.5 79.5t79.5 33.5zM1200 281q5 10 15.5 17.5t21.5 13t14 7.5q3 3 4 3q6 0 10.5 -12.5t4.5 -26.5q0 -3 -1 -9t-1 -8q-7 -47 -27 -114t-41 -99q-4 -7 -17.5 -12.5t-38.5 -13.5 t-44 -17q-87 -41 -344 -41q-182 0 -335 95t-240 254t-87 344q0 145 61 275.5t163 222t238.5 145t283.5 53.5q50 0 119.5 -8t97.5 -17q80 -26 155 -37q23 -3 27 -61q14 -109 16 -223q2 -17 -3.5 -32.5t-18.5 -14.5q-18 2 -32.5 21.5t-20.5 53.5q-12 94 -72 150 q-12 12 -30.5 25.5t-55.5 33.5t-93.5 32.5t-121.5 12.5q-110 0 -206 -49t-161.5 -129.5t-103 -186.5t-37.5 -218q0 -100 23 -198.5t68.5 -184.5t107.5 -152t145 -104.5t176 -38.5q81 0 147 23t111 63.5t72 77.5t51 84z" />
<glyph unicode="&#x10b;" horiz-adv-x="1146" d="M60 0zM518 1245q0 44 29.5 74.5t72.5 30.5q44 0 74.5 -30.5t30.5 -74.5q0 -43 -30.5 -72.5t-74.5 -29.5q-43 0 -72.5 29.5t-29.5 72.5zM692 938q159 0 287 -43q17 -5 26 -69t11 -130q0 -11 -8 -26t-19 -15q-4 0 -7 1t-5.5 4.5t-4.5 6t-4.5 8.5t-4 9.5t-4.5 12t-5 12.5 q-37 97 -99.5 131t-188.5 34q-151 0 -255 -114.5t-104 -270.5q0 -116 48 -217.5t138.5 -165t202.5 -63.5q80 0 161.5 43.5t117.5 116.5q22 45 55 45q14 0 14 -25q0 -13 -29.5 -87.5t-37.5 -88.5q-11 -22 -115 -49t-192 -27q-143 0 -267.5 60.5t-202 173t-77.5 250.5 q0 140 82 252.5t211 171.5t276 59z" />
<glyph unicode="&#x10c;" horiz-adv-x="1310" d="M46 0zM512 1704q19 0 110 -43t138 -70q13 -8 20.5 -8t20.5 8q48 28 139 71.5t109 43.5q13 0 20.5 -6.5t7.5 -16.5q0 -14 -12 -24l-201 -180q-31 -28 -46.5 -36.5t-37.5 -8.5t-37.5 8.5t-46.5 36.5l-200 180q-15 12 -15 24q0 9 9 15t22 6zM1200 281q5 10 15.5 17.5 t21.5 13t14 7.5q3 3 4 3q6 0 10.5 -12.5t4.5 -26.5q0 -3 -1 -9t-1 -8q-7 -47 -27 -114t-41 -99q-4 -7 -17.5 -12.5t-38.5 -13.5t-44 -17q-87 -41 -344 -41q-182 0 -335 95t-240 254t-87 344q0 145 61 275.5t163 222t238.5 145t283.5 53.5q50 0 119.5 -8t97.5 -17 q80 -26 155 -37q23 -3 27 -61q14 -109 16 -223q2 -17 -3.5 -32.5t-18.5 -14.5q-18 2 -32.5 21.5t-20.5 53.5q-12 94 -72 150q-12 12 -30.5 25.5t-55.5 33.5t-93.5 32.5t-121.5 12.5q-110 0 -206 -49t-161.5 -129.5t-103 -186.5t-37.5 -218q0 -100 23 -198.5t68.5 -184.5 t107.5 -152t145 -104.5t176 -38.5q81 0 147 23t111 63.5t72 77.5t51 84z" />
<glyph unicode="&#x10d;" horiz-adv-x="1146" d="M60 0zM610 1260q8 -10 15 0q92 124 135 174q40 45 59 45q13 0 16 -6t3 -21q0 -18 -66.5 -130t-113.5 -185q-23 -37 -41 -37t-41 37q-49 75 -115 186t-66 129q0 10 1 15t5 8.5t13 3.5q21 0 61 -45q43 -50 135 -174zM692 938q159 0 287 -43q17 -5 26 -69t11 -130 q0 -11 -8 -26t-19 -15q-4 0 -7 1t-5.5 4.5t-4.5 6t-4.5 8.5t-4 9.5t-4.5 12t-5 12.5q-37 97 -99.5 131t-188.5 34q-151 0 -255 -114.5t-104 -270.5q0 -116 48 -217.5t138.5 -165t202.5 -63.5q80 0 161.5 43.5t117.5 116.5q22 45 55 45q14 0 14 -25q0 -13 -29.5 -87.5 t-37.5 -88.5q-11 -22 -115 -49t-192 -27q-143 0 -267.5 60.5t-202 173t-77.5 250.5q0 140 82 252.5t211 171.5t276 59z" />
<glyph unicode="&#x10e;" horiz-adv-x="1544" d="M29 0zM432 1704q19 0 110 -43t138 -70q13 -8 20.5 -8t20.5 8q48 28 139 71.5t109 43.5q13 0 20.5 -6.5t7.5 -16.5q0 -14 -12 -24l-201 -180q-31 -28 -46.5 -36.5t-37.5 -8.5t-37.5 8.5t-46.5 36.5l-200 180q-15 12 -15 24q0 9 9 15t22 6zM760 -14q-5 0 -167.5 7t-258.5 7 q-38 0 -97.5 -5t-117.5 -5q-60 0 -60 22q0 25 68 37q77 14 107 47.5t30 106.5v921q0 73 -30 104.5t-107 45.5q-68 12 -68 41q0 22 60 22q59 0 116.5 -2t96.5 -2h14q48 0 187.5 8.5t162.5 8.5q164 0 290.5 -31t212 -87.5t140.5 -140t79 -183t24 -222.5q0 -141 -52 -269.5 t-142 -223.5t-217 -151t-271 -56zM1247 709q0 160 -67 291.5t-191 208.5t-282 77q-47 0 -72 -0.5t-60 -3t-52.5 -7t-38.5 -13.5t-30.5 -22.5t-16.5 -33t-7 -45.5v-913q0 -58 17 -87.5t55 -58.5q60 -45 147 -45q17 0 57 2t64 2q113 0 206 57t150.5 150t89 207t31.5 234z" />
<glyph unicode="&#x10f;" horiz-adv-x="1062" d="M363 1417l143 -196l142 196q27 37 59 37q13 0 19 -12.5t-2 -30.5q-109 -220 -160 -309q-36 -60 -58 -60q-21 0 -57 60q-20 34 -60 111t-70 137l-30 61q-8 18 -2 30.5t19 12.5q29 0 57 -37zM371 88q5 -4 10.5 -7t13.5 -5t14.5 -3.5t18 -2.5t19 -1.5t22.5 -0.5h23.5h27 h27.5q45 0 81.5 8.5t64 26t42.5 30t35 33.5q92 100 92 330q0 61 -24.5 124.5t-68.5 118t-114 89.5t-151 36q-180 0 -180 -80v-598q0 -39 11 -58.5t36 -39.5zM539 -6q-5 0 -111.5 5.5t-171.5 6.5q-48 1 -125.5 -2.5t-87.5 -3.5q-7 0 -7 24t7 25q54 14 88 49q37 38 39 84v535 q0 81 -18 102q-20 23 -32 29.5t-50 17.5q-6 2 -10.5 15t-2.5 25t11 12q27 0 80.5 -2.5t87.5 -2.5q27 0 136 7.5t126 7.5q132 0 236.5 -36t169.5 -98.5t99 -142t33 -170.5q-2 -184 -110 -319q-55 -70 -159.5 -119t-227.5 -49z" />
<glyph unicode="&#x110;" horiz-adv-x="1544" d="M29 0zM143 723h629q11 0 21 -9.5t6 -19.5q-23 -45 -64 -45h-612q-12 0 -20.5 13t-8.5 24q0 14 15 25.5t34 11.5zM760 -14q-5 0 -167.5 7t-258.5 7q-38 0 -97.5 -5t-117.5 -5q-60 0 -60 22q0 25 68 37q77 14 107 47.5t30 106.5v921q0 73 -30 104.5t-107 45.5 q-68 12 -68 41q0 22 60 22q59 0 116.5 -2t96.5 -2h14q48 0 187.5 8.5t162.5 8.5q164 0 290.5 -31t212 -87.5t140.5 -140t79 -183t24 -222.5q0 -141 -52 -269.5t-142 -223.5t-217 -151t-271 -56zM1247 709q0 160 -67 291.5t-191 208.5t-282 77q-47 0 -72 -0.5t-60 -3 t-52.5 -7t-38.5 -13.5t-30.5 -22.5t-16.5 -33t-7 -45.5v-913q0 -58 17 -87.5t55 -58.5q60 -45 147 -45q17 0 57 2t64 2q113 0 206 57t150.5 150t89 207t31.5 234z" />
<glyph unicode="&#x111;" horiz-adv-x="1234" d="M30 0zM459 1169h571q11 0 21 -9t6 -19q-23 -45 -64 -45h-555q-12 0 -20 13t-8 24q0 14 15 25t34 11zM309 918q30 -1 109 4.5t92 5.5q147 0 253.5 -21.5t187.5 -71t121 -137.5t40 -215q0 -111 -49.5 -204t-132.5 -155t-192.5 -96t-231.5 -34q-9 0 -86 6t-117 6 q-32 -1 -94.5 -6.5t-106.5 -5.5q-13 0 -27 6.5t-14 17.5q0 22 50 33q64 12 99.5 36t35.5 75v559q0 64 -27.5 98.5t-91.5 44.5q-19 3 -34 14t-15 25q0 11 14 18t27 7q41 0 98 -5t92 -5zM555 57q167 0 270 119.5t103 284.5q0 198 -108 300.5t-304 102.5q-47 0 -82 -20t-35 -60 v-598q0 -49 49 -89t107 -40z" />
<glyph unicode="&#x112;" horiz-adv-x="1095" d="M23 0zM329 1593h539q9 0 18 -7.5t9 -16.5q0 -31 -20 -58.5t-44 -27.5h-522q-11 0 -20 7.5t-9 16.5q0 24 12 55t37 31zM938 1337q34 0 37 -18q31 -173 31 -211q0 -31 -29 -31q-17 0 -23 21q-29 95 -45 112q-51 56 -137 56h-268q-19 0 -41 -19.5t-25 -42.5q-2 -14 -5 -189 t-3 -249q0 -45 21 -45h213q43 0 76 22t48 58q3 8 16.5 21.5t20.5 13.5q9 0 18 -9.5t9 -23.5q0 -7 -3 -51t-3 -62q0 -24 2 -79t2 -60q0 -35 -19 -35q-18 0 -30.5 16t-16.5 31q-14 45 -40 68.5t-54 23.5h-190q-24 0 -34 -1t-21 -6.5t-13.5 -17.5t-1.5 -34q0 -14 6 -365 q2 -80 32 -119.5t97 -39.5h213q48 0 80 5.5t45.5 12.5t30.5 19q42 33 86 129q11 23 29 20q26 -4 26 -22q0 -27 -12 -98.5t-23 -112.5q-8 -35 -28 -35q-138 0 -356.5 6t-313.5 6q-44 0 -111 -6t-125 -6q-59 0 -59 22q0 25 68 37q79 14 115 48.5t36 105.5v921q0 73 -30 104.5 t-107 45.5q-68 12 -68 41q0 22 60 22q78 0 185 -3t177 -3q82 0 190.5 1.5t184.5 3t80 1.5z" />
<glyph unicode="&#x113;" horiz-adv-x="983" d="M30 0zM309 1270h416q9 0 17.5 -7.5t8.5 -16.5q0 -37 -16.5 -62.5t-46.5 -25.5h-399q-11 0 -20 7.5t-9 16.5q0 24 12 56t37 32zM309 918q101 0 269 3t204 3q25 0 25 -13q2 -60 11 -120.5t9 -67.5t-5 -17t-11 -10q-9 0 -20 10t-19 27q-25 58 -49 82.5t-74 24.5h-198 q-16 0 -34 -9.5t-18 -27.5v-254q0 -12 7.5 -30.5t15.5 -18.5h162q30 0 45.5 17t29.5 58q13 35 31 35q11 0 19 -10t6 -20q-6 -99 -6 -113q0 -21 3.5 -60t4.5 -53q2 -10 -5 -22.5t-16 -12.5q-8 0 -15 7t-10.5 14.5t-7 17.5t-4.5 11q-13 46 -65 55q-64 8 -102 8q-93 0 -93 -41 v-227q0 -56 11 -70t57 -14h205q59 0 103 34.5t67 84.5q0 1 2.5 6l4 8t4.5 7.5t7.5 6.5t9.5 2q21 0 21 -32q-8 -77 -35 -177q-1 -9 -12.5 -16.5t-22.5 -7.5q-109 0 -282 5t-236 5q-32 -1 -94.5 -6.5t-106.5 -5.5q-13 0 -27 6.5t-14 17.5q0 24 50 33q64 12 99.5 36t35.5 75 v559q0 64 -27.5 98.5t-91.5 44.5q-20 3 -34.5 14t-14.5 25q0 11 14 18t27 7q41 0 98 -5t92 -5z" />
<glyph unicode="&#x114;" horiz-adv-x="1095" d="M23 0zM346 1692q16 -28 41.5 -54t79.5 -50.5t120 -24.5q95 0 155.5 41t86.5 88q24 43 45 43q14 0 17.5 -12.5t3.5 -37.5q0 -100 -93.5 -183t-214.5 -83q-125 0 -216 76.5t-91 189.5q0 25 3.5 37.5t17.5 12.5q21 0 45 -43zM938 1337q34 0 37 -18q31 -173 31 -211 q0 -31 -29 -31q-17 0 -23 21q-29 95 -45 112q-51 56 -137 56h-268q-19 0 -41 -19.5t-25 -42.5q-2 -14 -5 -189t-3 -249q0 -45 21 -45h213q43 0 76 22t48 58q3 8 16.5 21.5t20.5 13.5q9 0 18 -9.5t9 -23.5q0 -7 -3 -51t-3 -62q0 -24 2 -79t2 -60q0 -35 -19 -35 q-18 0 -30.5 16t-16.5 31q-14 45 -40 68.5t-54 23.5h-190q-24 0 -34 -1t-21 -6.5t-13.5 -17.5t-1.5 -34q0 -14 6 -365q2 -80 32 -119.5t97 -39.5h213q48 0 80 5.5t45.5 12.5t30.5 19q42 33 86 129q11 23 29 20q26 -4 26 -22q0 -27 -12 -98.5t-23 -112.5q-8 -35 -28 -35 q-138 0 -356.5 6t-313.5 6q-44 0 -111 -6t-125 -6q-59 0 -59 22q0 25 68 37q79 14 115 48.5t36 105.5v921q0 73 -30 104.5t-107 45.5q-68 12 -68 41q0 22 60 22q78 0 185 -3t177 -3q82 0 190.5 1.5t184.5 3t80 1.5z" />
<glyph unicode="&#x115;" horiz-adv-x="983" d="M30 0zM348 1335q8 -43 47.5 -71.5t110.5 -28.5t110.5 28.5t47.5 71.5q9 43 31 43q30 0 30 -49q0 -84 -59 -150.5t-160 -66.5t-160 66.5t-59 150.5q0 21 8.5 35t22.5 14q21 0 30 -43zM309 918q101 0 269 3t204 3q25 0 25 -13q2 -60 11 -120.5t9 -67.5t-5 -17t-11 -10 q-9 0 -20 10t-19 27q-25 58 -49 82.5t-74 24.5h-198q-16 0 -34 -9.5t-18 -27.5v-254q0 -12 7.5 -30.5t15.5 -18.5h162q30 0 45.5 17t29.5 58q13 35 31 35q11 0 19 -10t6 -20q-6 -99 -6 -113q0 -21 3.5 -60t4.5 -53q2 -10 -5 -22.5t-16 -12.5q-8 0 -15 7t-10.5 14.5t-7 17.5 t-4.5 11q-13 46 -65 55q-64 8 -102 8q-93 0 -93 -41v-227q0 -56 11 -70t57 -14h205q59 0 103 34.5t67 84.5q0 1 2.5 6l4 8t4.5 7.5t7.5 6.5t9.5 2q21 0 21 -32q-8 -77 -35 -177q-1 -9 -12.5 -16.5t-22.5 -7.5q-109 0 -282 5t-236 5q-32 -1 -94.5 -6.5t-106.5 -5.5 q-13 0 -27 6.5t-14 17.5q0 24 50 33q64 12 99.5 36t35.5 75v559q0 64 -27.5 98.5t-91.5 44.5q-20 3 -34.5 14t-14.5 25q0 11 14 18t27 7q41 0 98 -5t92 -5z" />
<glyph unicode="&#x116;" horiz-adv-x="1095" d="M23 0zM529 1708q46 0 79.5 -33.5t33.5 -79.5t-33.5 -79t-79.5 -33t-79.5 33t-33.5 79t33.5 79.5t79.5 33.5zM938 1337q34 0 37 -18q31 -173 31 -211q0 -31 -29 -31q-17 0 -23 21q-29 95 -45 112q-51 56 -137 56h-268q-19 0 -41 -19.5t-25 -42.5q-2 -14 -5 -189t-3 -249 q0 -45 21 -45h213q43 0 76 22t48 58q3 8 16.5 21.5t20.5 13.5q9 0 18 -9.5t9 -23.5q0 -7 -3 -51t-3 -62q0 -24 2 -79t2 -60q0 -35 -19 -35q-18 0 -30.5 16t-16.5 31q-14 45 -40 68.5t-54 23.5h-190q-24 0 -34 -1t-21 -6.5t-13.5 -17.5t-1.5 -34q0 -14 6 -365 q2 -80 32 -119.5t97 -39.5h213q48 0 80 5.5t45.5 12.5t30.5 19q42 33 86 129q11 23 29 20q26 -4 26 -22q0 -27 -12 -98.5t-23 -112.5q-8 -35 -28 -35q-138 0 -356.5 6t-313.5 6q-44 0 -111 -6t-125 -6q-59 0 -59 22q0 25 68 37q79 14 115 48.5t36 105.5v921q0 73 -30 104.5 t-107 45.5q-68 12 -68 41q0 22 60 22q78 0 185 -3t177 -3q82 0 190.5 1.5t184.5 3t80 1.5z" />
<glyph unicode="&#x117;" horiz-adv-x="983" d="M30 0zM406 1245q0 44 29.5 74.5t72.5 30.5q44 0 74.5 -30.5t30.5 -74.5q0 -43 -30.5 -72.5t-74.5 -29.5q-43 0 -72.5 29.5t-29.5 72.5zM309 918q101 0 269 3t204 3q25 0 25 -13q2 -60 11 -120.5t9 -67.5t-5 -17t-11 -10q-9 0 -20 10t-19 27q-25 58 -49 82.5t-74 24.5 h-198q-16 0 -34 -9.5t-18 -27.5v-254q0 -12 7.5 -30.5t15.5 -18.5h162q30 0 45.5 17t29.5 58q13 35 31 35q11 0 19 -10t6 -20q-6 -99 -6 -113q0 -21 3.5 -60t4.5 -53q2 -10 -5 -22.5t-16 -12.5q-8 0 -15 7t-10.5 14.5t-7 17.5t-4.5 11q-13 46 -65 55q-64 8 -102 8 q-93 0 -93 -41v-227q0 -56 11 -70t57 -14h205q59 0 103 34.5t67 84.5q0 1 2.5 6l4 8t4.5 7.5t7.5 6.5t9.5 2q21 0 21 -32q-8 -77 -35 -177q-1 -9 -12.5 -16.5t-22.5 -7.5q-109 0 -282 5t-236 5q-32 -1 -94.5 -6.5t-106.5 -5.5q-13 0 -27 6.5t-14 17.5q0 24 50 33 q64 12 99.5 36t35.5 75v559q0 64 -27.5 98.5t-91.5 44.5q-20 3 -34.5 14t-14.5 25q0 11 14 18t27 7q41 0 98 -5t92 -5z" />
<glyph unicode="&#x118;" horiz-adv-x="1095" d="M23 0zM781 -588q-97 0 -165.5 67.5t-68.5 164.5q0 42 19.5 86.5t50 82t68 73t75 62.5t68 47.5t49.5 30.5l20 11h54q-9 -6 -24.5 -17.5t-55.5 -48t-70 -75.5t-55 -97.5t-25 -115.5q0 -53 40 -89t95 -36q25 0 54.5 11.5t49.5 25t40.5 28.5t23.5 17q7 5 16 1.5t9 -14.5 q0 -66 -92.5 -140.5t-175.5 -74.5zM938 1337q34 0 37 -18q31 -173 31 -211q0 -31 -29 -31q-17 0 -23 21q-29 95 -45 112q-51 56 -137 56h-268q-19 0 -41 -19.5t-25 -42.5q-2 -14 -5 -189t-3 -249q0 -45 21 -45h213q43 0 76 22t48 58q3 8 16.5 21.5t20.5 13.5q9 0 18 -9.5 t9 -23.5q0 -7 -3 -51t-3 -62q0 -24 2 -79t2 -60q0 -35 -19 -35q-18 0 -30.5 16t-16.5 31q-14 45 -40 68.5t-54 23.5h-190q-24 0 -34 -1t-21 -6.5t-13.5 -17.5t-1.5 -34q0 -14 6 -365q2 -80 32 -119.5t97 -39.5h213q48 0 80 5.5t45.5 12.5t30.5 19q42 33 86 129q11 23 29 20 q26 -4 26 -22q0 -27 -12 -98.5t-23 -112.5q-8 -35 -28 -35q-138 0 -356.5 6t-313.5 6q-44 0 -111 -6t-125 -6q-59 0 -59 22q0 25 68 37q79 14 115 48.5t36 105.5v921q0 73 -30 104.5t-107 45.5q-68 12 -68 41q0 22 60 22q78 0 185 -3t177 -3q82 0 190.5 1.5t184.5 3t80 1.5z " />
<glyph unicode="&#x119;" horiz-adv-x="983" d="M0 0zM0 -610q-94 0 -150.5 55.5t-56.5 165.5q0 45 15.5 91.5t40.5 85t55 74.5t60.5 63t55.5 48t41 31l15 11h53q-7 -5 -19.5 -15t-44.5 -43.5t-56 -71t-44 -97t-20 -121.5q0 -66 34.5 -104t88.5 -38q32 0 59.5 10.5t43.5 21.5t18 11q16 0 16 -14q0 -38 -64 -101t-141 -63 zM309 918q101 0 269 3t204 3q25 0 25 -13q2 -60 11 -120.5t9 -67.5t-5 -17t-11 -10q-9 0 -20 10t-19 27q-25 58 -49 82.5t-74 24.5h-198q-16 0 -34 -9.5t-18 -27.5v-254q0 -12 7.5 -30.5t15.5 -18.5h162q30 0 45.5 17t29.5 58q13 35 31 35q11 0 19 -10t6 -20q-6 -99 -6 -113 q0 -21 3.5 -60t4.5 -53q2 -10 -5 -22.5t-16 -12.5q-8 0 -15 7t-10.5 14.5t-7 17.5t-4.5 11q-13 46 -65 55q-64 8 -102 8q-93 0 -93 -41v-227q0 -56 11 -70t57 -14h205q59 0 103 34.5t67 84.5q0 1 2.5 6l4 8t4.5 7.5t7.5 6.5t9.5 2q21 0 21 -32q-8 -77 -35 -177 q-1 -9 -12.5 -16.5t-22.5 -7.5q-109 0 -282 5t-236 5q-32 -1 -94.5 -6.5t-106.5 -5.5q-13 0 -27 6.5t-14 17.5q0 24 50 33q64 12 99.5 36t35.5 75v559q0 64 -27.5 98.5t-91.5 44.5q-20 3 -34.5 14t-14.5 25q0 11 14 18t27 7q41 0 98 -5t92 -5z" />
<glyph unicode="&#x11a;" horiz-adv-x="1095" d="M23 0zM320 1706q19 0 110 -43t138 -70q13 -8 20.5 -8t20.5 8q48 28 139 71.5t109 43.5q13 0 20.5 -6.5t7.5 -16.5q0 -14 -12 -24l-201 -180q-31 -28 -46.5 -36.5t-37.5 -8.5t-37.5 8.5t-46.5 36.5l-200 180q-15 12 -15 24q0 9 9 15t22 6zM938 1337q34 0 37 -18 q31 -173 31 -211q0 -31 -29 -31q-17 0 -23 21q-29 95 -45 112q-51 56 -137 56h-268q-19 0 -41 -19.5t-25 -42.5q-2 -14 -5 -189t-3 -249q0 -45 21 -45h213q43 0 76 22t48 58q3 8 16.5 21.5t20.5 13.5q9 0 18 -9.5t9 -23.5q0 -7 -3 -51t-3 -62q0 -24 2 -79t2 -60 q0 -35 -19 -35q-18 0 -30.5 16t-16.5 31q-14 45 -40 68.5t-54 23.5h-190q-24 0 -34 -1t-21 -6.5t-13.5 -17.5t-1.5 -34q0 -14 6 -365q2 -80 32 -119.5t97 -39.5h213q48 0 80 5.5t45.5 12.5t30.5 19q42 33 86 129q11 23 29 20q26 -4 26 -22q0 -27 -12 -98.5t-23 -112.5 q-8 -35 -28 -35q-138 0 -356.5 6t-313.5 6q-44 0 -111 -6t-125 -6q-59 0 -59 22q0 25 68 37q79 14 115 48.5t36 105.5v921q0 73 -30 104.5t-107 45.5q-68 12 -68 41q0 22 60 22q78 0 185 -3t177 -3q82 0 190.5 1.5t184.5 3t80 1.5z" />
<glyph unicode="&#x11b;" horiz-adv-x="983" d="M30 0zM497 1260q8 -10 15 0q92 124 135 174q40 45 59 45q13 0 16 -6t3 -21q0 -18 -66.5 -130t-113.5 -185q-23 -37 -41 -37t-41 37q-49 75 -115 186t-66 129q0 10 1 15t5 8.5t13 3.5q21 0 61 -45q43 -50 135 -174zM309 918q101 0 269 3t204 3q25 0 25 -13 q2 -60 11 -120.5t9 -67.5t-5 -17t-11 -10q-9 0 -20 10t-19 27q-25 58 -49 82.5t-74 24.5h-198q-16 0 -34 -9.5t-18 -27.5v-254q0 -12 7.5 -30.5t15.5 -18.5h162q30 0 45.5 17t29.5 58q13 35 31 35q11 0 19 -10t6 -20q-6 -99 -6 -113q0 -21 3.5 -60t4.5 -53q2 -10 -5 -22.5 t-16 -12.5q-8 0 -15 7t-10.5 14.5t-7 17.5t-4.5 11q-13 46 -65 55q-64 8 -102 8q-93 0 -93 -41v-227q0 -56 11 -70t57 -14h205q59 0 103 34.5t67 84.5q0 1 2.5 6l4 8t4.5 7.5t7.5 6.5t9.5 2q21 0 21 -32q-8 -77 -35 -177q-1 -9 -12.5 -16.5t-22.5 -7.5q-109 0 -282 5t-236 5 q-32 -1 -94.5 -6.5t-106.5 -5.5q-13 0 -27 6.5t-14 17.5q0 24 50 33q64 12 99.5 36t35.5 75v559q0 64 -27.5 98.5t-91.5 44.5q-20 3 -34.5 14t-14.5 25q0 11 14 18t27 7q41 0 98 -5t92 -5z" />
<glyph unicode="&#x11c;" horiz-adv-x="1492" d="M45 0zM551 1436q-31 0 -31 20q0 13 15 25l200 180q31 28 46.5 36.5t37.5 8.5t37.5 -8.5t46.5 -36.5l201 -180q12 -10 12 -25q0 -22 -28 -22q-18 0 -109.5 43t-138.5 71q-13 7 -20.5 7t-20.5 -7q-46 -27 -137.5 -69.5t-110.5 -42.5zM1272 1278q22 -158 22 -229 q0 -15 -9 -28t-21 -13q-13 0 -23 9.5t-14.5 19t-9.5 26.5q-21 58 -64 108q-30 37 -114 73t-212 36q-150 0 -272 -74.5t-191 -205.5t-69 -291q0 -99 22.5 -195t67 -180t106 -148.5t145.5 -101.5t179 -37q157 0 279 76q49 33 49 158q0 17 2 58t2 60q0 50 -10 62 q-23 30 -90 46.5t-111 16.5q-10 0 -25.5 11t-15.5 24t15.5 24t25.5 11q48 0 124 -4t134 -4q36 0 90.5 4t91.5 4q13 0 28 -7.5t15 -25.5q0 -12 -16 -23.5t-27 -13.5q-43 -12 -61.5 -34.5t-24.5 -65.5q-10 -74 -10 -154v-55q0 -9 12 -33q3 -6 15 -18t12 -17q0 -8 -8.5 -19 t-20.5 -17q-273 -140 -473 -140q-194 0 -360.5 93t-265.5 255t-99 355q0 144 62 272.5t165.5 218t241 141.5t285.5 52q86 0 254.5 -29t171.5 -51z" />
<glyph unicode="&#x11d;" horiz-adv-x="1216" d="M60 0zM657 1266q-50 -60 -135 -172q-12 -16 -31 -31t-30 -15q-9 0 -13 3.5t-5 8.5t-1 15q0 20 68 147t113 201q21 37 41 37t41 -37q46 -76 114 -202t68 -146q0 -15 -3 -21t-16 -6q-11 0 -30.5 15t-30.5 31q-52 69 -135 172q-7 10 -15 0zM860 164v90q0 37 -32.5 58.5 t-86.5 25.5q-23 2 -40 13t-17 26q0 13 14.5 19.5t30.5 6.5q33 0 93 -3t100 -3q28 0 72 4.5t69 4.5q19 0 35 -8t16 -21q0 -4 -1.5 -8t-3 -7t-5.5 -6l-6 -4.5t-7.5 -4t-7 -3.5t-7.5 -3.5t-7 -2.5q-55 -22 -55 -72v-119q0 -23 11 -38.5t21.5 -24t10.5 -14.5q0 -7 -12 -18.5 t-27 -18.5q-130 -60 -348 -60q-143 -1 -268 59t-202 172.5t-77 250.5q0 141 77 253t201.5 171t270.5 59q158 0 286 -43q9 -3 26 -77.5t20 -121.5q1 -11 -7.5 -26t-19.5 -15q-5 0 -8.5 2.5t-7 8t-6 11t-6.5 15.5t-7 17q-39 84 -109 124.5t-188 40.5q-149 0 -243.5 -113 t-94.5 -272q0 -116 48 -219.5t138.5 -169t202.5 -65.5q77 0 120.5 33t43.5 96z" />
<glyph unicode="&#x11e;" horiz-adv-x="1492" d="M45 0zM578 1690q16 -28 41.5 -54t79.5 -50.5t120 -24.5q95 0 155.5 41t86.5 88q24 43 45 43q14 0 17.5 -12.5t3.5 -37.5q0 -100 -93.5 -183t-214.5 -83q-125 0 -216 76.5t-91 189.5q0 25 3.5 37.5t17.5 12.5q21 0 45 -43zM1272 1278q22 -158 22 -229q0 -15 -9 -28 t-21 -13q-13 0 -23 9.5t-14.5 19t-9.5 26.5q-21 58 -64 108q-30 37 -114 73t-212 36q-150 0 -272 -74.5t-191 -205.5t-69 -291q0 -99 22.5 -195t67 -180t106 -148.5t145.5 -101.5t179 -37q157 0 279 76q49 33 49 158q0 17 2 58t2 60q0 50 -10 62q-23 30 -90 46.5t-111 16.5 q-10 0 -25.5 11t-15.5 24t15.5 24t25.5 11q48 0 124 -4t134 -4q36 0 90.5 4t91.5 4q13 0 28 -7.5t15 -25.5q0 -12 -16 -23.5t-27 -13.5q-43 -12 -61.5 -34.5t-24.5 -65.5q-10 -74 -10 -154v-55q0 -9 12 -33q3 -6 15 -18t12 -17q0 -8 -8.5 -19t-20.5 -17q-273 -140 -473 -140 q-194 0 -360.5 93t-265.5 255t-99 355q0 144 62 272.5t165.5 218t241 141.5t285.5 52q86 0 254.5 -29t171.5 -51z" />
<glyph unicode="&#x11f;" horiz-adv-x="1216" d="M60 0zM505 1335q8 -43 47.5 -71.5t110.5 -28.5t110.5 28.5t47.5 71.5q9 43 31 43q30 0 30 -49q0 -84 -59 -150.5t-160 -66.5t-160 66.5t-59 150.5q0 21 8.5 35t22.5 14q21 0 30 -43zM860 164v90q0 37 -32.5 58.5t-86.5 25.5q-23 2 -40 13t-17 26q0 13 14.5 19.5t30.5 6.5 q33 0 93 -3t100 -3q28 0 72 4.5t69 4.5q19 0 35 -8t16 -21q0 -4 -1.5 -8t-3 -7t-5.5 -6l-6 -4.5t-7.5 -4t-7 -3.5t-7.5 -3.5t-7 -2.5q-55 -22 -55 -72v-119q0 -23 11 -38.5t21.5 -24t10.5 -14.5q0 -7 -12 -18.5t-27 -18.5q-130 -60 -348 -60q-143 -1 -268 59t-202 172.5 t-77 250.5q0 141 77 253t201.5 171t270.5 59q158 0 286 -43q9 -3 26 -77.5t20 -121.5q1 -11 -7.5 -26t-19.5 -15q-5 0 -8.5 2.5t-7 8t-6 11t-6.5 15.5t-7 17q-39 84 -109 124.5t-188 40.5q-149 0 -243.5 -113t-94.5 -272q0 -116 48 -219.5t138.5 -169t202.5 -65.5 q77 0 120.5 33t43.5 96z" />
<glyph unicode="&#x120;" horiz-adv-x="1492" d="M45 0zM846 1708q46 0 79.5 -33.5t33.5 -79.5t-33.5 -79t-79.5 -33t-79.5 33t-33.5 79t33.5 79.5t79.5 33.5zM1272 1278q22 -158 22 -229q0 -15 -9 -28t-21 -13q-13 0 -23 9.5t-14.5 19t-9.5 26.5q-21 58 -64 108q-30 37 -114 73t-212 36q-150 0 -272 -74.5t-191 -205.5 t-69 -291q0 -99 22.5 -195t67 -180t106 -148.5t145.5 -101.5t179 -37q157 0 279 76q49 33 49 158q0 17 2 58t2 60q0 50 -10 62q-23 30 -90 46.5t-111 16.5q-10 0 -25.5 11t-15.5 24t15.5 24t25.5 11q48 0 124 -4t134 -4q36 0 90.5 4t91.5 4q13 0 28 -7.5t15 -25.5 q0 -12 -16 -23.5t-27 -13.5q-43 -12 -61.5 -34.5t-24.5 -65.5q-10 -74 -10 -154v-55q0 -9 12 -33q3 -6 15 -18t12 -17q0 -8 -8.5 -19t-20.5 -17q-273 -140 -473 -140q-194 0 -360.5 93t-265.5 255t-99 355q0 144 62 272.5t165.5 218t241 141.5t285.5 52q86 0 254.5 -29 t171.5 -51z" />
<glyph unicode="&#x121;" horiz-adv-x="1216" d="M60 0zM563 1245q0 44 29.5 74.5t72.5 30.5q44 0 74.5 -30.5t30.5 -74.5q0 -43 -30.5 -72.5t-74.5 -29.5q-43 0 -72.5 29.5t-29.5 72.5zM860 164v90q0 37 -32.5 58.5t-86.5 25.5q-23 2 -40 13t-17 26q0 13 14.5 19.5t30.5 6.5q33 0 93 -3t100 -3q28 0 72 4.5t69 4.5 q19 0 35 -8t16 -21q0 -4 -1.5 -8t-3 -7t-5.5 -6l-6 -4.5t-7.5 -4t-7 -3.5t-7.5 -3.5t-7 -2.5q-55 -22 -55 -72v-119q0 -23 11 -38.5t21.5 -24t10.5 -14.5q0 -7 -12 -18.5t-27 -18.5q-130 -60 -348 -60q-143 -1 -268 59t-202 172.5t-77 250.5q0 141 77 253t201.5 171 t270.5 59q158 0 286 -43q9 -3 26 -77.5t20 -121.5q1 -11 -7.5 -26t-19.5 -15q-5 0 -8.5 2.5t-7 8t-6 11t-6.5 15.5t-7 17q-39 84 -109 124.5t-188 40.5q-149 0 -243.5 -113t-94.5 -272q0 -116 48 -219.5t138.5 -169t202.5 -65.5q77 0 120.5 33t43.5 96z" />
<glyph unicode="&#x122;" horiz-adv-x="1492" d="M45 0zM735 -563q-27 0 -27 18q0 17 29 27q55 20 82 66.5t27 95.5q0 46 -62 59q-39 8 -70.5 34t-31.5 58q0 38 25.5 63t68.5 25q75 0 127.5 -56.5t52.5 -141.5q0 -61 -27 -111.5t-65 -78.5t-72.5 -43t-56.5 -15zM1272 1278q22 -158 22 -229q0 -15 -9 -28t-21 -13 q-13 0 -23 9.5t-14.5 19t-9.5 26.5q-21 58 -64 108q-30 37 -114 73t-212 36q-150 0 -272 -74.5t-191 -205.5t-69 -291q0 -99 22.5 -195t67 -180t106 -148.5t145.5 -101.5t179 -37q157 0 279 76q49 33 49 158q0 17 2 58t2 60q0 50 -10 62q-23 30 -90 46.5t-111 16.5 q-10 0 -25.5 11t-15.5 24t15.5 24t25.5 11q48 0 124 -4t134 -4q36 0 90.5 4t91.5 4q13 0 28 -7.5t15 -25.5q0 -12 -16 -23.5t-27 -13.5q-43 -12 -61.5 -34.5t-24.5 -65.5q-10 -74 -10 -154v-55q0 -9 12 -33q3 -6 15 -18t12 -17q0 -8 -8.5 -19t-20.5 -17q-273 -140 -473 -140 q-194 0 -360.5 93t-265.5 255t-99 355q0 144 62 272.5t165.5 218t241 141.5t285.5 52q86 0 254.5 -29t171.5 -51z" />
<glyph unicode="&#x123;" horiz-adv-x="1216" d="M60 0zM680 1253q43 0 69.5 -25.5t26.5 -60.5q0 -27 -27 -50t-69 -23q-74 0 -122 56t-48 142q0 93 84.5 171t168.5 81h5q36 0 36 -20q0 -7 -7.5 -13.5t-20.5 -9.5q-68 -14 -114 -59t-46 -97q0 -35 18 -63.5t46 -28.5zM860 164v90q0 37 -32.5 58.5t-86.5 25.5q-23 2 -40 13 t-17 26q0 13 14.5 19.5t30.5 6.5q33 0 93 -3t100 -3q28 0 72 4.5t69 4.5q19 0 35 -8t16 -21q0 -4 -1.5 -8t-3 -7t-5.5 -6l-6 -4.5t-7.5 -4t-7 -3.5t-7.5 -3.5t-7 -2.5q-55 -22 -55 -72v-119q0 -23 11 -38.5t21.5 -24t10.5 -14.5q0 -7 -12 -18.5t-27 -18.5q-130 -60 -348 -60 q-143 -1 -268 59t-202 172.5t-77 250.5q0 141 77 253t201.5 171t270.5 59q158 0 286 -43q9 -3 26 -77.5t20 -121.5q1 -11 -7.5 -26t-19.5 -15q-5 0 -8.5 2.5t-7 8t-6 11t-6.5 15.5t-7 17q-39 84 -109 124.5t-188 40.5q-149 0 -243.5 -113t-94.5 -272q0 -116 48 -219.5 t138.5 -169t202.5 -65.5q77 0 120.5 33t43.5 96z" />
<glyph unicode="&#x124;" horiz-adv-x="1658" d="M37 0zM563 1436q-31 0 -31 20q0 13 15 25l200 180q31 28 46.5 36.5t37.5 8.5t37.5 -8.5t46.5 -36.5l201 -180q12 -10 12 -25q0 -22 -28 -22q-18 0 -109.5 43t-138.5 71q-13 7 -20.5 7t-20.5 -7q-46 -27 -137.5 -69.5t-110.5 -42.5zM1397 205q0 -81 19.5 -112t92.5 -44 q68 -12 68 -37q0 -22 -59 -22t-116.5 5t-96.5 5q-40 0 -100.5 -5t-119.5 -5t-59 22q0 25 68 37q139 26 139 150v389v5q0 25 -10 25h-783q-7 0 -8.5 -4t-1.5 -18v-379q0 -64 45.5 -110t116.5 -58q67 -11 67 -37q0 -22 -59 -22q-58 0 -126.5 5t-113.5 5q-41 0 -104 -5t-121 -5 q-59 0 -59 22q0 26 67 37q74 13 98.5 45.5t24.5 108.5v925q0 77 -18 105t-90 41q-68 12 -68 41q0 22 60 22q59 0 116 -3t94 -3q39 0 99 3t119 3t59 -22q0 -29 -68 -41q-75 -13 -107 -48.5t-32 -97.5v-393q0 -18 29 -18h760q14 0 14 24v389q0 59 -31 95t-104 49 q-68 12 -68 41q0 22 60 22q58 0 125.5 -3t111.5 -3q32 0 79 3t107 3t60 -22q0 -29 -68 -41q-70 -12 -89 -44t-19 -100v-925z" />
<glyph unicode="&#x125;" horiz-adv-x="1310" d="M30 0zM669 1266q-50 -60 -135 -172q-12 -16 -31 -31t-30 -15q-9 0 -13 3.5t-5 8.5t-1 15q0 20 68 147t113 201q21 37 41 37t41 -37q46 -76 114 -202t68 -146q0 -15 -3 -21t-16 -6q-11 0 -30.5 15t-30.5 31q-52 69 -135 172q-7 10 -15 0zM911 721q0 62 -27.5 97.5 t-90.5 45.5q-20 3 -35 14t-15 25q0 11 14 18t27 7q41 0 105 -5t100 -5q35 0 98.5 5t104.5 5q13 0 27 -7t14 -18q0 -14 -14.5 -25t-34.5 -14q-119 -19 -119 -143v-559q0 -51 35.5 -75t99.5 -36q49 -9 49 -33q0 -11 -14 -17.5t-27 -6.5q-39 0 -107 6t-112 6t-113 -6t-108 -6 q-13 0 -27 6.5t-14 17.5q0 24 49 33q64 12 99.5 36t35.5 75v270q0 7 -1.5 8.5t-6.5 1.5q-218 4 -260 4q-53 0 -237 -4q-7 0 -7 -14v-266q0 -51 36 -74.5t100 -36.5q49 -9 49 -33q0 -11 -14 -17.5t-27 -6.5q-39 0 -107 6t-112 6t-113.5 -6t-108.5 -6q-13 0 -27 6.5t-14 17.5 q0 24 50 33q64 12 99.5 36t35.5 75v559q0 63 -28 98t-91 45q-20 3 -34.5 14t-14.5 25q0 11 14 18t27 7q41 0 105 -5t100 -5q35 0 98 5t104 5q13 0 27 -7t14 -18q0 -14 -14.5 -25t-34.5 -14q-63 -10 -91 -45t-28 -98v-191q0 -12 21 -12q208 -4 229 -4q72 0 252 4q10 0 10 17 v186z" />
<glyph unicode="&#x126;" horiz-adv-x="1765" d="M1464 205q1 -42 4.5 -64.5t14.5 -43.5t33.5 -31t60.5 -17q68 -12 68 -37q0 -22 -60 -22q-59 0 -116.5 5t-96.5 5q-40 0 -100 -5t-119 -5t-59 22q0 26 67 37q139 26 139 150q2 69 2 140.5t-1 150.5t-1 118q0 15 -10 15q-408 3 -827 0q-7 0 -8.5 -4.5t-1.5 -18.5 q0 -55 1 -177t1 -206q0 -64 44 -110t115 -58q68 -12 68 -37q0 -22 -59 -22q-58 0 -126.5 5t-113.5 5q-41 0 -104 -5t-121 -5q-60 0 -60 22q0 25 68 37q74 13 98.5 45.5t24.5 108.5v731h-133q-12 0 -20.5 13t-8.5 24q0 14 15 25.5t34 11.5h113v120q0 76 -18.5 104.5 t-90.5 41.5q-67 11 -67 41q0 22 59 22t116.5 -3t94.5 -3q39 0 98.5 3t118.5 3t59 -22q0 -30 -67 -41q-75 -13 -107 -48.5t-32 -97.5v-120h6h839v122q0 59 -30 95t-103 49q-67 11 -67 41q0 22 59 22q58 0 126 -3t112 -3q32 0 79 3t107 3q59 0 59 -22q0 -30 -67 -41 q-70 -12 -89.5 -44t-19.5 -100v-122h138q11 0 20.5 -9.5t5.5 -19.5q-23 -45 -63 -45h-101v-729zM1298 934h-843h-2v-199q0 -18 28 -18q404 -8 805 0q14 0 14 24q0 125 -2 193z" />
<glyph unicode="&#x127;" horiz-adv-x="1017" d="M874 139q0 -64 89 -90q47 -16 47 -37q0 -18 -47 -18q-41 0 -83 5t-77 5t-73 -5t-79 -5q-47 0 -47 18q0 21 47 37q80 23 80 90v418q0 75 -61 129.5t-131 54.5q-43 0 -93 -11.5t-77 -33.5q-33 -27 -44.5 -56t-11.5 -91v-416q1 -38 21 -55.5t57 -28.5q47 -16 47 -37 q0 -18 -47 -18q-41 0 -77.5 5t-71.5 5t-77 -5t-83 -5q-47 0 -47 18q0 21 47 37q26 8 42 15t31 25t15 44v969h-111q-12 0 -20 10.5t-8 20.5q0 14 15 25t34 11h90q-3 121 -92 140q-15 3 -15.5 25.5t13.5 25.5q47 11 85 23.5t92.5 34.5t59.5 24q11 4 19 -12q0 -6 -4.5 -30 t-9 -83t-5.5 -148h287q11 0 21 -9t6 -19q-20 -39 -64 -39h-250v-307q0 -56 17 -76q173 129 309 129q103 0 169 -65t66 -181v-463z" />
<glyph unicode="&#x128;" horiz-adv-x="696" d="M19 0zM492 1489q-26 0 -124 9t-124 9q-24 0 -45 -13t-32.5 -29t-22.5 -29t-17 -13q-13 0 -26 10.5t-13 24.5q0 53 61 117.5t117 64.5q26 0 119.5 -11t118.5 -11q31 0 56.5 20t41.5 39.5t25 19.5q15 0 25 -9.5t10 -24.5q0 -48 -57.5 -111t-112.5 -63zM266 1126 q0 71 -30 102.5t-107 45.5q-68 12 -68 41q0 22 60 22q58 0 126 -3t113 -3q41 0 103.5 3t120.5 3q59 0 59 -22q0 -29 -68 -41q-79 -14 -112 -46t-33 -102v-925q0 -69 40.5 -103.5t121.5 -48.5q67 -11 67 -37q0 -22 -59 -22q-58 0 -126.5 5t-113.5 5q-50 0 -127.5 -5 t-134.5 -5q-59 0 -59 22q0 26 67 37q81 14 120.5 48.5t39.5 103.5v925z" />
<glyph unicode="&#x129;" horiz-adv-x="645" d="M19 0zM76 1075q-14 0 -21.5 12t-7.5 29q0 19 73 95.5t107 76.5q25 0 110 -8.5t110 -8.5q32 0 57 17.5t39.5 35t19.5 17.5q15 0 24 -10t9 -25q0 -19 -70 -94.5t-104 -75.5q-26 0 -114.5 7.5t-114.5 7.5q-22 0 -48 -19t-44.5 -38t-24.5 -19zM30 0zM324 6q-44 0 -113.5 -6 t-108.5 -6q-13 0 -27 6.5t-14 17.5q0 24 50 33q64 12 99.5 36t35.5 75v559q0 64 -27.5 98.5t-91.5 44.5q-20 3 -34.5 14t-14.5 25q0 11 14 18t27 7q41 0 105 -5t100 -5q35 0 98 5t104 5q13 0 27 -7t14 -18q0 -14 -14.5 -25t-34.5 -14q-64 -10 -91.5 -44.5t-27.5 -98.5v-559 q0 -51 36 -74.5t100 -36.5q49 -9 49 -33q0 -11 -14 -17.5t-27 -6.5q-39 0 -107 6t-112 6z" />
<glyph unicode="&#x12a;" horiz-adv-x="696" d="M19 0zM112 1591h539q9 0 18 -7.5t9 -16.5q0 -31 -20 -58.5t-44 -27.5h-522q-11 0 -20 7.5t-9 16.5q0 24 12 55t37 31zM266 1126q0 71 -30 102.5t-107 45.5q-68 12 -68 41q0 22 60 22q58 0 126 -3t113 -3q41 0 103.5 3t120.5 3q59 0 59 -22q0 -29 -68 -41 q-79 -14 -112 -46t-33 -102v-925q0 -69 40.5 -103.5t121.5 -48.5q67 -11 67 -37q0 -22 -59 -22q-58 0 -126.5 5t-113.5 5q-50 0 -127.5 -5t-134.5 -5q-59 0 -59 22q0 26 67 37q81 14 120.5 48.5t39.5 103.5v925z" />
<glyph unicode="&#x12b;" horiz-adv-x="645" d="M12 0zM125 1188h416q9 0 17.5 -7.5t8.5 -16.5q0 -37 -16.5 -62.5t-46.5 -25.5h-399q-11 0 -20 7.5t-9 16.5q0 24 12 56t37 32zM30 0zM324 6q-44 0 -113.5 -6t-108.5 -6q-13 0 -27 6.5t-14 17.5q0 24 50 33q64 12 99.5 36t35.5 75v559q0 64 -27.5 98.5t-91.5 44.5 q-20 3 -34.5 14t-14.5 25q0 11 14 18t27 7q41 0 105 -5t100 -5q35 0 98 5t104 5q13 0 27 -7t14 -18q0 -14 -14.5 -25t-34.5 -14q-64 -10 -91.5 -44.5t-27.5 -98.5v-559q0 -51 36 -74.5t100 -36.5q49 -9 49 -33q0 -11 -14 -17.5t-27 -6.5q-39 0 -107 6t-112 6z" />
<glyph unicode="&#x12c;" horiz-adv-x="696" d="M19 0zM129 1690q16 -28 41.5 -54t79.5 -50.5t120 -24.5q95 0 155.5 41t86.5 88q24 43 45 43q14 0 17.5 -12.5t3.5 -37.5q0 -100 -93.5 -183t-214.5 -83q-125 0 -216 76.5t-91 189.5q0 25 3.5 37.5t17.5 12.5q21 0 45 -43zM266 1126q0 71 -30 102.5t-107 45.5 q-68 12 -68 41q0 22 60 22q58 0 126 -3t113 -3q41 0 103.5 3t120.5 3q59 0 59 -22q0 -29 -68 -41q-79 -14 -112 -46t-33 -102v-925q0 -69 40.5 -103.5t121.5 -48.5q67 -11 67 -37q0 -22 -59 -22q-58 0 -126.5 5t-113.5 5q-50 0 -127.5 -5t-134.5 -5q-59 0 -59 22q0 26 67 37 q81 14 120.5 48.5t39.5 103.5v925z" />
<glyph unicode="&#x12d;" horiz-adv-x="645" d="M30 0zM163 1298q8 -43 47.5 -71.5t110.5 -28.5t110.5 28.5t47.5 71.5q9 43 31 43q30 0 30 -49q0 -84 -59 -150.5t-160 -66.5t-160 66.5t-59 150.5q0 21 8.5 35t22.5 14q21 0 30 -43zM30 0zM324 6q-44 0 -113.5 -6t-108.5 -6q-13 0 -27 6.5t-14 17.5q0 24 50 33 q64 12 99.5 36t35.5 75v559q0 64 -27.5 98.5t-91.5 44.5q-20 3 -34.5 14t-14.5 25q0 11 14 18t27 7q41 0 105 -5t100 -5q35 0 98 5t104 5q13 0 27 -7t14 -18q0 -14 -14.5 -25t-34.5 -14q-64 -10 -91.5 -44.5t-27.5 -98.5v-559q0 -51 36 -74.5t100 -36.5q49 -9 49 -33 q0 -11 -14 -17.5t-27 -6.5q-39 0 -107 6t-112 6z" />
<glyph unicode="&#x12e;" horiz-adv-x="696" d="M19 0zM281 -588q-97 0 -165.5 67.5t-68.5 164.5q0 42 19.5 86.5t50 82t68 73t75 62.5t68 47.5t49.5 30.5l20 11h54q-9 -6 -24.5 -17.5t-55.5 -48t-70 -75.5t-55 -97.5t-25 -115.5q0 -53 40 -89t95 -36q25 0 54.5 11.5t49.5 25t40.5 28.5t23.5 17q7 5 16 1.5t9 -14.5 q0 -66 -92.5 -140.5t-175.5 -74.5zM266 1126q0 71 -30 102.5t-107 45.5q-68 12 -68 41q0 22 60 22q58 0 126 -3t113 -3q41 0 103.5 3t120.5 3q59 0 59 -22q0 -29 -68 -41q-79 -14 -112 -46t-33 -102v-925q0 -69 40.5 -103.5t121.5 -48.5q67 -11 67 -37q0 -22 -59 -22 q-58 0 -126.5 5t-113.5 5q-50 0 -127.5 -5t-134.5 -5q-59 0 -59 22q0 26 67 37q81 14 120.5 48.5t39.5 103.5v925z" />
<glyph unicode="&#x12f;" horiz-adv-x="645" d="M7 0zM220 -610q-94 0 -150.5 55.5t-56.5 165.5q0 45 15.5 91.5t40.5 85t55 74.5t60.5 63t55.5 48t41 31l15 11h53q-7 -5 -19.5 -15t-44.5 -43.5t-56 -71t-44 -97t-20 -121.5q0 -66 34.5 -104t88.5 -38q32 0 59.5 10.5t43.5 21.5t18 11q16 0 16 -14q0 -38 -64 -101 t-141 -63zM324 6q-44 0 -113.5 -6t-108.5 -6q-13 0 -27 6.5t-14 17.5q0 24 50 33q64 12 99.5 36t35.5 75v559q0 64 -27.5 98.5t-91.5 44.5q-20 3 -34.5 14t-14.5 25q0 11 14 18t27 7q41 0 105 -5t100 -5q35 0 98 5t104 5q13 0 27 -7t14 -18q0 -14 -14.5 -25t-34.5 -14 q-64 -10 -91.5 -44.5t-27.5 -98.5v-559q0 -51 36 -74.5t100 -36.5q49 -9 49 -33q0 -11 -14 -17.5t-27 -6.5q-39 0 -107 6t-112 6z" />
<glyph unicode="&#x130;" horiz-adv-x="696" d="M19 0zM352 1708q46 0 79.5 -33.5t33.5 -79.5t-33.5 -79t-79.5 -33t-79.5 33t-33.5 79t33.5 79.5t79.5 33.5zM266 1126q0 71 -30 102.5t-107 45.5q-68 12 -68 41q0 22 60 22q58 0 126 -3t113 -3q41 0 103.5 3t120.5 3q59 0 59 -22q0 -29 -68 -41q-79 -14 -112 -46 t-33 -102v-925q0 -69 40.5 -103.5t121.5 -48.5q67 -11 67 -37q0 -22 -59 -22q-58 0 -126.5 5t-113.5 5q-50 0 -127.5 -5t-134.5 -5q-59 0 -59 22q0 26 67 37q81 14 120.5 48.5t39.5 103.5v925z" />
<glyph unicode="&#x131;" horiz-adv-x="645" d="M30 0zM324 6q-44 0 -113.5 -6t-108.5 -6q-13 0 -27 6.5t-14 17.5q0 24 50 33q64 12 99.5 36t35.5 75v559q0 64 -27.5 98.5t-91.5 44.5q-20 3 -34.5 14t-14.5 25q0 11 14 18t27 7q41 0 105 -5t100 -5q35 0 98 5t104 5q13 0 27 -7t14 -18q0 -14 -14.5 -25t-34.5 -14 q-64 -10 -91.5 -44.5t-27.5 -98.5v-559q0 -51 36 -74.5t100 -36.5q49 -9 49 -33q0 -11 -14 -17.5t-27 -6.5q-39 0 -107 6t-112 6z" />
<glyph unicode="&#x132;" horiz-adv-x="1370" d="M19 0zM854 -324q135 0 135 324v1128q1 70 -28.5 101t-106.5 45q-68 12 -68 41q0 22 60 22q58 0 126 -3t113 -3q34 0 83.5 3t109.5 3q59 0 59 -22q0 -30 -67 -41q-73 -13 -94 -42t-23 -104v-837q0 -125 -7 -217.5t-13.5 -142t-26 -96.5t-27 -59t-34.5 -50 q-94 -136 -252 -136q-95 0 -153 26t-58 60q0 42 22.5 77.5t50.5 35.5q39 0 61.5 -12t41.5 -41q40 -60 96 -60zM266 1126q0 71 -30 102.5t-107 45.5q-68 12 -68 41q0 22 60 22q58 0 126 -3t113 -3q41 0 103.5 3t120.5 3q59 0 59 -22q0 -29 -68 -41q-79 -14 -112 -46t-33 -102 v-925q0 -69 40.5 -103.5t121.5 -48.5q67 -11 67 -37q0 -22 -59 -22q-58 0 -126.5 5t-113.5 5q-50 0 -127.5 -5t-134.5 -5q-59 0 -59 22q0 26 67 37q81 14 120.5 48.5t39.5 103.5v925z" />
<glyph unicode="&#x133;" horiz-adv-x="874" d="M30 0zM733 723q0 63 -28 97t-91 44q-20 3 -34.5 14t-14.5 25q0 11 14 18t27 7q41 0 105 -5t100 -5q35 0 98 5t104 5q13 0 27 -7t14 -18q0 -14 -14.5 -25t-34.5 -14q-63 -10 -91 -44t-28 -97v-444q0 -209 -10 -297q-20 -152 -110 -244q-45 -47 -107.5 -71.5t-112.5 -24.5 q-60 0 -115 26.5t-55 57.5q0 35 30.5 69.5t55.5 34.5q24 0 47 -15.5t38 -34.5t34.5 -34.5t38.5 -15.5q43 0 74 43.5t35 120.5q4 72 4 198v631zM324 6q-44 0 -113.5 -6t-108.5 -6q-13 0 -27 6.5t-14 17.5q0 24 50 33q64 12 99.5 36t35.5 75v559q0 64 -27.5 98.5t-91.5 44.5 q-20 3 -34.5 14t-14.5 25q0 11 14 18t27 7q41 0 105 -5t100 -5q35 0 98 5t104 5q13 0 27 -7t14 -18q0 -14 -14.5 -25t-34.5 -14q-64 -10 -91.5 -44.5t-27.5 -98.5v-559q0 -51 36 -74.5t100 -36.5q49 -9 49 -33q0 -11 -14 -17.5t-27 -6.5q-39 0 -107 6t-112 6z" />
<glyph unicode="&#x134;" horiz-adv-x="614" d="M0 0zM86 1436q-31 0 -31 20q0 13 15 25l200 180q31 28 46.5 36.5t37.5 8.5t37.5 -8.5t46.5 -36.5l201 -180q12 -10 12 -25q0 -22 -28 -22q-18 0 -109.5 43t-138.5 71q-13 7 -20.5 7t-20.5 -7q-46 -27 -137.5 -69.5t-110.5 -42.5zM131 -324q135 0 135 324v1128 q1 70 -28.5 101t-106.5 45q-68 12 -68 41q0 22 60 22q58 0 126 -3t113 -3q34 0 83.5 3t109.5 3q59 0 59 -22q0 -30 -67 -41q-73 -13 -94 -42t-23 -104v-837q0 -125 -7 -217.5t-13.5 -142t-26 -96.5t-27 -59t-34.5 -50q-94 -136 -252 -136q-95 0 -153 26t-58 60 q0 42 22.5 77.5t50.5 35.5q39 0 61.5 -12t41.5 -41q40 -60 96 -60z" />
<glyph unicode="&#x135;" horiz-adv-x="645" d="M0 0zM314 1293q-50 -60 -135 -172q-12 -16 -31 -31t-30 -15q-9 0 -13 3.5t-5 8.5t-1 15q0 20 68 147t113 201q21 37 41 37t41 -37q46 -76 114 -202t68 -146q0 -15 -3 -21t-16 -6q-11 0 -30.5 15t-30.5 31q-52 69 -135 172q-7 10 -15 0zM246 723q0 63 -28 97t-91 44 q-20 3 -34.5 14t-14.5 25q0 11 14 18t27 7q41 0 105 -5t100 -5q35 0 98 5t104 5q13 0 27 -7t14 -18q0 -14 -14.5 -25t-34.5 -14q-63 -10 -91 -44t-28 -97v-444q0 -209 -10 -297q-20 -152 -110 -244q-45 -47 -107.5 -71.5t-112.5 -24.5q-60 0 -115 26.5t-55 57.5 q0 35 30.5 69.5t55.5 34.5q24 0 47 -15.5t38 -34.5t34.5 -34.5t38.5 -15.5q43 0 74 43.5t35 120.5q4 72 4 198v631z" />
<glyph unicode="&#x136;" horiz-adv-x="1394" d="M31 0zM641 -563q-27 0 -27 18q0 17 29 27q55 20 82 66.5t27 95.5q0 46 -62 59q-39 8 -70.5 34t-31.5 58q0 38 25.5 63t68.5 25q75 0 127.5 -56.5t52.5 -141.5q0 -61 -27 -111.5t-65 -78.5t-72.5 -43t-56.5 -15zM1350 -10q-62 0 -146 5t-139 5q-20 0 -67.5 -1t-98.5 -1 q-59 0 -59 22q0 24 55 35q57 14 57 41q0 17 -30 51l-435 480q-35 35 -47 35q-8 0 -8 -44q0 -120 10 -393q3 -74 31.5 -118.5t99.5 -57.5q68 -12 68 -37q0 -22 -59 -22q-60 0 -113 7t-88 7q-49 0 -125 -7t-133 -7q-60 0 -60 22q0 25 68 37q77 14 107 48t30 110v921 q0 70 -30 101t-107 45q-68 12 -68 41q0 22 60 22q58 0 122.5 -2t106.5 -2q35 0 87 2t112 2q59 0 59 -22q0 -30 -67 -41q-71 -12 -91 -45t-20 -101v-383q0 -38 10 -38t27.5 11.5t28.5 24.5l409 418q31 31 31 62q0 38 -39 47q-35 9 -49 18t-14 23q0 22 59 22h111q229 0 317 8 h14q45 0 45 -22q0 -30 -67 -41q-192 -34 -311 -135q-206 -175 -394 -383q-13 -13 11 -37l495 -528q71 -80 106.5 -104t118.5 -42q68 -14 68 -37q0 -22 -59 -22z" />
<glyph unicode="&#x137;" horiz-adv-x="1163" d="M30 0zM391 -563q-27 0 -27 18q0 17 29 27q55 20 82 66.5t27 95.5q0 46 -62 59q-39 8 -70.5 34t-31.5 58q0 38 25.5 63t68.5 25q75 0 127.5 -56.5t52.5 -141.5q0 -61 -27 -111.5t-65 -78.5t-72.5 -43t-56.5 -15zM1104 51q49 -6 49 -33q0 -11 -14 -17.5t-27 -6.5 q-41 0 -136.5 4.5t-148.5 5.5q-17 0 -37.5 -2t-64.5 -2q-13 0 -27 7t-14 18q0 6 1.5 10t6.5 7.5t8.5 5.5t12.5 6t14 6q19 9 21 26.5t-11 30.5l-280 316q-26 28 -43 28q-15 0 -15 -39v-258q0 -57 18 -80t72 -33q50 -9 50 -33q0 -11 -14 -17.5t-27 -6.5q-42 0 -92 6t-82 6 q-44 0 -113.5 -6t-108.5 -6q-13 0 -27 6.5t-14 17.5q0 24 50 33q64 12 99.5 36t35.5 75v559q0 63 -28 98t-91 45q-20 3 -34.5 14t-14.5 25q0 11 14 18t27 7q41 0 105 -5t100 -5q35 0 88 4t94 4q13 0 27 -7t14 -18q0 -14 -14.5 -25t-34.5 -14q-45 -7 -72 -45.5t-27 -97.5 v-184q0 -29 15 -29q17 0 114 78q147 117 234 215q7 8 7.5 15t-2 12.5t-11 11.5t-16 10.5t-19.5 10.5l-10 5t-9 4t-7.5 3.5t-6.5 4.5t-4 5t-3 6.5t-1 7.5q0 11 14 18t27 7q41 0 96.5 -1t91.5 -1q41 0 95 7t61 7q41 -3 41 -23q0 -14 -14.5 -26t-34.5 -15q-41 -7 -73 -18.5 t-50 -22.5t-62 -41q-65 -44 -154.5 -113t-142.5 -122q-14 -14 7 -37l270 -296q134 -149 252 -167z" />
<glyph unicode="&#x138;" horiz-adv-x="1054" d="M307 473q0 -18 12 -14q32 6 56 24q276 202 305 240q2 3 3 6.5t-0.5 6.5t-3 5.5t-5.5 5.5t-7 5.5t-8.5 5.5t-9.5 5t-10 5.5t-10 5.5q-12 8 -12 28.5t12 20.5q20 0 50 -2t60 -2q81 0 191 12q8 1 11.5 -10t0 -23.5t-11.5 -15.5q-12 -4 -35 -11t-36 -11t-30 -11.5t-30 -15.5 q-21 -13 -120.5 -86.5t-184.5 -140.5q-23 -19 -15 -29q33 -38 75 -83.5t82.5 -86.5t72 -73t61 -60.5t31.5 -30.5q96 -92 176 -108q8 -2 11.5 -14.5t0 -24t-11.5 -10.5q-149 16 -268 18q-29 1 -71 -4.5t-83 -5.5q-13 0 -13 24t13 25q44 6 63.5 31.5t-0.5 48.5q-1 1 -33 35.5 t-71 76t-92 95t-94 90.5q-3 3 -8 0t-9 -8l-4 -4q1 -40 2 -123t2 -127q0 -59 27 -88q11 -12 46 -18.5t38 -8.5q12 -8 12.5 -28.5t-12.5 -20.5q-41 0 -94 5t-88 5t-89.5 -5t-95.5 -5q-13 0 -13 21t13 28q2 1 36.5 6.5t49.5 20.5q27 29 27 82q0 444 -2 495q-2 69 -80 129 q-11 7 -9.5 24.5t13.5 18.5q28 1 49 2.5t34.5 2.5t30.5 4t25 5t29.5 7t34.5 8q32 3 29 -29q-13 -102 -13 -157q-2 -104 -2 -189z" />
<glyph unicode="&#x139;" horiz-adv-x="1175" d="M27 0zM316 1427q-13 0 -13 13q0 12 11 30q71 120 157 244q19 27 56 27q30 0 74 -14t44 -33q0 -16 -26 -39q-95 -81 -267 -209q-24 -19 -36 -19zM430 1161v-964q0 -68 31 -96.5t127 -28.5h299q12 0 51 15.5t63 37.5q41 36 61 63.5t46 81.5q7 20 20 41t25 21q11 0 18 -12 t7 -25q0 -2 -1 -5.5t-1 -4.5q-48 -176 -56 -260q-4 -35 -28 -35q-146 0 -377.5 5t-325.5 5q-45 0 -114 -2.5t-115 -5.5l-47 -2q-58 0 -58 24t45 35q84 16 125 49.5t41 98.5v950q0 71 -22.5 92t-102.5 35q-67 11 -67 41q0 22 59 22q58 0 122.5 -3t106.5 -3q49 0 125.5 3 t133.5 3q59 0 59 -22q0 -29 -68 -41q-39 -7 -59 -11t-48 -13t-41.5 -20t-23.5 -28.5t-10 -40.5z" />
<glyph unicode="&#x13a;" horiz-adv-x="962" d="M30 0zM340 1112q-40 -45 -62 -45q-12 0 -15 5.5t-3 21.5q0 20 60 135.5t106 195.5q9 15 24.5 26t30.5 11q42 0 71 -12t29 -35q0 -19 -87.5 -125.5t-153.5 -177.5zM399 160q0 -54 14.5 -72t59.5 -18h201q58 0 102 38.5t68 90.5q15 30 37 30q20 0 20 -32q-3 -25 -11 -56.5 t-19.5 -70.5t-14.5 -50q-1 -9 -12.5 -16.5t-22.5 -7.5q-109 0 -282 5t-236 5q-32 -1 -94.5 -6.5t-106.5 -5.5q-13 0 -27 6.5t-14 17.5q0 24 50 33q64 12 99.5 36t35.5 75v559q0 64 -27.5 98.5t-91.5 44.5q-20 3 -34.5 14t-14.5 25q0 11 14 18t27 7q41 0 105 -5t100 -5 q35 0 98 5t104 5q13 0 27 -7t14 -18q0 -14 -14.5 -25t-34.5 -14q-64 -10 -91.5 -44.5t-27.5 -98.5v-561z" />
<glyph unicode="&#x13b;" horiz-adv-x="1175" d="M27 0zM557 -563q-27 0 -27 18q0 17 29 27q55 20 82 66.5t27 95.5q0 46 -62 59q-39 8 -70.5 34t-31.5 58q0 38 25.5 63t68.5 25q75 0 127.5 -56.5t52.5 -141.5q0 -61 -27 -111.5t-65 -78.5t-72.5 -43t-56.5 -15zM430 1161v-964q0 -68 31 -96.5t127 -28.5h299q12 0 51 15.5 t63 37.5q41 36 61 63.5t46 81.5q7 20 20 41t25 21q11 0 18 -12t7 -25q0 -2 -1 -5.5t-1 -4.5q-48 -176 -56 -260q-4 -35 -28 -35q-146 0 -377.5 5t-325.5 5q-45 0 -114 -2.5t-115 -5.5l-47 -2q-58 0 -58 24t45 35q84 16 125 49.5t41 98.5v950q0 71 -22.5 92t-102.5 35 q-67 11 -67 41q0 22 59 22q58 0 122.5 -3t106.5 -3q49 0 125.5 3t133.5 3q59 0 59 -22q0 -29 -68 -41q-39 -7 -59 -11t-48 -13t-41.5 -20t-23.5 -28.5t-10 -40.5z" />
<glyph unicode="&#x13c;" horiz-adv-x="962" d="M452 -307q-38 8 -70 34t-32 57q0 38 25.5 63.5t68.5 25.5q75 0 128 -57t53 -142q0 -93 -62 -160t-145 -85q-23 -5 -33.5 3t-4.5 20.5t26 19.5q55 20 82 66.5t27 95.5q0 44 -63 59zM496 879q-16 -4 -40.5 -9.5t-38.5 -9t-30 -11t-25 -18.5q-12 -11 -19 -43.5t-7 -64.5 v-547q0 -51 23 -80.5t87 -29.5h197q11 0 38.5 10t43.5 26q7 7 13 13.5t12 14.5t10 13.5t9.5 14.5t8 13t8.5 15t7.5 14t8 16.5t7.5 16.5q4 7 22 12t35 3q8 0 14 -6t5 -13q-38 -141 -45 -209q0 -9 -10 -16.5t-21 -7.5q-115 0 -298.5 4t-246.5 4l-217 -6q-5 0 -7 11t-0.5 22 t7.5 12q5 1 14.5 3.5t13 3.5t11 3t10.5 3.5t9 3.5t9.5 4.5t8.5 5.5t9 7l9 9q41 41 41 86v553q0 85 -18 106l-8.5 8.5l-6.5 6.5t-7 5.5t-6.5 4.5t-7 4t-7 3t-9 3t-10.5 3t-13 3.5t-15 4.5q-10 2 -11.5 25.5t11.5 23.5q29 0 76.5 -2t78.5 -2q53 0 151 3.5t116 2.5 q14 0 12 -23.5t-12 -25.5z" />
<glyph unicode="&#x13d;" horiz-adv-x="1175" d="M27 0zM870 1014q7 57 6.5 104t-10.5 140q-4 39 39 73q26 19 40 25t38 6q22 0 29 -27t2 -63q-9 -66 -23 -116t-24.5 -74t-30.5 -64q-9 -17 -27 -34t-26 -17q-7 0 -11 16t-2 31zM430 1161v-964q0 -68 31 -96.5t127 -28.5h299q12 0 51 15.5t63 37.5q41 36 61 63.5t46 81.5 q7 20 20 41t25 21q11 0 18 -12t7 -25q0 -2 -1 -5.5t-1 -4.5q-48 -176 -56 -260q-4 -35 -28 -35q-146 0 -377.5 5t-325.5 5q-45 0 -114 -2.5t-115 -5.5l-47 -2q-58 0 -58 24t45 35q84 16 125 49.5t41 98.5v950q0 71 -22.5 92t-102.5 35q-67 11 -67 41q0 22 59 22 q58 0 122.5 -3t106.5 -3q49 0 125.5 3t133.5 3q59 0 59 -22q0 -29 -68 -41q-39 -7 -59 -11t-48 -13t-41.5 -20t-23.5 -28.5t-10 -40.5z" />
<glyph unicode="&#x13e;" horiz-adv-x="909" d="M666 604q7 57 6.5 104t-10.5 140q-2 20 10 41t28 33q34 26 47 28q8 2 23 2q22 0 29 -27t2 -63q-9 -66 -23 -116t-24.5 -74t-30.5 -64q-9 -18 -23.5 -34.5t-21.5 -16.5t-10.5 16t-1.5 31zM496 879q-16 -4 -40.5 -9.5t-38.5 -9t-30 -11t-25 -18.5q-12 -11 -19 -43.5 t-7 -64.5v-547q0 -51 23 -80.5t87 -29.5h197q11 0 38.5 10t43.5 26q7 7 13 13.5t12 14.5t10 13.5t9.5 14.5t8 13t8.5 15t7.5 14t8 16.5t7.5 16.5q4 7 22 12t35 3q8 0 14 -6t5 -13q-38 -141 -45 -209q0 -9 -10 -16.5t-21 -7.5q-115 0 -298.5 4t-246.5 4l-217 -6q-5 0 -7 11 t-0.5 22t7.5 12q5 1 14.5 3.5t13 3.5t11 3t10.5 3.5t9 3.5t9.5 4.5t8.5 5.5t9 7l9 9q41 41 41 86v553q0 85 -18 106l-8.5 8.5l-6.5 6.5t-7 5.5t-6.5 4.5t-7 4t-7 3t-9 3t-10.5 3t-13 3.5t-15 4.5q-10 2 -11.5 25.5t11.5 23.5q29 0 76.5 -2t78.5 -2q53 0 151 3.5t116 2.5 q14 0 12 -23.5t-12 -25.5z" />
<glyph unicode="&#x13f;" horiz-adv-x="1175" d="M27 0zM823 848q43 0 73 -30t30 -73t-30 -72.5t-73 -29.5t-72.5 29.5t-29.5 72.5t29.5 73t72.5 30zM430 1161v-964q0 -68 31 -96.5t127 -28.5h299q12 0 51 15.5t63 37.5q41 36 61 63.5t46 81.5q7 20 20 41t25 21q11 0 18 -12t7 -25q0 -2 -1 -5.5t-1 -4.5 q-48 -176 -56 -260q-4 -35 -28 -35q-146 0 -377.5 5t-325.5 5q-45 0 -114 -2.5t-115 -5.5l-47 -2q-58 0 -58 24t45 35q84 16 125 49.5t41 98.5v950q0 71 -22.5 92t-102.5 35q-67 11 -67 41q0 22 59 22q58 0 122.5 -3t106.5 -3q49 0 125.5 3t133.5 3q59 0 59 -22 q0 -29 -68 -41q-39 -7 -59 -11t-48 -13t-41.5 -20t-23.5 -28.5t-10 -40.5z" />
<glyph unicode="&#x140;" horiz-adv-x="983" d="M658 627q42 0 72 -30.5t30 -73.5t-30 -73t-72 -30t-71.5 30t-29.5 73t29.5 73.5t71.5 30.5zM496 879q-16 -4 -40.5 -9.5t-38.5 -9t-30 -11t-25 -18.5q-12 -11 -19 -43.5t-7 -64.5v-547q0 -51 23 -80.5t87 -29.5h197q11 0 38.5 10t43.5 26q7 7 13 13.5t12 14.5t10 13.5 t9.5 14.5t8 13t8.5 15t7.5 14t8 16.5t7.5 16.5q4 7 22 12t35 3q8 0 14 -6t5 -13q-38 -141 -45 -209q0 -9 -10 -16.5t-21 -7.5q-115 0 -298.5 4t-246.5 4l-217 -6q-5 0 -7 11t-0.5 22t7.5 12q5 1 14.5 3.5t13 3.5t11 3t10.5 3.5t9 3.5t9.5 4.5t8.5 5.5t9 7l9 9q41 41 41 86 v553q0 85 -18 106l-8.5 8.5l-6.5 6.5t-7 5.5t-6.5 4.5t-7 4t-7 3t-9 3t-10.5 3t-13 3.5t-15 4.5q-10 2 -11.5 25.5t11.5 23.5q29 0 76.5 -2t78.5 -2q53 0 151 3.5t116 2.5q14 0 12 -23.5t-12 -25.5z" />
<glyph unicode="&#x141;" horiz-adv-x="1200" d="M420 1161v-440l348 129q10 5 23.5 1.5t13.5 -13.5v-11.5v-11t-0.5 -9t-1 -9l-1.5 -7.5t-3 -7t-5 -6t-6.5 -6t-8.5 -4.5t-11 -4.5l-348 -127v-438q0 -68 31 -96.5t127 -28.5h299q12 0 51 15.5t63 37.5q41 36 61 63.5t46 81.5q7 20 20 41t25 21q14 0 20 -17t2 -30 q-47 -171 -55 -260q-4 -35 -29 -35q-146 0 -377 5t-325 5q-45 0 -114.5 -2.5t-116.5 -5.5l-46 -2q-57 0 -57 24t45 35q84 16 125 49.5t41 98.5v378l-133 -49q-11 -4 -24.5 3t-16.5 16q-9 11 -2.5 32t29.5 29l147 53v488q0 71 -22.5 92t-102.5 35q-68 12 -68 41q0 22 60 22 q58 0 122.5 -3t106.5 -3q49 0 125 3t133 3q60 0 60 -22q0 -29 -68 -41q-39 -7 -59 -11t-48 -13t-41.5 -20t-23.5 -28.5t-10 -40.5z" />
<glyph unicode="&#x142;" horiz-adv-x="909" d="M82 311q-10 -5 -23.5 2.5t-17.5 16.5q-9 11 -2 30t29 31l495 271q11 6 24 1.5t13 -14.5q0 -25 -1 -34.5t-9 -20.5t-27 -21zM496 879q-16 -4 -40.5 -9.5t-38.5 -9t-30 -11t-25 -18.5q-12 -11 -19 -43.5t-7 -64.5v-547q0 -51 23 -80.5t87 -29.5h197q11 0 38.5 10t43.5 26 q7 7 13 13.5t12 14.5t10 13.5t9.5 14.5t8 13t8.5 15t7.5 14t8 16.5t7.5 16.5q4 7 22 12t35 3q8 0 14 -6t5 -13q-38 -141 -45 -209q0 -9 -10 -16.5t-21 -7.5q-115 0 -298.5 4t-246.5 4l-217 -6q-5 0 -7 11t-0.5 22t7.5 12q5 1 14.5 3.5t13 3.5t11 3t10.5 3.5t9 3.5t9.5 4.5 t8.5 5.5t9 7l9 9q41 41 41 86v553q0 85 -18 106l-8.5 8.5l-6.5 6.5t-7 5.5t-6.5 4.5t-7 4t-7 3t-9 3t-10.5 3t-13 3.5t-15 4.5q-10 2 -11.5 25.5t11.5 23.5q29 0 76.5 -2t78.5 -2q53 0 151 3.5t116 2.5q14 0 12 -23.5t-12 -25.5z" />
<glyph unicode="&#x143;" horiz-adv-x="1576" d="M2 0zM777 1427q-13 0 -13 13q0 12 11 30q71 120 157 244q19 27 56 27q30 0 74 -14t44 -33q0 -16 -26 -39q-95 -81 -267 -209q-24 -19 -36 -19zM1262 1331q46 0 107.5 3t127.5 3q59 0 59 -22q0 -30 -67 -41q-75 -13 -101 -36t-28 -75q-4 -98 -4 -1147q0 -51 -43 -51 q-24 0 -72.5 34t-93.5 95q-24 33 -337.5 417.5t-391.5 479.5q-26 33 -43 33q-19 0 -19 -43q-10 -508 -10 -768q0 -141 131 -164q68 -12 68 -37q0 -22 -60 -22t-109 5t-83 5q-32 0 -79.5 -5t-107.5 -5q-59 0 -59 22q0 25 68 37q27 5 50.5 28t37 52.5t21 52.5t9.5 37 q37 317 37 819q0 101 -49.5 150t-152.5 82q-10 3 -22.5 8.5t-27 17.5t-14.5 23q0 29 47 29q67 -2 151 -6.5t165 -4.5q12 0 22 -6t13 -10t14 -18q27 -37 385 -488.5t395 -495.5q33 -40 51 -40t21 43q4 132 4 655v178q-1 37 -41.5 71.5t-77.5 41.5q-68 12 -68 41q0 22 60 22 h117z" />
<glyph unicode="&#x144;" horiz-adv-x="1228" d="M25 0zM676 1112q-40 -45 -62 -45q-12 0 -15 5.5t-3 21.5q0 20 60 135.5t106 195.5q9 15 24.5 26t30.5 11q42 0 71 -12t29 -35q0 -19 -87.5 -125.5t-153.5 -177.5zM1024 719v-676q0 -72 -33 -72q-42 0 -88 56l-506 623q-13 16 -29 28t-22 12q-14 0 -14 -55q0 -345 10 -473 q4 -54 26.5 -77t77.5 -34q50 -9 50 -33q0 -11 -14 -17.5t-27 -6.5q-42 0 -88.5 6t-77.5 6q-34 0 -85.5 -6t-92.5 -6q-13 0 -27 6.5t-14 17.5q0 24 49 33q59 11 86.5 34t32.5 77q3 42 8.5 228.5t5.5 240.5q0 41 -2.5 69t-11.5 57.5t-25 48.5t-44.5 34.5t-68.5 23.5 q-20 4 -34.5 14.5t-14.5 24.5q0 11 14 18t27 7q38 0 126 -4t144 -4q17 0 44 -31l489 -588q20 -27 27 -27q10 0 10 27v418q0 63 -28 99t-91 46q-20 3 -34.5 14t-14.5 25q0 11 14 18t27 7q41 0 90.5 -5t85.5 -5q35 0 75 5t81 5q13 0 27 -7t14 -18q0 -14 -15 -25t-35 -14 q-61 -10 -82.5 -44t-21.5 -101z" />
<glyph unicode="&#x145;" horiz-adv-x="1576" d="M2 0zM743 -563q-27 0 -27 18q0 17 29 27q55 20 82 66.5t27 95.5q0 46 -62 59q-39 8 -70.5 34t-31.5 58q0 38 25.5 63t68.5 25q75 0 127.5 -56.5t52.5 -141.5q0 -61 -27 -111.5t-65 -78.5t-72.5 -43t-56.5 -15zM1262 1331q46 0 107.5 3t127.5 3q59 0 59 -22q0 -30 -67 -41 q-75 -13 -101 -36t-28 -75q-4 -98 -4 -1147q0 -51 -43 -51q-24 0 -72.5 34t-93.5 95q-24 33 -337.5 417.5t-391.5 479.5q-26 33 -43 33q-19 0 -19 -43q-10 -508 -10 -768q0 -141 131 -164q68 -12 68 -37q0 -22 -60 -22t-109 5t-83 5q-32 0 -79.5 -5t-107.5 -5q-59 0 -59 22 q0 25 68 37q27 5 50.5 28t37 52.5t21 52.5t9.5 37q37 317 37 819q0 101 -49.5 150t-152.5 82q-10 3 -22.5 8.5t-27 17.5t-14.5 23q0 29 47 29q67 -2 151 -6.5t165 -4.5q12 0 22 -6t13 -10t14 -18q27 -37 385 -488.5t395 -495.5q33 -40 51 -40t21 43q4 132 4 655v178 q-1 37 -41.5 71.5t-77.5 41.5q-68 12 -68 41q0 22 60 22h117z" />
<glyph unicode="&#x146;" horiz-adv-x="1228" d="M25 0zM907 -598q-27 0 -27 18q0 17 29 27q55 20 82 66.5t27 95.5q0 46 -62 59q-39 8 -70.5 34t-31.5 58q0 38 25.5 63t68.5 25q75 0 127.5 -56.5t52.5 -141.5q0 -61 -27 -111.5t-65 -78.5t-72.5 -43t-56.5 -15zM1024 719v-676q0 -72 -33 -72q-42 0 -88 56l-506 623 q-13 16 -29 28t-22 12q-14 0 -14 -55q0 -345 10 -473q4 -54 26.5 -77t77.5 -34q50 -9 50 -33q0 -11 -14 -17.5t-27 -6.5q-42 0 -88.5 6t-77.5 6q-34 0 -85.5 -6t-92.5 -6q-13 0 -27 6.5t-14 17.5q0 24 49 33q59 11 86.5 34t32.5 77q3 42 8.5 228.5t5.5 240.5q0 41 -2.5 69 t-11.5 57.5t-25 48.5t-44.5 34.5t-68.5 23.5q-20 4 -34.5 14.5t-14.5 24.5q0 11 14 18t27 7q38 0 126 -4t144 -4q17 0 44 -31l489 -588q20 -27 27 -27q10 0 10 27v418q0 63 -28 99t-91 46q-20 3 -34.5 14t-14.5 25q0 11 14 18t27 7q41 0 90.5 -5t85.5 -5q35 0 75 5t81 5 q13 0 27 -7t14 -18q0 -14 -15 -25t-35 -14q-61 -10 -82.5 -44t-21.5 -101z" />
<glyph unicode="&#x147;" horiz-adv-x="1576" d="M2 0zM573 1704q19 0 110 -43t138 -70q13 -8 20.5 -8t20.5 8q48 28 139 71.5t109 43.5q13 0 20.5 -6.5t7.5 -16.5q0 -14 -12 -24l-201 -180q-31 -28 -46.5 -36.5t-37.5 -8.5t-37.5 8.5t-46.5 36.5l-200 180q-15 12 -15 24q0 9 9 15t22 6zM1262 1331q46 0 107.5 3t127.5 3 q59 0 59 -22q0 -30 -67 -41q-75 -13 -101 -36t-28 -75q-4 -98 -4 -1147q0 -51 -43 -51q-24 0 -72.5 34t-93.5 95q-24 33 -337.5 417.5t-391.5 479.5q-26 33 -43 33q-19 0 -19 -43q-10 -508 -10 -768q0 -141 131 -164q68 -12 68 -37q0 -22 -60 -22t-109 5t-83 5 q-32 0 -79.5 -5t-107.5 -5q-59 0 -59 22q0 25 68 37q27 5 50.5 28t37 52.5t21 52.5t9.5 37q37 317 37 819q0 101 -49.5 150t-152.5 82q-10 3 -22.5 8.5t-27 17.5t-14.5 23q0 29 47 29q67 -2 151 -6.5t165 -4.5q12 0 22 -6t13 -10t14 -18q27 -37 385 -488.5t395 -495.5 q33 -40 51 -40t21 43q4 132 4 655v178q-1 37 -41.5 71.5t-77.5 41.5q-68 12 -68 41q0 22 60 22h117z" />
<glyph unicode="&#x148;" horiz-adv-x="1228" d="M25 0zM653 1260q8 -10 15 0q92 124 135 174q40 45 59 45q13 0 16 -6t3 -21q0 -18 -66.5 -130t-113.5 -185q-23 -37 -41 -37t-41 37q-49 75 -115 186t-66 129q0 10 1 15t5 8.5t13 3.5q21 0 61 -45q43 -50 135 -174zM1024 719v-676q0 -72 -33 -72q-42 0 -88 56l-506 623 q-13 16 -29 28t-22 12q-14 0 -14 -55q0 -345 10 -473q4 -54 26.5 -77t77.5 -34q50 -9 50 -33q0 -11 -14 -17.5t-27 -6.5q-42 0 -88.5 6t-77.5 6q-34 0 -85.5 -6t-92.5 -6q-13 0 -27 6.5t-14 17.5q0 24 49 33q59 11 86.5 34t32.5 77q3 42 8.5 228.5t5.5 240.5q0 41 -2.5 69 t-11.5 57.5t-25 48.5t-44.5 34.5t-68.5 23.5q-20 4 -34.5 14.5t-14.5 24.5q0 11 14 18t27 7q38 0 126 -4t144 -4q17 0 44 -31l489 -588q20 -27 27 -27q10 0 10 27v418q0 63 -28 99t-91 46q-20 3 -34.5 14t-14.5 25q0 11 14 18t27 7q41 0 90.5 -5t85.5 -5q35 0 75 5t81 5 q13 0 27 -7t14 -18q0 -14 -15 -25t-35 -14q-61 -10 -82.5 -44t-21.5 -101z" />
<glyph unicode="&#x149;" horiz-adv-x="1628" d="M62 0zM1423 719v-676q0 -72 -33 -72q-42 0 -88 56l-506 623q-13 16 -29 28t-22 12q-14 0 -14 -55q0 -345 10 -473q4 -54 26.5 -77t77.5 -34q50 -9 50 -33q0 -11 -14 -17.5t-27 -6.5q-42 0 -88.5 6t-77.5 6q-34 0 -85.5 -6t-92.5 -6q-13 0 -27 6.5t-14 17.5q0 24 49 33 q59 11 86.5 34t32.5 77q3 42 8.5 228.5t5.5 240.5q0 41 -2.5 69t-11.5 57.5t-25 48.5t-44.5 34.5t-68.5 23.5q-20 4 -34.5 14.5t-14.5 24.5q0 11 14 18t27 7q38 0 126 -4t144 -4q17 0 44 -31l489 -588q20 -27 27 -27q10 0 10 27v418q0 63 -28 99t-91 46q-20 3 -34.5 14 t-14.5 25q0 11 14 18t27 7q41 0 90.5 -5t85.5 -5q35 0 75 5t81 5q13 0 27 -7t14 -18q0 -14 -15 -25t-35 -14q-61 -10 -82.5 -44t-21.5 -101zM62 444zM133 956q6 161 -6 312q-1 20 11 40.5t28 32.5q23 17 31.5 23.5t24.5 13t32 6.5q21 0 26.5 -37t-1.5 -69q-23 -159 -93 -317 q-8 -19 -20 -35.5t-19 -16.5q-14 0 -14 47z" />
<glyph unicode="&#x14a;" horiz-adv-x="1628" d="M838 -356q0 33 11.5 57.5t35.5 24.5q64 0 98 -48q27 -39 58 -49t85 -10q47 0 82 71.5t41 207.5q4 56 1 83.5t-19 49.5q-80 100 -196.5 247t-183.5 231t-172 211.5t-218 258.5q-26 30 -43.5 36.5t-23 -3t-5.5 -25.5q-19 -577 -12 -786q0 -26 12.5 -44t40.5 -42 q20 -18 63 -33.5t64 -36.5q8 -8 12 -19.5t-0.5 -21.5t-19.5 -10q-52 0 -123 5t-117 5q-43 0 -110.5 -5t-110.5 -5q-14 1 -12.5 20.5t12.5 30.5q16 17 53.5 28t53.5 29q27 30 39.5 57t15.5 66q6 79 10 153.5t6 127t3 133t1 121v144v153.5v20.5v20t-0.5 17.5t-1 18t-2.5 14.5 t-4 15t-5.5 12.5t-8.5 13q-42 49 -92.5 74.5t-83.5 27.5q-20 2 -20 30t20 28q36 -3 173 -1.5t163 1.5q9 0 16.5 -4.5t11.5 -10t10.5 -15.5t10.5 -15q107 -132 353.5 -452t426.5 -532q1 -1 9.5 -13.5t14 -17.5t12.5 -9t11.5 6.5t5.5 33.5q2 57 3 113t1.5 99t0 101.5t-1 91 t-2 100.5t-2.5 97t-3.5 113t-3.5 117q-1 22 -14.5 41.5t-30.5 32.5t-44.5 25.5t-44.5 18.5t-42.5 13.5t-26.5 7.5q-11 3 -11.5 27t11.5 24q53 0 129 -5t125 -5q43 0 110.5 5t110.5 5q6 0 10 -12.5t1.5 -25t-11.5 -13.5q-51 -5 -102 -45q-53 -40 -55 -82q-9 -157 -13.5 -313 t-5 -244t0.5 -288t1 -289q0 -36 -5.5 -91.5t-30.5 -148.5t-66 -156q-66 -100 -205 -100q-41 0 -81 6t-75.5 18.5t-57 35t-21.5 51.5z" />
<glyph unicode="&#x14b;" horiz-adv-x="1050" d="M303 141q0 -67 86 -92q47 -16 47 -37q0 -18 -47 -18q-41 0 -83 5t-77 5t-76.5 -5t-82.5 -5q-47 0 -47 18q0 21 47 37q26 8 42 15.5t31 25.5t17 45q7 293 0 432q-2 43 -7.5 69.5t-24.5 49t-52 29.5q-15 3 -15.5 25.5t13.5 25.5q107 25 225 113q5 4 10.5 -2.5t7.5 -14.5 q0 -9 -5.5 -47t-8 -63.5t1.5 -38.5q37 37 148 86t198 49q102 0 162 -63t61 -181q1 -46 3 -118t4 -223t0 -218q-3 -112 -13.5 -233.5t-26.5 -166.5q-42 -124 -115.5 -179.5t-164.5 -55.5q-92 0 -145 21q-17 7 -36.5 22t-19.5 25q0 27 18.5 62.5t36.5 35.5q13 0 26 -10.5 t24.5 -25t25 -29t34 -25t44.5 -10.5q41 0 82 30.5t55 81.5q27 93 29 416q1 86 0 224t-3 234l-1 95q-1 88 -52 139.5t-134 51.5q-107 0 -191 -64q-26 -19 -38.5 -47.5t-12.5 -87.5v-408z" />
<glyph unicode="&#x14c;" horiz-adv-x="1562" d="M45 0zM526 1591h539q9 0 18 -7.5t9 -16.5q0 -31 -20 -58.5t-44 -27.5h-522q-11 0 -20 7.5t-9 16.5q0 24 12 55t37 31zM768 1280q-88 0 -165.5 -31t-133.5 -84.5t-97 -125t-61 -154t-20 -168.5q0 -175 65.5 -327t185.5 -245.5t267 -93.5q226 0 344.5 153t118.5 421 q0 196 -57 342.5t-171.5 229.5t-275.5 83zM92 655q0 112 29 215.5t88 193t142.5 155.5t198.5 103.5t249 37.5q133 0 255 -49.5t214 -136t147 -214t55 -274.5q0 -140 -45.5 -267.5t-129.5 -228t-217 -160t-296 -59.5q-134 0 -260 53t-221 142.5t-152 218t-57 270.5z" />
<glyph unicode="&#x14d;" horiz-adv-x="1261" d="M60 0zM434 1270h416q9 0 17.5 -7.5t8.5 -16.5q0 -37 -16.5 -62.5t-46.5 -25.5h-399q-11 0 -20 7.5t-9 16.5q0 24 12 56t37 32zM606 887q-82 0 -142.5 -34.5t-93.5 -94t-48 -127.5t-15 -146q0 -123 37.5 -221t116.5 -158.5t190 -60.5q68 0 122 26t87 67.5t55 95.5 t30.5 106t8.5 104q0 64 -12.5 125.5t-39.5 119.5t-67 101.5t-99 70t-130 26.5zM123 455q0 124 68.5 239t183.5 186.5t243 71.5q135 0 254.5 -63t193 -176.5t73.5 -249.5q0 -96 -35 -184t-99 -157.5t-164.5 -111t-222.5 -41.5q-133 0 -247.5 66t-181 178t-66.5 242z" />
<glyph unicode="&#x14e;" horiz-adv-x="1562" d="M45 0zM543 1690q16 -28 41.5 -54t79.5 -50.5t120 -24.5q95 0 155.5 41t86.5 88q24 43 45 43q14 0 17.5 -12.5t3.5 -37.5q0 -100 -93.5 -183t-214.5 -83q-125 0 -216 76.5t-91 189.5q0 25 3.5 37.5t17.5 12.5q21 0 45 -43zM768 1280q-88 0 -165.5 -31t-133.5 -84.5 t-97 -125t-61 -154t-20 -168.5q0 -175 65.5 -327t185.5 -245.5t267 -93.5q226 0 344.5 153t118.5 421q0 196 -57 342.5t-171.5 229.5t-275.5 83zM92 655q0 112 29 215.5t88 193t142.5 155.5t198.5 103.5t249 37.5q133 0 255 -49.5t214 -136t147 -214t55 -274.5 q0 -140 -45.5 -267.5t-129.5 -228t-217 -160t-296 -59.5q-134 0 -260 53t-221 142.5t-152 218t-57 270.5z" />
<glyph unicode="&#x14f;" horiz-adv-x="1261" d="M60 0zM473 1335q8 -43 47.5 -71.5t110.5 -28.5t110.5 28.5t47.5 71.5q9 43 31 43q30 0 30 -49q0 -84 -59 -150.5t-160 -66.5t-160 66.5t-59 150.5q0 21 8.5 35t22.5 14q21 0 30 -43zM606 887q-82 0 -142.5 -34.5t-93.5 -94t-48 -127.5t-15 -146q0 -123 37.5 -221 t116.5 -158.5t190 -60.5q68 0 122 26t87 67.5t55 95.5t30.5 106t8.5 104q0 64 -12.5 125.5t-39.5 119.5t-67 101.5t-99 70t-130 26.5zM123 455q0 124 68.5 239t183.5 186.5t243 71.5q135 0 254.5 -63t193 -176.5t73.5 -249.5q0 -96 -35 -184t-99 -157.5t-164.5 -111 t-222.5 -41.5q-133 0 -247.5 66t-181 178t-66.5 242z" />
<glyph unicode="&#x150;" horiz-adv-x="1562" d="M45 0zM868 1427q-12 0 -12 13t10 30q65 108 158 244q19 27 55 27q30 0 74.5 -14t44.5 -33q0 -15 -27 -39q-101 -87 -266 -209q-24 -19 -37 -19zM598 1427q-13 0 -13 13q0 12 11 30q71 120 157 244q19 27 56 27q30 0 74 -14t44 -33q0 -16 -26 -39q-95 -81 -267 -209 q-24 -19 -36 -19zM768 1280q-88 0 -165.5 -31t-133.5 -84.5t-97 -125t-61 -154t-20 -168.5q0 -175 65.5 -327t185.5 -245.5t267 -93.5q226 0 344.5 153t118.5 421q0 196 -57 342.5t-171.5 229.5t-275.5 83zM92 655q0 112 29 215.5t88 193t142.5 155.5t198.5 103.5t249 37.5 q133 0 255 -49.5t214 -136t147 -214t55 -274.5q0 -140 -45.5 -267.5t-129.5 -228t-217 -160t-296 -59.5q-134 0 -260 53t-221 142.5t-152 218t-57 270.5z" />
<glyph unicode="&#x151;" horiz-adv-x="1261" d="M60 0zM770 1112q-40 -45 -61 -45q-12 0 -15 5.5t-3 21.5q0 20 60 135.5t106 195.5q9 15 24.5 26t30.5 11q42 0 71 -12t29 -35q0 -19 -87.5 -124.5t-154.5 -178.5zM517 1112q-40 -45 -62 -45q-12 0 -15 5.5t-3 21.5q0 20 60 135.5t106 195.5q9 15 24.5 26t30.5 11 q42 0 71 -12t29 -35q0 -19 -87.5 -125.5t-153.5 -177.5zM606 887q-82 0 -142.5 -34.5t-93.5 -94t-48 -127.5t-15 -146q0 -123 37.5 -221t116.5 -158.5t190 -60.5q68 0 122 26t87 67.5t55 95.5t30.5 106t8.5 104q0 64 -12.5 125.5t-39.5 119.5t-67 101.5t-99 70t-130 26.5z M123 455q0 124 68.5 239t183.5 186.5t243 71.5q135 0 254.5 -63t193 -176.5t73.5 -249.5q0 -96 -35 -184t-99 -157.5t-164.5 -111t-222.5 -41.5q-133 0 -247.5 66t-181 178t-66.5 242z" />
<glyph unicode="&#x152;" horiz-adv-x="1968" d="M954 -10q-84 -19 -172 -19q-134 0 -260 53t-221 142.5t-152 218t-57 270.5q0 140 45.5 265t130.5 222t217.5 155.5t296.5 62.5q89 3 203 -25q4 -2 31 -2q48 0 70 -3t38 -3q103 1 254.5 4t254 5t124.5 1q34 0 37 -18q23 -126 25 -211q0 -8 -9.5 -13t-19.5 -5q-17 0 -23 20 q-23 73 -47 100q-51 56 -137 56h-268q-17 0 -32.5 -17.5t-18.5 -36.5q-14 -63 -17 -147q-6 -147 -6 -299q0 -45 21 -45h213q56 0 90 31q22 20 34 49q3 8 16.5 21.5t20.5 13.5q9 0 18.5 -10.5t8.5 -22.5q-6 -99 -6 -127t6 -125q0 -35 -18 -35t-31 16t-17 31q-23 71 -96 80 q-73 10 -106 11.5t-105 -7.5q-51 -8 -49 -51q0 -190 6 -365q2 -69 33 -114t96 -45h213q16 0 77.5 12t78.5 25q42 33 86 129q10 20 29 20q12 -2 19.5 -8.5t6.5 -16.5q-11 -108 -35 -208q-3 -12 -5 -17t-8 -11.5t-15 -6.5q-133 0 -343 7t-306 7q-29 0 -61.5 -1.5t-59 -3.5 t-49 -4t-36 -3.5t-14.5 -1.5zM1085 299q7 230 7 361.5t-7 361.5q0 2 -2 42t-2 42q-10 90 -93 132t-220 42q-88 0 -165.5 -31t-133.5 -84.5t-97 -125t-61 -154t-20 -168.5q0 -175 65.5 -327t185.5 -245.5t267 -93.5q46 0 74 1t64 4t56.5 10.5t40.5 20t28.5 32.5t8.5 47 q0 71 4 133z" />
<glyph unicode="&#x153;" horiz-adv-x="1486" d="M801 808q-81 60 -193 60q-66 0 -118.5 -22.5t-86 -59.5t-55 -88.5t-30.5 -106.5t-9 -116q0 -189 89.5 -309.5t254.5 -120.5q47 0 76 7t62 30q30 21 30 80v569q0 24 -0.5 35t-5 23t-14.5 19zM799 -6q-83 -25 -178 -25q-204 0 -345 138.5t-141 336.5q0 124 66 237.5 t179 183t241 69.5q31 0 71 -5q86 -11 185 -11q94 0 256.5 3t189.5 3h23q21 0 24 -13q23 -122 23 -188q0 -12 -23 -12q-10 0 -16 14q-37 115 -127 115h-201q-18 0 -34.5 -9t-16.5 -32v-250q0 -31 14 -31h162q66 0 86 57q4 6 14.5 16.5t14.5 10.5q7 0 13 -7t5 -15 q-4 -66 -4 -95q0 -34 4 -112q4 -25 -12 -25q-18 0 -37 39q-14 50 -66 59q-11 1 -17 2.5t-7.5 1.5t-5 0.5t-11.5 0.5h-61q-92 0 -92 -41v-226q0 -59 22 -81.5t70 -22.5h164q58 0 99.5 34t64.5 85q7 13 27.5 14.5t21.5 -16.5q-8 -77 -35 -177q-4 -24 -18 -24q-100 0 -259.5 5 t-222.5 5q-70 0 -110 -12z" />
<glyph unicode="&#x154;" horiz-adv-x="1411" d="M24 0zM514 1427q-13 0 -13 13q0 12 11 30q71 120 157 244q19 27 56 27q30 0 74 -14t44 -33q0 -16 -26 -39q-95 -81 -267 -209q-24 -19 -36 -19zM430 745q0 -47 24.5 -59t84.5 -12q76 0 123 20.5t90 59.5q92 89 92 247q0 39 -6 74.5t-24.5 75t-47.5 68t-80 47t-117 18.5 q-77 0 -103 -28t-28 -82q-8 -200 -8 -429zM1305 -43q-95 0 -163.5 24.5t-119.5 86.5q-12 15 -55 67t-59.5 73.5t-52.5 69t-69.5 99t-74.5 117.5q-32 52 -88 79q-72 35 -162 45q-31 3 -31 -40v-353q0 -152 137 -176q68 -12 68 -37q0 -22 -60 -22t-112.5 7t-87.5 7 q-51 0 -130.5 -7t-135.5 -7q-60 0 -60 22q0 25 68 37q79 14 114 48.5t35 107.5v864q0 98 -26 145t-99 60q-67 11 -67 41q0 22 59 22t110.5 -1t90.5 -1q34 0 102 5.5t133 5.5q224 0 341.5 -88.5t117.5 -256.5q0 -62 -30.5 -129t-59.5 -96q-33 -32 -82.5 -71t-67.5 -48 q-5 -2 -6 -4t0 -4.5t6 -9.5t36.5 -55.5t37.5 -57t34.5 -50.5t37.5 -54.5t35.5 -48.5t41 -52.5t41 -48t47.5 -52.5t48.5 -48t56.5 -53q50 -45 100 -56.5t136 -11.5q30 0 30 -22q0 -21 -18 -36t-46 -22.5t-53 -10.5t-48 -3z" />
<glyph unicode="&#x155;" horiz-adv-x="1105" d="M30 0zM529 1112q-40 -45 -62 -45q-12 0 -15 5.5t-3 21.5q0 20 60 135.5t106 195.5q9 15 24.5 26t30.5 11q42 0 71 -12t29 -35q0 -19 -87.5 -125.5t-153.5 -177.5zM399 811v-283q0 -34 11.5 -42.5t40.5 -8.5q128 0 202.5 46.5t73.5 152.5q0 61 -39 106t-96.5 65.5 t-122.5 20.5q-41 0 -55.5 -11.5t-14.5 -45.5zM399 162q0 -53 23 -74.5t80 -32.5q49 -9 49 -32q0 -11 -14 -18t-27 -7q-39 0 -94 4.5t-92 3.5q-42 0 -111.5 -6t-110.5 -6q-13 0 -27 6.5t-14 17.5q0 24 50 33q64 12 99.5 36t35.5 75v559q0 64 -27.5 98.5t-91.5 44.5 q-20 3 -34.5 14t-14.5 25q0 11 14 18t27 7q41 0 98 -5t92 -5q25 0 108 5t128 5q71 0 130 -11.5t109 -36.5t78.5 -72t28.5 -112q1 -83 -50 -141t-118 -80q-19 -6 -14 -20q29 -76 83 -166.5t102 -147.5q30 -35 91 -65.5t92 -34.5q37 -5 37 -29q0 -18 -49.5 -29.5t-101.5 -11.5 q-120 0 -205 103q-31 38 -88 127.5t-91 154.5q-12 24 -53 42t-86 18q-12 0 -26.5 -10.5t-14.5 -22.5v-221z" />
<glyph unicode="&#x156;" horiz-adv-x="1411" d="M24 0zM680 -563q-27 0 -27 18q0 17 29 27q55 20 82 66.5t27 95.5q0 46 -62 59q-39 8 -70.5 34t-31.5 58q0 38 25.5 63t68.5 25q75 0 127.5 -56.5t52.5 -141.5q0 -61 -27 -111.5t-65 -78.5t-72.5 -43t-56.5 -15zM430 745q0 -47 24.5 -59t84.5 -12q76 0 123 20.5t90 59.5 q92 89 92 247q0 39 -6 74.5t-24.5 75t-47.5 68t-80 47t-117 18.5q-77 0 -103 -28t-28 -82q-8 -200 -8 -429zM1305 -43q-95 0 -163.5 24.5t-119.5 86.5q-12 15 -55 67t-59.5 73.5t-52.5 69t-69.5 99t-74.5 117.5q-32 52 -88 79q-72 35 -162 45q-31 3 -31 -40v-353 q0 -152 137 -176q68 -12 68 -37q0 -22 -60 -22t-112.5 7t-87.5 7q-51 0 -130.5 -7t-135.5 -7q-60 0 -60 22q0 25 68 37q79 14 114 48.5t35 107.5v864q0 98 -26 145t-99 60q-67 11 -67 41q0 22 59 22t110.5 -1t90.5 -1q34 0 102 5.5t133 5.5q224 0 341.5 -88.5t117.5 -256.5 q0 -62 -30.5 -129t-59.5 -96q-33 -32 -82.5 -71t-67.5 -48q-5 -2 -6 -4t0 -4.5t6 -9.5t36.5 -55.5t37.5 -57t34.5 -50.5t37.5 -54.5t35.5 -48.5t41 -52.5t41 -48t47.5 -52.5t48.5 -48t56.5 -53q50 -45 100 -56.5t136 -11.5q30 0 30 -22q0 -21 -18 -36t-46 -22.5t-53 -10.5 t-48 -3z" />
<glyph unicode="&#x157;" horiz-adv-x="1105" d="M30 0zM879 -598q-27 0 -27 18q0 17 29 27q55 20 82 66.5t27 95.5q0 46 -62 59q-39 8 -70.5 34t-31.5 58q0 38 25.5 63t68.5 25q75 0 127.5 -56.5t52.5 -141.5q0 -61 -27 -111.5t-65 -78.5t-72.5 -43t-56.5 -15zM399 811v-283q0 -34 11.5 -42.5t40.5 -8.5 q128 0 202.5 46.5t73.5 152.5q0 61 -39 106t-96.5 65.5t-122.5 20.5q-41 0 -55.5 -11.5t-14.5 -45.5zM399 162q0 -53 23 -74.5t80 -32.5q49 -9 49 -32q0 -11 -14 -18t-27 -7q-39 0 -94 4.5t-92 3.5q-42 0 -111.5 -6t-110.5 -6q-13 0 -27 6.5t-14 17.5q0 24 50 33 q64 12 99.5 36t35.5 75v559q0 64 -27.5 98.5t-91.5 44.5q-20 3 -34.5 14t-14.5 25q0 11 14 18t27 7q41 0 98 -5t92 -5q25 0 108 5t128 5q71 0 130 -11.5t109 -36.5t78.5 -72t28.5 -112q1 -83 -50 -141t-118 -80q-19 -6 -14 -20q29 -76 83 -166.5t102 -147.5q30 -35 91 -65.5 t92 -34.5q37 -5 37 -29q0 -18 -49.5 -29.5t-101.5 -11.5q-120 0 -205 103q-31 38 -88 127.5t-91 154.5q-12 24 -53 42t-86 18q-12 0 -26.5 -10.5t-14.5 -22.5v-221z" />
<glyph unicode="&#x158;" horiz-adv-x="1411" d="M24 0zM311 1704q19 0 110 -43t138 -70q13 -8 20.5 -8t20.5 8q48 28 139 71.5t109 43.5q13 0 20.5 -6.5t7.5 -16.5q0 -14 -12 -24l-201 -180q-31 -28 -46.5 -36.5t-37.5 -8.5t-37.5 8.5t-46.5 36.5l-200 180q-15 12 -15 24q0 9 9 15t22 6zM430 745q0 -47 24.5 -59 t84.5 -12q76 0 123 20.5t90 59.5q92 89 92 247q0 39 -6 74.5t-24.5 75t-47.5 68t-80 47t-117 18.5q-77 0 -103 -28t-28 -82q-8 -200 -8 -429zM1305 -43q-95 0 -163.5 24.5t-119.5 86.5q-12 15 -55 67t-59.5 73.5t-52.5 69t-69.5 99t-74.5 117.5q-32 52 -88 79 q-72 35 -162 45q-31 3 -31 -40v-353q0 -152 137 -176q68 -12 68 -37q0 -22 -60 -22t-112.5 7t-87.5 7q-51 0 -130.5 -7t-135.5 -7q-60 0 -60 22q0 25 68 37q79 14 114 48.5t35 107.5v864q0 98 -26 145t-99 60q-67 11 -67 41q0 22 59 22t110.5 -1t90.5 -1q34 0 102 5.5 t133 5.5q224 0 341.5 -88.5t117.5 -256.5q0 -62 -30.5 -129t-59.5 -96q-33 -32 -82.5 -71t-67.5 -48q-5 -2 -6 -4t0 -4.5t6 -9.5t36.5 -55.5t37.5 -57t34.5 -50.5t37.5 -54.5t35.5 -48.5t41 -52.5t41 -48t47.5 -52.5t48.5 -48t56.5 -53q50 -45 100 -56.5t136 -11.5 q30 0 30 -22q0 -21 -18 -36t-46 -22.5t-53 -10.5t-48 -3z" />
<glyph unicode="&#x159;" horiz-adv-x="1105" d="M30 0zM505 1260q8 -10 15 0q92 124 135 174q40 45 59 45q13 0 16 -6t3 -21q0 -18 -66.5 -130t-113.5 -185q-23 -37 -41 -37t-41 37q-49 75 -115 186t-66 129q0 10 1 15t5 8.5t13 3.5q21 0 61 -45q43 -50 135 -174zM399 811v-283q0 -34 11.5 -42.5t40.5 -8.5 q128 0 202.5 46.5t73.5 152.5q0 61 -39 106t-96.5 65.5t-122.5 20.5q-41 0 -55.5 -11.5t-14.5 -45.5zM399 162q0 -53 23 -74.5t80 -32.5q49 -9 49 -32q0 -11 -14 -18t-27 -7q-39 0 -94 4.5t-92 3.5q-42 0 -111.5 -6t-110.5 -6q-13 0 -27 6.5t-14 17.5q0 24 50 33 q64 12 99.5 36t35.5 75v559q0 64 -27.5 98.5t-91.5 44.5q-20 3 -34.5 14t-14.5 25q0 11 14 18t27 7q41 0 98 -5t92 -5q25 0 108 5t128 5q71 0 130 -11.5t109 -36.5t78.5 -72t28.5 -112q1 -83 -50 -141t-118 -80q-19 -6 -14 -20q29 -76 83 -166.5t102 -147.5q30 -35 91 -65.5 t92 -34.5q37 -5 37 -29q0 -18 -49.5 -29.5t-101.5 -11.5q-120 0 -205 103q-31 38 -88 127.5t-91 154.5q-12 24 -53 42t-86 18q-12 0 -26.5 -10.5t-14.5 -22.5v-221z" />
<glyph unicode="&#x15a;" horiz-adv-x="952" d="M41 0zM426 1427q-13 0 -13 13q0 12 11 30q71 120 157 244q19 27 56 27q30 0 74 -14t44 -33q0 -16 -26 -39q-95 -81 -267 -209q-24 -19 -36 -19zM457 35q111 0 173 74.5t62 187.5q0 93 -75.5 174.5t-221.5 179.5q-124 83 -192 168.5t-68 198.5q0 138 116.5 240t295.5 102 q58 0 114 -10t90.5 -20.5t39.5 -10.5q12 0 21 -14.5t13 -32.5q1 -4 5.5 -32t9 -70t4.5 -70q0 -51 -15 -51q-28 0 -47 16.5t-24 40.5q-15 87 -78.5 136.5t-151.5 49.5q-99 0 -167 -60.5t-68 -160.5q0 -46 25.5 -92t74 -89t83.5 -69t89 -61l54 -36t56 -41t57.5 -49.5t50 -55.5 t43.5 -65.5t27 -74t11 -84.5q0 -51 -14.5 -103t-47.5 -104t-81 -91.5t-121.5 -64t-161.5 -24.5q-167 0 -274 49q-35 16 -43 35q-16 33 -26.5 104.5t-10.5 131.5q0 16 13.5 37.5t29.5 21.5q20 0 61 -135q28 -89 100.5 -132.5t168.5 -43.5z" />
<glyph unicode="&#x15b;" horiz-adv-x="880" d="M60 0zM471 1112q-40 -45 -62 -45q-12 0 -15 5.5t-3 21.5q0 20 60 135.5t106 195.5q9 15 24.5 26t30.5 11q42 0 71 -12t29 -35q0 -19 -87.5 -125.5t-153.5 -177.5zM410 25q91 0 137.5 45t46.5 114q0 94 -94 154l-160 102q-83 53 -126.5 114.5t-43.5 141.5q0 75 49 132 t121 83.5t154 26.5q44 0 83.5 -4.5t72.5 -11t38 -7.5q11 -1 18 -9.5t9 -18.5q9 -45 14 -166q0 -11 -8 -26t-19 -15q-12 0 -23.5 13t-14.5 28q-25 86 -82 126t-107 40q-71 0 -116.5 -41t-45.5 -101q0 -33 7.5 -56.5t27.5 -44t37 -32.5t53 -34l174 -107q146 -90 146 -235 q0 -43 -25 -88t-69.5 -83.5t-115 -63t-153.5 -24.5q-50 0 -89.5 6.5t-76.5 17.5t-49 13q-10 2 -14.5 4.5t-5.5 7t-2 5.5q-11 23 -22 87.5t-13 106.5v7.5v10.5t1 10t3 9.5t6 6.5t10 3q11 0 18 -7.5t14 -25.5l7 -18q48 -87 81 -122q66 -74 147 -74z" />
<glyph unicode="&#x15c;" horiz-adv-x="952" d="M41 0zM223 1436q-31 0 -31 20q0 13 15 25l200 180q31 28 46.5 36.5t37.5 8.5t37.5 -8.5t46.5 -36.5l201 -180q12 -10 12 -25q0 -22 -28 -22q-18 0 -109.5 43t-138.5 71q-13 7 -20.5 7t-20.5 -7q-46 -27 -137.5 -69.5t-110.5 -42.5zM457 35q111 0 173 74.5t62 187.5 q0 93 -75.5 174.5t-221.5 179.5q-124 83 -192 168.5t-68 198.5q0 138 116.5 240t295.5 102q58 0 114 -10t90.5 -20.5t39.5 -10.5q12 0 21 -14.5t13 -32.5q1 -4 5.5 -32t9 -70t4.5 -70q0 -51 -15 -51q-28 0 -47 16.5t-24 40.5q-15 87 -78.5 136.5t-151.5 49.5 q-99 0 -167 -60.5t-68 -160.5q0 -46 25.5 -92t74 -89t83.5 -69t89 -61l54 -36t56 -41t57.5 -49.5t50 -55.5t43.5 -65.5t27 -74t11 -84.5q0 -51 -14.5 -103t-47.5 -104t-81 -91.5t-121.5 -64t-161.5 -24.5q-167 0 -274 49q-35 16 -43 35q-16 33 -26.5 104.5t-10.5 131.5 q0 16 13.5 37.5t29.5 21.5q20 0 61 -135q28 -89 100.5 -132.5t168.5 -43.5z" />
<glyph unicode="&#x15d;" horiz-adv-x="880" d="M60 0zM450 1266q-50 -60 -135 -172q-12 -16 -31 -31t-30 -15q-9 0 -13 3.5t-5 8.5t-1 15q0 20 68 147t113 201q21 37 41 37t41 -37q46 -76 114 -202t68 -146q0 -15 -3 -21t-16 -6q-11 0 -30.5 15t-30.5 31q-52 69 -135 172q-7 10 -15 0zM410 25q91 0 137.5 45t46.5 114 q0 94 -94 154l-160 102q-83 53 -126.5 114.5t-43.5 141.5q0 75 49 132t121 83.5t154 26.5q44 0 83.5 -4.5t72.5 -11t38 -7.5q11 -1 18 -9.5t9 -18.5q9 -45 14 -166q0 -11 -8 -26t-19 -15q-12 0 -23.5 13t-14.5 28q-25 86 -82 126t-107 40q-71 0 -116.5 -41t-45.5 -101 q0 -33 7.5 -56.5t27.5 -44t37 -32.5t53 -34l174 -107q146 -90 146 -235q0 -43 -25 -88t-69.5 -83.5t-115 -63t-153.5 -24.5q-50 0 -89.5 6.5t-76.5 17.5t-49 13q-10 2 -14.5 4.5t-5.5 7t-2 5.5q-11 23 -22 87.5t-13 106.5v7.5v10.5t1 10t3 9.5t6 6.5t10 3q11 0 18 -7.5 t14 -25.5l7 -18q48 -87 81 -122q66 -74 147 -74z" />
<glyph unicode="&#x15e;" horiz-adv-x="952" d="M41 0zM338 -236q0 14 13 31l163 221h64l-84 -127q-7 -9 1 -18.5t19 -13.5q53 -23 94.5 -70.5t41.5 -112.5q0 -49 -28.5 -95t-70 -76t-86.5 -48t-80 -18q-49 0 -70.5 19t-21.5 46q0 33 10 51.5t23 18.5q4 0 16 -7t40.5 -13.5t72.5 -6.5q32 0 59 20t27 60q0 44 -23.5 77.5 t-72.5 33.5q-13 0 -29 -3t-24 -3q-24 0 -39 11.5t-15 22.5zM457 35q111 0 173 74.5t62 187.5q0 93 -75.5 174.5t-221.5 179.5q-124 83 -192 168.5t-68 198.5q0 138 116.5 240t295.5 102q58 0 114 -10t90.5 -20.5t39.5 -10.5q12 0 21 -14.5t13 -32.5q1 -4 5.5 -32t9 -70 t4.5 -70q0 -51 -15 -51q-28 0 -47 16.5t-24 40.5q-15 87 -78.5 136.5t-151.5 49.5q-99 0 -167 -60.5t-68 -160.5q0 -46 25.5 -92t74 -89t83.5 -69t89 -61l54 -36t56 -41t57.5 -49.5t50 -55.5t43.5 -65.5t27 -74t11 -84.5q0 -51 -14.5 -103t-47.5 -104t-81 -91.5t-121.5 -64 t-161.5 -24.5q-167 0 -274 49q-35 16 -43 35q-16 33 -26.5 104.5t-10.5 131.5q0 16 13.5 37.5t29.5 21.5q20 0 61 -135q28 -89 100.5 -132.5t168.5 -43.5z" />
<glyph unicode="&#x15f;" horiz-adv-x="880" d="M60 0zM210 -284q-12 0 -24.5 9t-12.5 22q0 5 11 20l180 229h63l-80 -104q-8 -8 -8 -16t8 -15.5t15 -9.5q53 -23 89 -65t36 -91q0 -58 -29.5 -112t-71 -88.5t-84 -55t-71.5 -20.5q-62 0 -62 84q0 19 9.5 29t17.5 10l33 -12q34 -11 75 -11q39 0 59.5 25.5t20.5 66.5 q0 55 -33 86t-88 31q-15 0 -31.5 -6t-21.5 -6zM410 25q91 0 137.5 45t46.5 114q0 94 -94 154l-160 102q-83 53 -126.5 114.5t-43.5 141.5q0 75 49 132t121 83.5t154 26.5q44 0 83.5 -4.5t72.5 -11t38 -7.5q11 -1 18 -9.5t9 -18.5q9 -45 14 -166q0 -11 -8 -26t-19 -15 q-12 0 -23.5 13t-14.5 28q-25 86 -82 126t-107 40q-71 0 -116.5 -41t-45.5 -101q0 -33 7.5 -56.5t27.5 -44t37 -32.5t53 -34l174 -107q146 -90 146 -235q0 -43 -25 -88t-69.5 -83.5t-115 -63t-153.5 -24.5q-50 0 -89.5 6.5t-76.5 17.5t-49 13q-10 2 -14.5 4.5t-5.5 7t-2 5.5 q-11 23 -22 87.5t-13 106.5v7.5v10.5t1 10t3 9.5t6 6.5t10 3q11 0 18 -7.5t14 -25.5l7 -18q48 -87 81 -122q66 -74 147 -74z" />
<glyph unicode="&#x160;" horiz-adv-x="952" d="M41 0zM223 1704q19 0 110 -43t138 -70q13 -8 20.5 -8t20.5 8q48 28 139 71.5t109 43.5q13 0 20.5 -6.5t7.5 -16.5q0 -14 -12 -24l-201 -180q-31 -28 -46.5 -36.5t-37.5 -8.5t-37.5 8.5t-46.5 36.5l-200 180q-15 12 -15 24q0 9 9 15t22 6zM457 35q111 0 173 74.5t62 187.5 q0 93 -75.5 174.5t-221.5 179.5q-124 83 -192 168.5t-68 198.5q0 138 116.5 240t295.5 102q58 0 114 -10t90.5 -20.5t39.5 -10.5q12 0 21 -14.5t13 -32.5q1 -4 5.5 -32t9 -70t4.5 -70q0 -51 -15 -51q-28 0 -47 16.5t-24 40.5q-15 87 -78.5 136.5t-151.5 49.5 q-99 0 -167 -60.5t-68 -160.5q0 -46 25.5 -92t74 -89t83.5 -69t89 -61l54 -36t56 -41t57.5 -49.5t50 -55.5t43.5 -65.5t27 -74t11 -84.5q0 -51 -14.5 -103t-47.5 -104t-81 -91.5t-121.5 -64t-161.5 -24.5q-167 0 -274 49q-35 16 -43 35q-16 33 -26.5 104.5t-10.5 131.5 q0 16 13.5 37.5t29.5 21.5q20 0 61 -135q28 -89 100.5 -132.5t168.5 -43.5z" />
<glyph unicode="&#x161;" horiz-adv-x="880" d="M60 0zM448 1260q8 -10 15 0q92 124 135 174q40 45 59 45q13 0 16 -6t3 -21q0 -18 -66.5 -130t-113.5 -185q-23 -37 -41 -37t-41 37q-49 75 -115 186t-66 129q0 10 1 15t5 8.5t13 3.5q21 0 61 -45q43 -50 135 -174zM410 25q91 0 137.5 45t46.5 114q0 94 -94 154l-160 102 q-83 53 -126.5 114.5t-43.5 141.5q0 75 49 132t121 83.5t154 26.5q44 0 83.5 -4.5t72.5 -11t38 -7.5q11 -1 18 -9.5t9 -18.5q9 -45 14 -166q0 -11 -8 -26t-19 -15q-12 0 -23.5 13t-14.5 28q-25 86 -82 126t-107 40q-71 0 -116.5 -41t-45.5 -101q0 -33 7.5 -56.5t27.5 -44 t37 -32.5t53 -34l174 -107q146 -90 146 -235q0 -43 -25 -88t-69.5 -83.5t-115 -63t-153.5 -24.5q-50 0 -89.5 6.5t-76.5 17.5t-49 13q-10 2 -14.5 4.5t-5.5 7t-2 5.5q-11 23 -22 87.5t-13 106.5v7.5v10.5t1 10t3 9.5t6 6.5t10 3q11 0 18 -7.5t14 -25.5l7 -18q48 -87 81 -122 q66 -74 147 -74z" />
<glyph unicode="&#x162;" horiz-adv-x="1372" d="M27 0zM524 -216q0 14 13 31l163 221h64l-84 -127q-7 -9 1 -18.5t19 -13.5q53 -23 94.5 -70.5t41.5 -112.5q0 -49 -28.5 -95t-70 -76t-86.5 -48t-80 -18q-49 0 -70.5 19t-21.5 46q0 33 10 51.5t23 18.5q4 0 16 -7t40.5 -13.5t72.5 -6.5q32 0 59 20t27 60q0 44 -23.5 77.5 t-72.5 33.5q-13 0 -29 -3t-24 -3q-24 0 -39 11.5t-15 22.5zM770 209q0 -71 41 -108.5t121 -51.5q67 -11 67 -37q0 -22 -59 -22q-58 0 -126.5 5t-113.5 5q-50 0 -127.5 -5t-134.5 -5q-59 0 -59 22q0 26 67 37q80 14 120 51.5t40 108.5v932q0 81 -37 88q-39 8 -151 8h-96 q-53 0 -100 -21t-68 -59q-12 -24 -37.5 -51t-46.5 -27q-15 0 -15 27q0 19 11 41q44 94 63 227q6 47 35 47q7 0 24 -22.5t27 -42.5q11 -20 53 -30.5t90 -10.5h781q78 0 118 28q15 10 36.5 30.5t37 32t29.5 11.5q6 0 10 -15.5t4 -31.5q0 -3 -1 -9.5t-1 -8.5q-33 -139 -33 -203 v-25q0 -22 -9 -43.5t-23 -21.5t-22.5 20t-16.5 64q-16 94 -189 94q-202 0 -276 -8q-33 -5 -33 -88v-932z" />
<glyph unicode="&#x163;" horiz-adv-x="1126" d="M35 0zM366 -267q-12 0 -24.5 9t-12.5 22q0 5 11 20l180 229h63l-80 -104q-8 -8 -8 -16t8 -15.5t15 -9.5q53 -23 89 -65t36 -91q0 -58 -29.5 -112t-71 -88.5t-84 -55t-71.5 -20.5q-62 0 -62 84q0 19 9.5 29t17.5 10l33 -12q34 -11 75 -11q39 0 59.5 25.5t20.5 66.5 q0 55 -33 86t-88 31q-15 0 -31.5 -6t-21.5 -6zM475 162v604q0 48 -10.5 56.5t-63.5 8.5h-147q-32 0 -68 -22t-51 -49q-7 -15 -21 -29t-28 -14t-14 16q0 8 3.5 25t11 63t13.5 113q3 31 27 31q2 0 19.5 -10.5t58 -21.5t96.5 -11h498q51 0 92 4t64 10t38.5 12.5t23.5 10.5t11 4 q7 0 13 -7.5t6 -15.5q0 -60 4 -118t4 -72q0 -9 -7.5 -24.5t-17.5 -14.5q-18 2 -33 47q-7 31 -39 52t-94 21q-163 0 -213 -4q-22 -2 -22 -61v-604q0 -51 35.5 -75t99.5 -36q49 -9 49 -33q0 -11 -14 -17.5t-27 -6.5q-39 0 -107 6t-112 6t-113 -6t-108 -6q-13 0 -27 6.5 t-14 17.5q0 24 49 33q64 12 99.5 36t35.5 75z" />
<glyph unicode="&#x164;" horiz-adv-x="1372" d="M27 0zM430 1704q19 0 110 -43t138 -70q13 -8 20.5 -8t20.5 8q48 28 139 71.5t109 43.5q13 0 20.5 -6.5t7.5 -16.5q0 -14 -12 -24l-201 -180q-31 -28 -46.5 -36.5t-37.5 -8.5t-37.5 8.5t-46.5 36.5l-200 180q-15 12 -15 24q0 9 9 15t22 6zM770 209q0 -71 41 -108.5 t121 -51.5q67 -11 67 -37q0 -22 -59 -22q-58 0 -126.5 5t-113.5 5q-50 0 -127.5 -5t-134.5 -5q-59 0 -59 22q0 26 67 37q80 14 120 51.5t40 108.5v932q0 81 -37 88q-39 8 -151 8h-96q-53 0 -100 -21t-68 -59q-12 -24 -37.5 -51t-46.5 -27q-15 0 -15 27q0 19 11 41 q44 94 63 227q6 47 35 47q7 0 24 -22.5t27 -42.5q11 -20 53 -30.5t90 -10.5h781q78 0 118 28q15 10 36.5 30.5t37 32t29.5 11.5q6 0 10 -15.5t4 -31.5q0 -3 -1 -9.5t-1 -8.5q-33 -139 -33 -203v-25q0 -22 -9 -43.5t-23 -21.5t-22.5 20t-16.5 64q-16 94 -189 94 q-202 0 -276 -8q-33 -5 -33 -88v-932z" />
<glyph unicode="&#x165;" horiz-adv-x="1001" d="M320 1415l143 -196l142 196q27 37 59 37q13 0 18.5 -12.5t-2.5 -30.5q-108 -220 -159 -309q-36 -60 -58 -60q-21 0 -57 60q-20 34 -60 111t-70 137l-30 61q-8 18 -2 30.5t19 12.5q29 0 57 -37zM772 831q-151 0 -201 -4q-22 -2 -22 -61v-600q0 -48 26 -72q40 -37 107 -49 q11 -3 14.5 -15.5t-0.5 -24t-14 -11.5q-40 0 -106 7t-109 7q-41 0 -104 -7t-101 -7q-8 0 -12.5 11.5t-1.5 24t14 15.5q67 12 107 49q26 24 26 72v600q0 57 -24 61q-25 4 -152 4q-69 0 -102 -57q-7 -14 -29.5 -35.5t-36.5 -21.5q-28 0 -4 53q12 24 18.5 52.5t11 76.5t5.5 57 q4 31 27 31q5 0 18 -15t20 -28q15 -29 91 -29h555q28 0 42.5 1t32.5 7t29 19q11 11 26.5 18t22.5 7q6 0 12.5 -8.5t2.5 -16.5q-20 -39 -35 -192q-5 -42 -25 -39q-18 2 -33 47q-1 2 -3 12.5t-3 14t-4.5 12t-7 11.5l-10.5 9t-16 8t-22.5 4t-29.5 2z" />
<glyph unicode="&#x166;" horiz-adv-x="1394" d="M1115 1237q-238 0 -312 -8q-32 -4 -32 -88v-326h270q11 0 21 -9.5t6 -19.5q-23 -45 -64 -45h-233v-518q0 -71 39 -106q58 -54 155 -72q17 -3 23 -15.5t-0.5 -24t-22.5 -11.5q-60 0 -141.5 5t-134.5 5q-54 0 -137.5 -5t-139.5 -5q-12 0 -19 11.5t-2 24t21 15.5 q99 19 156 72q39 35 39 106v518h-256q-12 0 -20.5 13t-8.5 24q0 14 15 25.5t34 11.5h236v326q0 81 -37 88q-42 8 -248 8q-53 0 -100 -21t-68 -59q-12 -24 -37.5 -51t-46.5 -27q-13 0 -14 24t10 44q46 97 64 227q6 47 34 47q7 0 24.5 -23t27.5 -42q20 -37 143 -41 q382 -14 784 6q126 6 149 39q32 45 56 45q9 0 18 -10.5t6 -24.5q-35 -174 -33 -240q1 -21 -6.5 -37.5t-23.5 -13.5q-11 2 -18 12.5t-13 29t-8 22.5q-2 3 -7.5 17t-8.5 19.5t-11 16.5t-18 16.5t-25 12.5t-36.5 9.5t-48.5 2.5z" />
</font>
</defs>
</svg>
