<?xml version="1.0" standalone="no"?>
<!DOCTYPE svg PUBLIC "-//W3C//DTD SVG 1.1//EN" "http://www.w3.org/Graphics/SVG/1.1/DTD/svg11.dtd" >
<svg xmlns="http://www.w3.org/2000/svg">
<metadata>Generated by IcoMoon</metadata>
<defs>
<font id="hack-the-hackpad-icon" horiz-adv-x="1024">
<font-face units-per-em="1024" ascent="960" descent="-64" />
<missing-glyph horiz-adv-x="1024" />
<glyph unicode="&#x20;" d="" horiz-adv-x="512" />
<glyph unicode="&#xe600;" d="M41.633 944.949v-963.765l301.176 301.176 301.176-301.176v963.765h-602.353z" horiz-adv-x="663" />
<glyph unicode="&#xe601;" d="M12.84 944.949v-963.765l301.176 301.176 301.176-301.176v963.765h-602.353zM554.958 126.592l-240.941 240.941-240.941-240.941v758.121h481.882v-758.121z" horiz-adv-x="663" />
<glyph unicode="&#xe602;" d="M956.634 923.591l-558.545-558.545-186.182 186.182-186.182-186.182 372.364-372.364 744.727 744.727-186.182 186.182z" horiz-adv-x="1210" />
<glyph unicode="&#xe603;" d="M465.213 144.101l-305.006 305.006-103.497-103.497 408.503-408.503 877.714 877.714-103.497 103.497-774.217-774.217z" horiz-adv-x="1390" />
<glyph unicode="&#xe604;" d="M1193.42 680.015c0 37.101-12.985 68.638-38.957 94.609s-57.507 38.957-94.609 38.957h-44.522v-267.13h44.522c37.101 0 68.638 12.986 94.609 38.957s38.957 57.507 38.957 94.609v0zM35.855 145.754h1246.609c0-49.152-17.393-91.121-52.179-125.907s-76.755-52.179-125.907-52.179h-890.435c-49.152 0-91.121 17.393-125.907 52.179s-52.179 76.755-52.179 125.907v0zM1326.986 680.015c0-73.728-26.090-136.682-78.269-188.861s-115.133-78.269-188.861-78.269h-44.522v-22.261c0-42.652-15.301-79.293-45.902-109.924s-67.243-45.932-109.924-45.902h-489.739c-42.652 0-79.293 15.301-109.924 45.902s-45.932 67.243-45.902 109.924v512c0 12.051 4.408 22.483 13.223 31.299s19.248 13.223 31.299 13.223h801.391c73.728 0 136.682-26.090 188.861-78.269s78.269-115.133 78.269-188.861v0z" horiz-adv-x="1336" />
<glyph unicode="&#xe605;" d="M917.718 525.522h-868.032c-17.664 0-32-14.336-32-32 0-97.6 19.904-193.28 57.536-276.736 36.992-82.048 90.048-150.144 153.408-196.992 5.504-4.096 12.16-6.272 19.008-6.272h-134.016c-17.664 0-32-14.336-32-32s14.336-32 32-32h640c17.664 0 32 14.336 32 32s-14.336 32-32 32h-134.016c6.848 0 13.504 2.176 19.008 6.272 58.304 43.136 107.904 104.32 144.256 177.728h6.72c101.376 0 162.496 35.392 195.904 65.088 40.128 35.648 64.064 84.608 64.064 130.88 0 72.768-59.2 132.032-132.032 132.032h0.192zM937.75 316.434c-21.568-19.136-60.096-41.6-124.48-46.080 19.776 57.728 31.744 119.744 35.264 183.168h69.12c33.088 0 60.032-26.944 60.032-60.032 0-20.096-10.496-50.944-39.936-77.12v0.064zM305.686 589.522c-17.664 0-32 14.336-32 32v128c0 17.664 14.336 32 32 32s32-14.336 32-32v-128c0-17.664-14.336-32-32-32v0zM433.686 589.522c-17.664 0-32 14.336-32 32v256c0 17.664 14.336 32 32 32s32-14.336 32-32v-256c0-17.664-14.336-32-32-32v0zM561.686 589.522c-17.664 0-32 14.336-32 32v128c0 17.664 14.336 32 32 32s32-14.336 32-32v-128c0-17.664-14.336-32-32-32v0z" horiz-adv-x="1088" />
<glyph unicode="&#xe606;" d="M917.718 525.522h-868.032c-17.664 0-32-14.336-32-32 0-97.6 19.904-193.28 57.536-276.736 36.992-82.048 90.048-150.144 153.408-196.992 5.504-4.096 12.16-6.272 19.008-6.272h-134.016c-17.664 0-32-14.336-32-32s14.336-32 32-32h640c17.664 0 32 14.336 32 32s-14.336 32-32 32h-134.016c6.848 0 13.504 2.176 19.008 6.272 58.304 43.136 107.904 104.32 144.256 177.728h6.72c101.376 0 162.496 35.392 195.904 65.088 40.128 35.648 64.064 84.608 64.064 130.88 0 72.768-59.2 132.032-132.032 132.032h0.192zM744.79 269.522h-622.272c-22.848 58.752-36.736 123.968-40.128 192h702.464c-3.328-68.032-17.28-133.248-40.128-192h0.064zM937.75 316.434c-21.568-19.136-60.096-41.6-124.48-46.080 19.776 57.728 31.744 119.744 35.264 183.168h69.12c33.088 0 60.032-26.944 60.032-60.032 0-20.096-10.496-50.944-39.936-77.12v0.064zM305.686 589.522c-17.664 0-32 14.336-32 32v128c0 17.664 14.336 32 32 32s32-14.336 32-32v-128c0-17.664-14.336-32-32-32v0zM433.686 589.522c-17.664 0-32 14.336-32 32v256c0 17.664 14.336 32 32 32s32-14.336 32-32v-256c0-17.664-14.336-32-32-32v0zM561.686 589.522c-17.664 0-32 14.336-32 32v128c0 17.664 14.336 32 32 32s32-14.336 32-32v-128c0-17.664-14.336-32-32-32v0z" horiz-adv-x="1088" />
<glyph unicode="&#xe607;" d="M906.194-26.869h-819.2c-37.751 0-68.267 30.515-68.267 68.267s30.515 68.267 68.267 68.267h819.2c37.751 0 68.267-30.515 68.267-68.267s-30.515-68.267-68.267-68.267v0zM940.328 928.864h-853.333v-614.4c0-75.093 61.44-136.533 136.533-136.533h546.133c75.093 0 136.533 61.44 136.533 136.533v136.533h34.133c131.755 0 238.933 107.179 238.933 238.933s-107.179 238.933-238.933 238.933v0zM769.661 314.464h-546.133v477.867h546.133v-477.867zM940.328 587.531h-102.4v204.8h102.4c56.457 0 102.4-45.943 102.4-102.4s-45.943-102.4-102.4-102.4v0z" horiz-adv-x="1229" />
<glyph unicode="&#xe608;" d="M1003.991 450.997h-170.667l-238.933-238.933-238.933 238.933h-170.667l-136.533-273.067v-68.267h1092.267v68.267l-136.533 273.067zM48.258 41.397h1092.267v-68.267h-1092.267v68.267zM662.658 655.797v273.067h-136.533v-273.067h-238.933l307.2-307.2 307.2 307.2h-238.933z" horiz-adv-x="1161" />
<glyph unicode="&#xe609;" d="M541.901 943.374v-156.444h-93.032c-33.982 0-56.902-7.105-68.76-21.314s-17.787-35.537-17.787-63.981v-111.995h173.625l-23.097-175.407h-150.528v-449.764h-181.324v449.764h-151.097v175.407h151.097v129.176c0 73.475 20.543 130.465 61.63 170.97s95.801 60.757 164.143 60.757c58.077 0 103.121-2.364 135.13-7.092v-0.076z" horiz-adv-x="569" />
<glyph unicode="&#xe60a;" d="M540.355 439.118c0 40.375-14.287 74.849-42.862 103.424s-63.049 42.862-103.424 42.862c-40.375 0-74.85-14.287-103.424-42.862s-42.862-63.049-42.862-103.424c0-40.375 14.287-74.85 42.862-103.424s63.049-42.862 103.424-42.862c40.375 0 74.849 14.287 103.424 42.862s42.862 63.049 42.862 103.424v0zM979.212 146.546c0 19.797-7.241 36.937-21.723 51.419s-31.622 21.723-51.419 21.723c-19.797 0-36.937-7.241-51.419-21.723s-21.723-31.622-21.723-51.419c0-20.187 7.144-37.425 21.431-51.712s31.525-21.431 51.712-21.431c20.187 0 37.425 7.144 51.712 21.431s21.431 31.525 21.431 51.712v0zM979.212 731.689c0 19.797-7.241 36.937-21.723 51.419s-31.622 21.723-51.419 21.723c-19.797 0-36.937-7.241-51.419-21.723s-21.723-31.622-21.723-51.419c0-20.187 7.144-37.425 21.431-51.712s31.525-21.431 51.712-21.431c20.187 0 37.425 7.144 51.712 21.431s21.431 31.525 21.431 51.712v0zM759.784 491.122v-105.728c0-3.803-1.329-7.522-3.986-11.154s-5.705-5.632-9.143-5.998l-88.576-13.714c-4.194-13.336-10.289-27.819-18.286-43.447 12.946-18.286 30.086-40.192 51.419-65.719 2.657-3.803 3.986-7.619 3.986-11.447 0-4.559-1.329-8.18-3.986-10.862-8.753-11.435-24.466-28.477-47.141-51.127s-37.632-33.987-44.873-34.011c-4.194 0-8.192 1.329-11.995 3.986l-65.719 51.419c-14.092-7.241-28.757-13.141-43.995-17.701-4.194-41.131-8.57-70.656-13.129-88.576-2.658-9.143-8.375-13.714-17.152-13.714h-106.277c-4.194 0-8.009 1.426-11.447 4.279s-5.339 6.181-5.705 9.984l-13.129 87.442c-12.946 3.803-27.234 9.704-42.862 17.701l-67.438-50.871c-2.658-2.658-6.473-3.986-11.447-3.986-4.194 0-8.192 1.524-11.995 4.571-54.857 50.664-82.286 81.14-82.286 91.429 0 3.438 1.329 7.058 3.986 10.862 3.803 5.339 11.617 15.433 23.442 30.281s20.773 26.465 26.843 34.853c-8.753 16.774-15.421 32.39-20.005 46.848l-86.857 13.714c-3.803 0.39-7.046 2.194-9.728 5.413s-4.011 6.936-3.986 11.154v105.728c0 3.803 1.329 7.521 3.986 11.154s5.705 5.632 9.143 5.998l88.576 13.714c4.193 13.336 10.289 27.819 18.286 43.447-12.946 18.286-30.086 40.192-51.419 65.719-2.658 4.193-3.986 8.009-3.986 11.447 0 4.559 1.329 8.375 3.986 11.447 8.387 11.435 24.003 28.392 46.848 50.871s37.888 33.719 45.129 33.719c4.193 0 8.192-1.329 11.995-3.986l65.719-51.419c12.946 6.851 27.611 12.946 43.995 18.286 4.193 41.131 8.57 70.461 13.129 87.991 2.657 9.143 8.375 13.714 17.152 13.714h106.277c4.193 0 8.009-1.426 11.447-4.279s5.339-6.181 5.705-9.984l13.129-87.442c12.946-3.803 27.233-9.704 42.862-17.701l67.438 50.871c3.048 2.657 6.863 3.986 11.447 3.986 4.193 0 8.192-1.524 11.995-4.571 54.857-50.664 82.286-81.14 82.286-91.429 0-3.438-1.329-7.058-3.986-10.862-4.559-6.095-12.556-16.384-23.991-30.866s-20.005-25.917-25.71-34.304c8.753-18.286 15.226-33.902 19.419-46.848l86.857-13.129c3.803-0.756 7.046-2.755 9.728-5.998s4.011-6.961 3.986-11.154h0.037zM1125.498 186.556v-80.018c0-6.095-28.379-11.995-85.138-17.701-4.559-10.289-10.277-20.187-17.152-29.696 19.432-43.057 29.147-69.339 29.147-78.848 0-1.536-0.768-2.865-2.304-3.986-46.47-27.039-70.083-40.558-70.839-40.558-3.048 0-11.813 8.948-26.295 26.843s-24.381 30.842-29.696 38.839c-7.631-0.756-13.349-1.134-17.152-1.134s-9.521 0.378-17.152 1.134c-5.339-7.997-15.238-20.943-29.696-38.839s-23.223-26.843-26.295-26.843c-0.756 0-24.369 13.519-70.839 40.558-1.536 1.146-2.304 2.475-2.304 3.986 0 9.533 9.716 35.816 29.147 78.848-6.851 9.533-12.568 19.432-17.152 29.696-56.759 5.705-85.138 11.605-85.138 17.701v80.018c0 6.095 28.379 11.995 85.138 17.701 4.949 11.045 10.667 20.943 17.152 29.696-19.432 43.057-29.147 69.339-29.147 78.848 0 1.536 0.768 2.865 2.304 3.986 1.536 0.756 8.204 4.571 20.005 11.447s23.040 13.349 33.719 19.419c10.679 6.071 16.396 9.118 17.152 9.143 3.048 0 11.813-8.863 26.295-26.587s24.381-30.586 29.696-38.583c7.631 0.756 13.349 1.134 17.152 1.134s9.521-0.378 17.152-1.134c19.432 27.038 36.949 48.372 52.553 64l3.438 1.134c1.536 0 25.149-13.336 70.839-40.009 1.536-1.146 2.304-2.475 2.304-3.986 0-9.533-9.716-35.816-29.147-78.848 6.485-8.753 12.203-18.651 17.152-29.696 56.759-5.705 85.138-11.605 85.138-17.701l-0.037 0.037zM1125.498 771.698v-79.982c0-6.095-28.379-11.995-85.138-17.701-4.559-10.289-10.277-20.187-17.152-29.696 19.432-43.057 29.147-69.339 29.147-78.848 0-1.536-0.768-2.865-2.304-3.986-46.47-27.039-70.083-40.558-70.839-40.558-3.048 0-11.813 8.948-26.295 26.843s-24.381 30.842-29.696 38.839c-7.631-0.756-13.349-1.134-17.152-1.134s-9.521 0.378-17.152 1.134c-5.339-7.997-15.238-20.943-29.696-38.839s-23.223-26.843-26.295-26.843c-0.756 0-24.369 13.519-70.839 40.558-1.536 1.146-2.304 2.475-2.304 3.986 0 9.533 9.716 35.816 29.147 78.848-6.851 9.533-12.568 19.432-17.152 29.696-56.759 5.705-85.138 11.605-85.138 17.701v80.018c0 6.095 28.379 11.995 85.138 17.701 4.949 11.045 10.667 20.943 17.152 29.696-19.432 43.057-29.147 69.339-29.147 78.848 0 1.536 0.768 2.865 2.304 3.986 1.536 0.756 8.204 4.571 20.005 11.447s23.040 13.349 33.719 19.419c10.679 6.071 16.396 9.118 17.152 9.143 3.048 0 11.813-8.863 26.295-26.587s24.381-30.586 29.696-38.583c7.631 0.756 13.349 1.134 17.152 1.134s9.521-0.378 17.152-1.134c19.432 27.038 36.949 48.372 52.553 64l3.438 1.134c1.536 0 25.149-13.336 70.839-40.009 1.536-1.146 2.304-2.475 2.304-3.986 0-9.533-9.716-35.816-29.147-78.848 6.485-8.753 12.203-18.651 17.152-29.696 56.759-5.705 85.138-11.605 85.138-17.701h-0.037z" horiz-adv-x="1134" />
<glyph unicode="&#xe60b;" d="M493.929 933.072c-266.12 0-481.882-215.763-481.882-481.882 0-212.932 138.059-393.517 329.547-457.246 24.094-4.397 32.888 10.481 32.888 23.191 0 11.445-0.422 49.453-0.663 89.69-134.024-29.094-162.334 56.802-162.334 56.802-21.926 55.657-53.489 70.475-53.489 70.475-43.791 29.877 3.313 29.274 3.313 29.274 48.369-3.373 73.848-49.634 73.848-49.634 43.008-73.668 112.821-52.344 140.228-39.996 4.397 31.081 16.866 52.344 30.6 64.331-106.978 12.168-219.497 53.549-219.497 238.17 0 52.646 18.793 95.593 49.574 129.325-4.939 12.228-21.504 61.259 4.759 127.578 0 0 40.418 12.951 132.518-49.393 38.43 10.722 79.631 16.023 120.591 16.203 40.96-0.181 82.161-5.542 120.651-16.264 91.919 62.404 132.397 49.393 132.397 49.393 26.383-66.379 9.758-115.351 4.819-127.518 30.901-33.732 49.513-76.68 49.513-129.325 0-185.103-112.7-225.882-220.040-237.809 17.348-14.938 32.708-44.213 32.708-89.148 0-64.392-0.663-116.375-0.663-132.216 0-12.83 8.794-27.829 33.19-23.13 191.368 63.849 329.306 244.435 329.306 457.246 0 266.12-215.763 481.882-481.882 481.882v0z" />
<glyph unicode="&#xe60c;" d="M421.167 478.82c0-14.21 6.321-28.141 18.963-41.794s27.951-27.079 45.928-40.277c17.977-13.198 35.853-27.711 53.627-43.539s32.983-36.371 45.625-61.63c12.642-25.259 18.963-53.311 18.963-84.158 0-35.549-9.481-69.72-28.444-102.514-28.444-48.191-70.125-83.652-125.042-106.382s-113.778-34.083-176.583-34.057c-52.161 0-100.858 8.192-146.091 24.576s-79.113 43.539-101.641 81.465c-14.614 23.716-21.921 49.594-21.921 77.634 0 32.009 8.786 61.642 26.359 88.898s40.985 49.974 70.239 68.153c51.756 32.389 131.552 52.148 239.388 59.278-12.642 16.586-22.022 31.2-28.141 43.842s-9.178 27.066-9.178 43.273c0 14.21 4.147 30.998 12.44 50.366-18.179-1.593-31.605-2.389-40.277-2.389-58.456 0-107.735 19.064-147.835 57.192s-60.151 86.421-60.151 144.877c0 32.389 7.105 63.791 21.314 94.208s33.767 56.295 58.671 77.634c30.417 26.068 66.472 45.423 108.165 58.065s84.651 18.963 128.872 18.963h247.694l-81.768-52.148h-77.634c29.228-24.879 51.352-51.149 66.37-78.81s22.528-59.266 22.528-94.815c0-28.444-4.842-54.019-14.526-76.724s-21.34-41.074-34.968-55.106c-13.628-14.033-27.357-26.877-41.188-38.533s-25.587-23.805-35.271-36.447c-9.684-12.642-14.526-25.676-14.526-39.102h0.038zM334.658 535.671c15.019 0 30.429 3.262 46.232 9.785s28.836 15.12 39.102 25.79c20.935 22.528 31.403 53.931 31.403 94.208 0 22.907-3.363 47.597-10.088 74.069s-16.308 52.047-28.748 76.724c-12.44 24.677-29.127 45.119-50.062 61.326s-44.045 24.311-69.329 24.311c-16.586 0-32.882-3.856-48.887-11.567s-28.937-18.078-38.798-31.099c-18.558-23.312-27.838-54.917-27.838-94.815 0-18.179 1.972-37.433 5.916-57.761s10.164-40.669 18.66-61.023c8.495-20.354 18.761-38.621 30.796-54.803s26.852-29.418 44.449-39.708c17.598-10.291 36.662-15.423 57.192-15.398v-0.038zM335.834 18.361c22.907 0 44.93 2.566 66.067 7.699s40.695 12.832 58.671 23.097c17.977 10.265 32.401 24.69 43.273 43.273s16.308 40.113 16.308 64.588c0 9.886-1.378 19.57-4.134 29.051s-5.626 17.775-8.609 24.879c-2.984 7.105-8.318 15.297-16.005 24.576s-13.514 16.194-17.484 20.745c-3.97 4.551-11.58 11.365-22.831 20.442s-18.457 14.804-21.618 17.18c-3.16 2.377-11.352 8.306-24.576 17.787s-20.429 14.614-21.618 15.398c-6.321 0.784-15.802 1.176-28.444 1.176-20.935 0-41.681-1.378-62.236-4.134s-41.794-7.699-63.716-14.829c-21.921-7.13-41.086-16.22-57.496-27.269s-29.936-25.764-40.581-44.146c-10.645-18.381-15.979-39.215-16.005-62.502 0-27.661 6.915-52.060 20.745-73.197s31.908-37.534 54.234-49.19c22.326-11.656 45.827-20.354 70.504-26.093s49.86-8.609 75.548-8.609v0.076zM815.863 537.453h126.217v-63.981h-126.217v-129.783h-62.236v129.783h-125.649v63.981h125.649v128.607h62.236v-128.607z" horiz-adv-x="948" />
<glyph unicode="&#xe60d;" d="M352.919 180.33l-48.791-48.429c-42.285-41.864-111.014-41.924-153.239 0-20.299 20.179-31.443 46.863-31.443 75.354s11.204 55.236 31.443 75.415l179.501 178.116c37.165 36.924 107.159 91.196 158.178 40.599 23.432-23.251 61.259-23.070 84.45 0.301s23.13 61.199-0.301 84.45c-86.679 86.016-214.859 70.114-326.475-40.599l-179.501-178.116c-43.008-42.767-66.741-99.629-66.741-160.166s23.733-117.338 66.801-160.105c44.333-44.032 102.52-65.958 160.708-65.958s116.495 21.926 160.828 65.958l48.791 48.489c23.432 23.251 23.552 61.079 0.301 84.39-23.251 23.371-61.079 23.492-84.51 0.301v0zM896.964 872.132c-93.124 92.401-223.292 97.4-309.549 11.866l-60.777-60.296c-23.432-23.251-23.612-61.018-0.361-84.45s61.079-23.552 84.45-0.301l60.777 60.296c44.634 44.333 103.123 25.961 141.312-11.866 20.299-20.119 31.443-46.923 31.443-75.354 0-28.491-11.204-55.236-31.443-75.354l-191.548-189.982c-87.522-86.859-128.663-46.14-146.191-28.732-23.432 23.251-61.199 23.070-84.39-0.301s-23.13-61.259 0.301-84.45c40.177-39.876 86.136-59.633 134.204-59.633 58.91 0 121.133 29.636 180.284 88.365l191.488 189.982c43.068 42.707 66.801 99.569 66.801 160.045s-23.733 117.399-66.801 160.166v0z" horiz-adv-x="964" />
<glyph unicode="&#xe60e;" d="M50.688 846.006c41.643-22.443 618.581-332.288 640.085-343.808s49.237-17.067 77.227-17.067c28.075 0 55.893 5.547 77.312 17.152s598.357 321.365 640 343.808c41.728 22.357 81.152 92.587 4.608 92.587h-1443.755c-76.544 0-37.205-70.229 4.523-92.672v0zM1502.976 675.339c-47.36-24.747-628.651-328.619-657.664-343.808s-49.237-17.152-77.312-17.152c-27.989 0-48.213 1.963-77.227 17.152s-610.389 319.147-657.664 343.808c-33.365 17.408-33.109-2.987-33.109-18.688v-625.92c0-35.84 47.701-81.92 84.651-81.92h1366.784c37.035 0 84.565 46.080 84.565 81.835v625.92c0 15.701 0.341 36.181-33.024 18.773v0z" horiz-adv-x="1536" />
<glyph unicode="&#xe60f;" d="M1142.154 940.318h-1024c-64.985 0-118.154-53.169-118.154-118.154v-708.923c0-64.985 53.169-118.154 118.154-118.154h1024c64.985 0 118.154 53.169 118.154 118.154v708.923c0 64.985-53.169 118.154-118.154 118.154v0zM1102.769 704.010l-472.615-354.462-472.615 354.462v78.769l472.615-236.308 472.615 236.308v-78.769z" horiz-adv-x="1260" />
<glyph unicode="&#xe610;" d="M873.382 575.029l-271.059 271.059 90.353 90.353 271.059-271.059-90.353-90.353zM587.264 770.794l210.824-210.824-135.529-346.353-542.118-240.941-38.912 38.912 324.548 324.548c5-1.325 10.18-2.048 15.601-2.048 33.25 0 60.235 26.985 60.235 60.235s-26.985 60.235-60.235 60.235c-33.25 0-60.235-26.985-60.235-60.235 0-5.421 0.723-10.601 2.048-15.601l-324.548-324.548-38.912 38.912 240.941 542.118 346.293 135.59z" horiz-adv-x="964" />
<glyph unicode="&#xe611;" d="M1018.176 668.096l-286.080 286.080c-9.344 9.344-21.632 7.232-27.328-4.672l-38.336-79.872 267.2-267.2 79.872 38.336c11.904 5.696 14.016 18.048 4.672 27.328v0zM615.36 824.64l-263.36-21.952c-17.472-2.176-32.064-5.888-37.12-28.736v-0.064c-71.424-343.040-314.88-677.824-314.88-677.824l57.344-57.344 272 272c-6.016 12.544-9.344 26.56-9.344 41.408 0 52.992 43.008 96 96 96s96-43.008 96-96c0-52.992-43.008-96-96-96-14.848 0-28.864 3.392-41.408 9.344l-272-272 57.344-57.344c0 0 334.784 243.456 677.824 314.88h0.064c22.848 4.992 26.56 19.584 28.736 37.12l21.952 263.36-273.152 273.152z" />
<glyph unicode="&#xe612;" d="M554.604 880.031c-61.494 44.355-138.617 66.506-231.532 66.506-70.71 0-130.317-15.629-178.769-46.781-76.908-48.829-117.76-131.719-122.718-248.67h178.176c0 34.061 9.917 66.883 29.804 98.466s53.625 47.373 101.214 47.373c48.344 0 81.704-12.827 99.921-38.427 18.27-25.708 27.379-54.11 27.379-85.261 0-27.109-13.581-51.901-29.965-74.483-9-13.15-20.911-25.223-35.624-36.325 0 0-96.633-61.979-139.102-111.778-24.63-28.888-26.84-72.111-28.995-134.144-0.162-4.419 1.509-13.528 16.977-13.528h138.617c13.743 0 16.6 10.186 16.815 14.659 0.97 22.582 3.503 34.115 7.653 47.158 7.815 24.63 28.941 46.134 52.763 64.62l49.044 33.846c44.248 34.493 79.603 62.787 95.178 84.992 26.624 36.541 45.325 81.489 45.325 134.791 0 87.040-30.774 152.684-92.16 196.985v0zM320.216 196.107c-61.44 1.832-112.101-40.637-114.041-107.251s46.242-110.538 107.682-112.371c64.135-1.886 113.448 39.235 115.389 105.795s-44.894 111.939-109.029 113.826v0z" horiz-adv-x="647" />
<glyph unicode="&#xe613;" d="M512 960c-282.821 0-512-229.218-512-512s229.179-512 512-512c282.742 0 512 229.218 512 512s-229.218 512-512 512v0zM507.865 33.398c-228.391 0-413.538 185.147-413.538 413.538s185.147 413.538 413.538 413.538c228.352 0 413.538-185.147 413.538-413.538s-185.186-413.538-413.538-413.538v0zM627.397 423.148h-117.366v198.183c0 21.504-17.447 38.991-38.951 38.991s-38.991-17.447-38.991-38.991v-237.135c0-21.543 17.447-38.951 38.991-38.951h156.318c21.543 0 38.991 17.408 38.991 38.951 0 21.504-17.447 38.951-38.991 38.951v0z" />
<glyph unicode="&#xe614;" d="M884.509 390.114c0-236.646-191.829-428.51-428.51-428.51s-428.51 191.863-428.51 428.51c0 229.444 180.429 416.154 407.108 427.383v73.933h-32.119c-18.944 0-34.304 15.36-34.304 34.304s15.36 34.27 34.304 34.27h102.81c18.944 0 34.304-15.326 34.304-34.27s-15.36-34.304-34.304-34.304h-36.386v-73.489c230.639-6.827 415.607-195.55 415.607-427.827v0zM434.597 685.777v78.199c-106.121-6.007-200.226-55.979-265.079-131.686l56.422-56.422-24.235-24.269-53.419 53.453c-43.486-61.372-69.359-136.090-69.359-217.054 0-3.618 0.512-8.567 0.512-8.567h83.012v-34.304h-80.555c8.329-70.042 36.079-136.090 77.414-188.894l42.428 42.428 24.235-24.235-44.237-44.271c64.137-68.13 153.19-112.538 252.86-118.17v93.15h34.27v-93.594c102.025 3.482 193.536 47.548 259.379 116.395l-48.606 48.606 24.235 24.235 47.002-46.967c42.325 53.248 70.793 120.183 79.258 191.283h-87.040v34.304h89.463c0.102 3.55 0.546 4.949 0.546 8.567 0 83.217-27.307 159.778-72.977 222.037l-56.252-56.252-24.235 24.235 58.914 58.88c-66.458 75.196-162.236 123.938-269.653 127.556v-78.643h-34.304zM470.983 379.396h120.013c9.455 0 17.135-7.714 17.135-17.135 0-9.455-7.68-17.169-17.135-17.169h-137.148c-9.455 0-17.135 7.714-17.135 17.169v237.807c0 9.455 7.68 17.135 17.135 17.135s17.135-7.68 17.135-17.135v-220.672z" horiz-adv-x="887" />
<glyph unicode="&#xe615;" d="M1235.232 832.055c-34.036-49.77-75.175-92.176-123.416-127.22 0.52-7.119 0.78-17.782 0.78-31.988 0-66.024-9.655-131.933-28.965-197.73s-48.648-128.91-88.015-189.342c-39.367-60.432-86.227-113.892-140.581-160.378s-119.873-83.562-196.559-111.226c-76.686-27.664-158.72-41.513-246.101-41.545-137.639 0-263.607 36.831-377.905 110.494 17.782-2.048 37.595-3.072 59.441-3.072 114.298 0 216.145 35.044 305.542 105.131-53.346 1.008-101.1 17.392-143.262 49.152s-71.111 72.265-86.845 121.515c16.774-2.536 32.264-3.803 46.47-3.803 21.845 0 43.431 2.796 64.756 8.387-56.889 11.67-103.993 39.985-141.312 84.943s-55.979 97.15-55.979 156.574v3.072c34.523-19.31 71.599-29.729 111.226-31.256-33.516 22.365-60.188 51.574-80.018 87.625s-29.729 75.158-29.696 117.321c0 44.698 11.183 86.097 33.548 124.197 61.472-75.678 136.273-136.257 224.402-181.736s182.483-70.754 283.063-75.825c-4.064 19.31-6.095 38.099-6.095 56.369 0 68.072 24.007 126.098 72.021 174.080s106.041 71.989 174.080 72.021c71.127 0 131.056-25.909 179.785-77.726 55.361 10.663 107.422 30.476 156.184 59.441-18.79-58.417-54.857-103.619-108.203-135.607 47.234 5.071 94.468 17.766 141.702 38.083l-0.049 0.049z" horiz-adv-x="1268" />
</font>
</defs>
</svg>
